%TF.GenerationSoftware,KiCad,Pcbnew,8.0.6*%
%TF.CreationDate,2024-10-20T14:16:11-03:00*%
%TF.ProjectId,light-box-neopixels,6c696768-742d-4626-9f78-2d6e656f7069,rev?*%
%TF.SameCoordinates,Original*%
%TF.FileFunction,Copper,L1,Top*%
%TF.FilePolarity,Positive*%
%FSLAX46Y46*%
G04 Gerber Fmt 4.6, Leading zero omitted, Abs format (unit mm)*
G04 Created by KiCad (PCBNEW 8.0.6) date 2024-10-20 14:16:11*
%MOMM*%
%LPD*%
G01*
G04 APERTURE LIST*
G04 Aperture macros list*
%AMRoundRect*
0 Rectangle with rounded corners*
0 $1 Rounding radius*
0 $2 $3 $4 $5 $6 $7 $8 $9 X,Y pos of 4 corners*
0 Add a 4 corners polygon primitive as box body*
4,1,4,$2,$3,$4,$5,$6,$7,$8,$9,$2,$3,0*
0 Add four circle primitives for the rounded corners*
1,1,$1+$1,$2,$3*
1,1,$1+$1,$4,$5*
1,1,$1+$1,$6,$7*
1,1,$1+$1,$8,$9*
0 Add four rect primitives between the rounded corners*
20,1,$1+$1,$2,$3,$4,$5,0*
20,1,$1+$1,$4,$5,$6,$7,0*
20,1,$1+$1,$6,$7,$8,$9,0*
20,1,$1+$1,$8,$9,$2,$3,0*%
G04 Aperture macros list end*
%TA.AperFunction,ComponentPad*%
%ADD10R,1.700000X1.700000*%
%TD*%
%TA.AperFunction,SMDPad,CuDef*%
%ADD11RoundRect,0.250000X-0.262500X-0.450000X0.262500X-0.450000X0.262500X0.450000X-0.262500X0.450000X0*%
%TD*%
%TA.AperFunction,ComponentPad*%
%ADD12O,1.700000X1.700000*%
%TD*%
%TA.AperFunction,ComponentPad*%
%ADD13RoundRect,0.249999X-0.790001X-1.550001X0.790001X-1.550001X0.790001X1.550001X-0.790001X1.550001X0*%
%TD*%
%TA.AperFunction,ComponentPad*%
%ADD14O,2.080000X3.600000*%
%TD*%
%TA.AperFunction,SMDPad,CuDef*%
%ADD15RoundRect,0.250000X0.250000X0.475000X-0.250000X0.475000X-0.250000X-0.475000X0.250000X-0.475000X0*%
%TD*%
%TA.AperFunction,SMDPad,CuDef*%
%ADD16R,1.700000X0.650000*%
%TD*%
%TA.AperFunction,ViaPad*%
%ADD17C,0.600000*%
%TD*%
%TA.AperFunction,Conductor*%
%ADD18C,0.500000*%
%TD*%
%TA.AperFunction,Conductor*%
%ADD19C,0.250000*%
%TD*%
%TA.AperFunction,Conductor*%
%ADD20C,1.000000*%
%TD*%
G04 APERTURE END LIST*
D10*
%TO.P,J11,1,Pin_1*%
%TO.N,Net-(J1-Pin_1)*%
X212750000Y-110850000D03*
%TD*%
%TO.P,J10,1,Pin_1*%
%TO.N,Net-(J1-Pin_2)*%
X212800000Y-124850000D03*
%TD*%
%TO.P,J9,1,Pin_1*%
%TO.N,Batt-*%
X189750000Y-113475000D03*
%TD*%
%TO.P,J8,1,Pin_1*%
%TO.N,Net-(J3-Pin_1)*%
X189800000Y-122350000D03*
%TD*%
%TO.P,J7,1,Pin_1*%
%TO.N,GND*%
X189750000Y-110900000D03*
%TD*%
%TO.P,J6,1,Pin_1*%
%TO.N,VCC-batt*%
X189800000Y-124900000D03*
%TD*%
D11*
%TO.P,R1,1*%
%TO.N,WS2812b*%
X235400000Y-108450000D03*
%TO.P,R1,2*%
%TO.N,Net-(D1-DIN)*%
X237225000Y-108450000D03*
%TD*%
D10*
%TO.P,J5,1,Pin_1*%
%TO.N,5V*%
X259640000Y-112700000D03*
D12*
%TO.P,J5,2,Pin_2*%
%TO.N,GND*%
X257100000Y-112700000D03*
%TO.P,J5,3,Pin_3*%
%TO.N,Reset*%
X254560000Y-112700000D03*
%TO.P,J5,4,Pin_4*%
%TO.N,D11*%
X252020000Y-112700000D03*
%TO.P,J5,5,Pin_5*%
%TO.N,D12*%
X249480000Y-112700000D03*
%TO.P,J5,6,Pin_6*%
%TO.N,D13*%
X246940000Y-112700000D03*
%TD*%
D10*
%TO.P,J4,1,Pin_1*%
%TO.N,5V*%
X225200000Y-112650000D03*
D12*
%TO.P,J4,2,Pin_2*%
%TO.N,GND*%
X225200000Y-110110000D03*
%TO.P,J4,3,Pin_3*%
%TO.N,VCC-batt*%
X225200000Y-107570000D03*
%TD*%
D13*
%TO.P,J3,1,Pin_1*%
%TO.N,Net-(J3-Pin_1)*%
X225220000Y-123350000D03*
D14*
%TO.P,J3,2,Pin_2*%
%TO.N,Net-(J2-Pin_1)*%
X230300000Y-123350000D03*
%TD*%
D13*
%TO.P,J2,1,Pin_1*%
%TO.N,Net-(J2-Pin_1)*%
X238960000Y-123322500D03*
D14*
%TO.P,J2,2,Pin_2*%
%TO.N,Batt-*%
X244040000Y-123322500D03*
%TD*%
D13*
%TO.P,J1,1,Pin_1*%
%TO.N,Net-(J1-Pin_1)*%
X252660000Y-123272500D03*
D14*
%TO.P,J1,2,Pin_2*%
%TO.N,Net-(J1-Pin_2)*%
X257740000Y-123272500D03*
%TD*%
D15*
%TO.P,C1,1*%
%TO.N,5V*%
X241450000Y-108500000D03*
%TO.P,C1,2*%
%TO.N,GND*%
X239550000Y-108500000D03*
%TD*%
D16*
%TO.P,U1,1,~{RESET}/PB5*%
%TO.N,Reset*%
X233800000Y-111040000D03*
%TO.P,U1,2,XTAL1/PB3*%
%TO.N,unconnected-(U1-XTAL1{slash}PB3-Pad2)*%
X233800000Y-112310000D03*
%TO.P,U1,3,XTAL2/PB4*%
%TO.N,WS2812b*%
X233800000Y-113580000D03*
%TO.P,U1,4,GND*%
%TO.N,GND*%
X233800000Y-114850000D03*
%TO.P,U1,5,AREF/PB0*%
%TO.N,D11*%
X241100000Y-114850000D03*
%TO.P,U1,6,PB1*%
%TO.N,D12*%
X241100000Y-113580000D03*
%TO.P,U1,7,PB2*%
%TO.N,D13*%
X241100000Y-112310000D03*
%TO.P,U1,8,VCC*%
%TO.N,5V*%
X241100000Y-111040000D03*
%TD*%
D17*
%TO.N,GND*%
X77475000Y-97925000D03*
X96550000Y-96900000D03*
X117700000Y-96900000D03*
X139950000Y-96900000D03*
X161150000Y-96900000D03*
X182050000Y-96900000D03*
X202250000Y-96900000D03*
X220950000Y-96900000D03*
X240250000Y-96900000D03*
X258100000Y-96900000D03*
%TO.N,WS2812b*%
X234150000Y-108450000D03*
X232350000Y-113550000D03*
%TO.N,Net-(D1-DIN)*%
X237250000Y-106950000D03*
%TO.N,GND*%
X239550000Y-107150000D03*
%TO.N,Batt-*%
X204450000Y-119550000D03*
X203750000Y-119550000D03*
X203100000Y-119550000D03*
%TO.N,GND*%
X232300000Y-114850000D03*
%TD*%
D18*
%TO.N,WS2812b*%
X235400000Y-108450000D02*
X234150000Y-108450000D01*
X233800000Y-113580000D02*
X232600000Y-113580000D01*
X232380000Y-113580000D02*
X232350000Y-113550000D01*
%TO.N,Net-(D1-DIN)*%
X237225000Y-106975000D02*
X237250000Y-106950000D01*
X237225000Y-108450000D02*
X237225000Y-106975000D01*
%TO.N,GND*%
X239550000Y-108500000D02*
X239550000Y-107150000D01*
D19*
%TO.N,Reset*%
X235490000Y-111040000D02*
X233800000Y-111040000D01*
X235900000Y-111450000D02*
X235490000Y-111040000D01*
X237900000Y-116350000D02*
X235900000Y-114350000D01*
X250910000Y-116350000D02*
X237900000Y-116350000D01*
X235900000Y-114350000D02*
X235900000Y-111450000D01*
X254560000Y-112700000D02*
X250910000Y-116350000D01*
%TO.N,D11*%
X249870000Y-114850000D02*
X241100000Y-114850000D01*
X252020000Y-112700000D02*
X249870000Y-114850000D01*
%TO.N,D12*%
X242330000Y-113580000D02*
X241100000Y-113580000D01*
X242625000Y-113875000D02*
X242330000Y-113580000D01*
X248305000Y-113875000D02*
X242625000Y-113875000D01*
X249480000Y-112700000D02*
X248305000Y-113875000D01*
%TO.N,D13*%
X243160000Y-112310000D02*
X241100000Y-112310000D01*
X243200000Y-112350000D02*
X243160000Y-112310000D01*
X243400000Y-112350000D02*
X243200000Y-112350000D01*
X243750000Y-112700000D02*
X243400000Y-112350000D01*
X246940000Y-112700000D02*
X243750000Y-112700000D01*
D20*
%TO.N,Batt-*%
X204450000Y-119550000D02*
X203750000Y-119550000D01*
X203750000Y-119550000D02*
X203100000Y-119550000D01*
X240267500Y-119550000D02*
X204450000Y-119550000D01*
X244040000Y-123322500D02*
X240267500Y-119550000D01*
%TO.N,Net-(J2-Pin_1)*%
X230327500Y-123322500D02*
X230300000Y-123350000D01*
X238960000Y-123322500D02*
X230327500Y-123322500D01*
%TO.N,Net-(J3-Pin_1)*%
X187950000Y-122350000D02*
X189800000Y-122350000D01*
X187550128Y-126951776D02*
X187550128Y-122749872D01*
X194693610Y-126956390D02*
X187550128Y-126951776D01*
X199340000Y-122310000D02*
X194693610Y-126956390D01*
X224180000Y-122310000D02*
X199340000Y-122310000D01*
X225220000Y-123350000D02*
X224180000Y-122310000D01*
X187550128Y-122749872D02*
X187950000Y-122350000D01*
D18*
%TO.N,GND*%
X233800000Y-114850000D02*
X232300000Y-114850000D01*
%TO.N,5V*%
X230115000Y-112650000D02*
X225200000Y-112650000D01*
X232965000Y-109800000D02*
X230115000Y-112650000D01*
X241450000Y-109800000D02*
X232965000Y-109800000D01*
X259640000Y-112700000D02*
X256740000Y-109800000D01*
X256740000Y-109800000D02*
X241450000Y-109800000D01*
X241450000Y-109800000D02*
X241450000Y-110690000D01*
X241450000Y-108500000D02*
X241450000Y-109800000D01*
X241450000Y-110690000D02*
X241100000Y-111040000D01*
D20*
%TO.N,VCC-batt*%
X193800000Y-124950000D02*
X193750000Y-124900000D01*
X193750000Y-124900000D02*
X189800000Y-124900000D01*
X211180000Y-107570000D02*
X193800000Y-124950000D01*
X225200000Y-107570000D02*
X211180000Y-107570000D01*
%TO.N,Net-(J1-Pin_2)*%
X214950000Y-124850000D02*
X212800000Y-124850000D01*
X254312500Y-126700000D02*
X216800000Y-126700000D01*
X257740000Y-123272500D02*
X254312500Y-126700000D01*
X216800000Y-126700000D02*
X214950000Y-124850000D01*
%TD*%
M02*
