%TF.GenerationSoftware,KiCad,Pcbnew,8.0.6*%
%TF.CreationDate,2024-10-20T14:16:11-03:00*%
%TF.ProjectId,light-box-neopixels,6c696768-742d-4626-9f78-2d6e656f7069,rev?*%
%TF.SameCoordinates,Original*%
%TF.FileFunction,Legend,Top*%
%TF.FilePolarity,Positive*%
%FSLAX46Y46*%
G04 Gerber Fmt 4.6, Leading zero omitted, Abs format (unit mm)*
G04 Created by KiCad (PCBNEW 8.0.6) date 2024-10-20 14:16:11*
%MOMM*%
%LPD*%
G01*
G04 APERTURE LIST*
%ADD10C,0.150000*%
%ADD11C,0.120000*%
G04 APERTURE END LIST*
D10*
G36*
X222232089Y-115990872D02*
G01*
X222296293Y-116000047D01*
X222357974Y-116015340D01*
X222426747Y-116040913D01*
X222492086Y-116074812D01*
X222552520Y-116116172D01*
X222606299Y-116164125D01*
X222653423Y-116218672D01*
X222693892Y-116279814D01*
X222714030Y-116317712D01*
X222740035Y-116377529D01*
X222760660Y-116440293D01*
X222775904Y-116506004D01*
X222785768Y-116574662D01*
X222790252Y-116646266D01*
X222790551Y-116670789D01*
X222787715Y-116744329D01*
X222779210Y-116814922D01*
X222765033Y-116882567D01*
X222745186Y-116947266D01*
X222719668Y-117009018D01*
X222709902Y-117028947D01*
X222677422Y-117085434D01*
X222633576Y-117144535D01*
X222583317Y-117196313D01*
X222526647Y-117240767D01*
X222482243Y-117268036D01*
X222416678Y-117299709D01*
X222348895Y-117323602D01*
X222278894Y-117339716D01*
X222206674Y-117348050D01*
X222164410Y-117349321D01*
X222096485Y-117346173D01*
X222031306Y-117336729D01*
X221968873Y-117320990D01*
X221909187Y-117298955D01*
X221852246Y-117270624D01*
X221833876Y-117259781D01*
X221773612Y-117217339D01*
X221720063Y-117168637D01*
X221673229Y-117113675D01*
X221633112Y-117052453D01*
X221613203Y-117014659D01*
X221587737Y-116955798D01*
X221564686Y-116885519D01*
X221548806Y-116813508D01*
X221540903Y-116750405D01*
X221538360Y-116688253D01*
X221717030Y-116688253D01*
X221720139Y-116760396D01*
X221729464Y-116827594D01*
X221745007Y-116889846D01*
X221771864Y-116958020D01*
X221807674Y-117019072D01*
X221844354Y-117064509D01*
X221894366Y-117111232D01*
X221948911Y-117148288D01*
X222007987Y-117175678D01*
X222071596Y-117193400D01*
X222139737Y-117201456D01*
X222163457Y-117201993D01*
X222234370Y-117197115D01*
X222300416Y-117182481D01*
X222361595Y-117158090D01*
X222417906Y-117123944D01*
X222469351Y-117080041D01*
X222485418Y-117063239D01*
X222528365Y-117007120D01*
X222562426Y-116942831D01*
X222584022Y-116883015D01*
X222599449Y-116817524D01*
X222608704Y-116746359D01*
X222611789Y-116669519D01*
X222609207Y-116600912D01*
X222601458Y-116536224D01*
X222586277Y-116467094D01*
X222564348Y-116403085D01*
X222557812Y-116387883D01*
X222527687Y-116331107D01*
X222486302Y-116275347D01*
X222436980Y-116228176D01*
X222399689Y-116201501D01*
X222339123Y-116169423D01*
X222274589Y-116147842D01*
X222206087Y-116136761D01*
X222166315Y-116135140D01*
X222099064Y-116139628D01*
X222035429Y-116153090D01*
X221975411Y-116175527D01*
X221919010Y-116206939D01*
X221866225Y-116247325D01*
X221849434Y-116262782D01*
X221804438Y-116316534D01*
X221768751Y-116382297D01*
X221746123Y-116446274D01*
X221729960Y-116518593D01*
X221721685Y-116582453D01*
X221717547Y-116651652D01*
X221717030Y-116688253D01*
X221538360Y-116688253D01*
X221538269Y-116686030D01*
X221541002Y-116606339D01*
X221549203Y-116531102D01*
X221562871Y-116460321D01*
X221582007Y-116393995D01*
X221606609Y-116332124D01*
X221636679Y-116274708D01*
X221672216Y-116221748D01*
X221713220Y-116173242D01*
X221770472Y-116119823D01*
X221832685Y-116075457D01*
X221899860Y-116040146D01*
X221971995Y-116013889D01*
X222049092Y-115996686D01*
X222114342Y-115989443D01*
X222165362Y-115987813D01*
X222232089Y-115990872D01*
G37*
G36*
X223004239Y-117329000D02*
G01*
X223004239Y-116008134D01*
X223181730Y-116008134D01*
X223869469Y-117045140D01*
X223869469Y-116008134D01*
X224035530Y-116008134D01*
X224035530Y-117329000D01*
X223858039Y-117329000D01*
X223170300Y-116291041D01*
X223170300Y-117329000D01*
X223004239Y-117329000D01*
G37*
G36*
X224178094Y-117349321D02*
G01*
X224557526Y-115987813D01*
X224686120Y-115987813D01*
X224307641Y-117349321D01*
X224178094Y-117349321D01*
G37*
G36*
X225465669Y-115990872D02*
G01*
X225529873Y-116000047D01*
X225591554Y-116015340D01*
X225660327Y-116040913D01*
X225725666Y-116074812D01*
X225786100Y-116116172D01*
X225839879Y-116164125D01*
X225887003Y-116218672D01*
X225927472Y-116279814D01*
X225947609Y-116317712D01*
X225973615Y-116377529D01*
X225994240Y-116440293D01*
X226009484Y-116506004D01*
X226019348Y-116574662D01*
X226023832Y-116646266D01*
X226024131Y-116670789D01*
X226021295Y-116744329D01*
X226012789Y-116814922D01*
X225998613Y-116882567D01*
X225978766Y-116947266D01*
X225953248Y-117009018D01*
X225943482Y-117028947D01*
X225911002Y-117085434D01*
X225867155Y-117144535D01*
X225816897Y-117196313D01*
X225760227Y-117240767D01*
X225715823Y-117268036D01*
X225650258Y-117299709D01*
X225582475Y-117323602D01*
X225512474Y-117339716D01*
X225440254Y-117348050D01*
X225397990Y-117349321D01*
X225330065Y-117346173D01*
X225264886Y-117336729D01*
X225202453Y-117320990D01*
X225142767Y-117298955D01*
X225085826Y-117270624D01*
X225067456Y-117259781D01*
X225007191Y-117217339D01*
X224953643Y-117168637D01*
X224906809Y-117113675D01*
X224866692Y-117052453D01*
X224846782Y-117014659D01*
X224821317Y-116955798D01*
X224798266Y-116885519D01*
X224782386Y-116813508D01*
X224774483Y-116750405D01*
X224771940Y-116688253D01*
X224950610Y-116688253D01*
X224953719Y-116760396D01*
X224963044Y-116827594D01*
X224978587Y-116889846D01*
X225005444Y-116958020D01*
X225041254Y-117019072D01*
X225077934Y-117064509D01*
X225127946Y-117111232D01*
X225182491Y-117148288D01*
X225241567Y-117175678D01*
X225305176Y-117193400D01*
X225373317Y-117201456D01*
X225397037Y-117201993D01*
X225467950Y-117197115D01*
X225533996Y-117182481D01*
X225595174Y-117158090D01*
X225651486Y-117123944D01*
X225702931Y-117080041D01*
X225718998Y-117063239D01*
X225761945Y-117007120D01*
X225796006Y-116942831D01*
X225817602Y-116883015D01*
X225833028Y-116817524D01*
X225842284Y-116746359D01*
X225845369Y-116669519D01*
X225842786Y-116600912D01*
X225835038Y-116536224D01*
X225819856Y-116467094D01*
X225797928Y-116403085D01*
X225791392Y-116387883D01*
X225761267Y-116331107D01*
X225719882Y-116275347D01*
X225670560Y-116228176D01*
X225633269Y-116201501D01*
X225572703Y-116169423D01*
X225508169Y-116147842D01*
X225439666Y-116136761D01*
X225399895Y-116135140D01*
X225332644Y-116139628D01*
X225269009Y-116153090D01*
X225208991Y-116175527D01*
X225152590Y-116206939D01*
X225099805Y-116247325D01*
X225083014Y-116262782D01*
X225038017Y-116316534D01*
X225002330Y-116382297D01*
X224979703Y-116446274D01*
X224963540Y-116518593D01*
X224955265Y-116582453D01*
X224951127Y-116651652D01*
X224950610Y-116688253D01*
X224771940Y-116688253D01*
X224771849Y-116686030D01*
X224774582Y-116606339D01*
X224782783Y-116531102D01*
X224796451Y-116460321D01*
X224815587Y-116393995D01*
X224840189Y-116332124D01*
X224870259Y-116274708D01*
X224905796Y-116221748D01*
X224946800Y-116173242D01*
X225004052Y-116119823D01*
X225066265Y-116075457D01*
X225133440Y-116040146D01*
X225205575Y-116013889D01*
X225282672Y-115996686D01*
X225347921Y-115989443D01*
X225398942Y-115987813D01*
X225465669Y-115990872D01*
G37*
G36*
X226248614Y-117329000D02*
G01*
X226248614Y-116008134D01*
X227131625Y-116008134D01*
X227131625Y-116160542D01*
X226421660Y-116160542D01*
X226421660Y-116577122D01*
X227036053Y-116577122D01*
X227036053Y-116729530D01*
X226421660Y-116729530D01*
X226421660Y-117329000D01*
X226248614Y-117329000D01*
G37*
G36*
X227359919Y-117329000D02*
G01*
X227359919Y-116008134D01*
X228242930Y-116008134D01*
X228242930Y-116160542D01*
X227532965Y-116160542D01*
X227532965Y-116577122D01*
X228147358Y-116577122D01*
X228147358Y-116729530D01*
X227532965Y-116729530D01*
X227532965Y-117329000D01*
X227359919Y-117329000D01*
G37*
G36*
X228882725Y-117048951D02*
G01*
X229041800Y-117024184D01*
X229058499Y-117088080D01*
X229091706Y-117143493D01*
X229116099Y-117167384D01*
X229173907Y-117199660D01*
X229241500Y-117214849D01*
X229287240Y-117217234D01*
X229350916Y-117212800D01*
X229412594Y-117195773D01*
X229451713Y-117171829D01*
X229491958Y-117122138D01*
X229505373Y-117064509D01*
X229484861Y-117002395D01*
X229457745Y-116977827D01*
X229394970Y-116951571D01*
X229332174Y-116933029D01*
X229293590Y-116922897D01*
X229231086Y-116906532D01*
X229167816Y-116888513D01*
X229101738Y-116867041D01*
X229048468Y-116845423D01*
X228991724Y-116809321D01*
X228947193Y-116758816D01*
X228944958Y-116755249D01*
X228918524Y-116694444D01*
X228909713Y-116627607D01*
X228917868Y-116562734D01*
X228938607Y-116509809D01*
X228975311Y-116457407D01*
X229017669Y-116419952D01*
X229075169Y-116388498D01*
X229119909Y-116372960D01*
X229182657Y-116359058D01*
X229249451Y-116353667D01*
X229258663Y-116353591D01*
X229325819Y-116356692D01*
X229393459Y-116367266D01*
X229454570Y-116385343D01*
X229515909Y-116414862D01*
X229565675Y-116454973D01*
X229579354Y-116471390D01*
X229611577Y-116530384D01*
X229630474Y-116594606D01*
X229634602Y-116616812D01*
X229477431Y-116638085D01*
X229456714Y-116574185D01*
X229415516Y-116526002D01*
X229358014Y-116497058D01*
X229293168Y-116486308D01*
X229270411Y-116485678D01*
X229201731Y-116490030D01*
X229139912Y-116506396D01*
X229112288Y-116522510D01*
X229071632Y-116573511D01*
X229064979Y-116608874D01*
X229084665Y-116665392D01*
X229136132Y-116704148D01*
X229146263Y-116708574D01*
X229207940Y-116727415D01*
X229273833Y-116745894D01*
X229288192Y-116749851D01*
X229357851Y-116769064D01*
X229425367Y-116789088D01*
X229485905Y-116809147D01*
X229526011Y-116824785D01*
X229582997Y-116857961D01*
X229629632Y-116906114D01*
X229632062Y-116909561D01*
X229659638Y-116967584D01*
X229670143Y-117032439D01*
X229670481Y-117047681D01*
X229662725Y-117111894D01*
X229639459Y-117172963D01*
X229623489Y-117200088D01*
X229582589Y-117248921D01*
X229529901Y-117288735D01*
X229488227Y-117310266D01*
X229424765Y-117332501D01*
X229362255Y-117344706D01*
X229295155Y-117349282D01*
X229288192Y-117349321D01*
X229221986Y-117346664D01*
X229152562Y-117336849D01*
X229083527Y-117316776D01*
X229025487Y-117287257D01*
X229006556Y-117273752D01*
X228957607Y-117225289D01*
X228919710Y-117165273D01*
X228895301Y-117102226D01*
X228882725Y-117048951D01*
G37*
G36*
X230031496Y-117329000D02*
G01*
X229741287Y-116373912D01*
X229907348Y-116373912D01*
X230058168Y-116926390D01*
X230114685Y-117130235D01*
X230130225Y-117068139D01*
X230148030Y-116997826D01*
X230163583Y-116936550D01*
X230314720Y-116373912D01*
X230479829Y-116373912D01*
X230621758Y-116930517D01*
X230669068Y-117110549D01*
X230723681Y-116928612D01*
X230886249Y-116373912D01*
X231042466Y-116373912D01*
X230745907Y-117329000D01*
X230578893Y-117329000D01*
X230428073Y-116759694D01*
X230391242Y-116594268D01*
X230199462Y-117329000D01*
X230031496Y-117329000D01*
G37*
G36*
X231170743Y-116191023D02*
G01*
X231170743Y-116008134D01*
X231331406Y-116008134D01*
X231331406Y-116191023D01*
X231170743Y-116191023D01*
G37*
G36*
X231170743Y-117329000D02*
G01*
X231170743Y-116373912D01*
X231331406Y-116373912D01*
X231331406Y-117329000D01*
X231170743Y-117329000D01*
G37*
G36*
X231924525Y-117181672D02*
G01*
X231947704Y-117329000D01*
X231883407Y-117344240D01*
X231826413Y-117349321D01*
X231761708Y-117344709D01*
X231699911Y-117326373D01*
X231690516Y-117321379D01*
X231641351Y-117279234D01*
X231622568Y-117247398D01*
X231608665Y-117182278D01*
X231604126Y-117114136D01*
X231603199Y-117054666D01*
X231603199Y-116500919D01*
X231485083Y-116500919D01*
X231485083Y-116373912D01*
X231603199Y-116373912D01*
X231603199Y-116143396D01*
X231762909Y-116048776D01*
X231762909Y-116373912D01*
X231924525Y-116373912D01*
X231924525Y-116500919D01*
X231762909Y-116500919D01*
X231762909Y-117067684D01*
X231765820Y-117133591D01*
X231771165Y-117158176D01*
X231798789Y-117190245D01*
X231854036Y-117201993D01*
X231916460Y-117185304D01*
X231924525Y-117181672D01*
G37*
G36*
X232697993Y-116983542D02*
G01*
X232856116Y-117004181D01*
X232840866Y-117071669D01*
X232817898Y-117132441D01*
X232782197Y-117193672D01*
X232736415Y-117246132D01*
X232723394Y-117257876D01*
X232666996Y-117297883D01*
X232604485Y-117326459D01*
X232535862Y-117343605D01*
X232470803Y-117349231D01*
X232461127Y-117349321D01*
X232390817Y-117344833D01*
X232325865Y-117331371D01*
X232266271Y-117308934D01*
X232203517Y-117271414D01*
X232155533Y-117229532D01*
X232148056Y-117221679D01*
X232107915Y-117169799D01*
X232076079Y-117110127D01*
X232052548Y-117042664D01*
X232039283Y-116980492D01*
X232031786Y-116912910D01*
X232029940Y-116854949D01*
X232032371Y-116789290D01*
X232041103Y-116718792D01*
X232056185Y-116653136D01*
X232077617Y-116592322D01*
X232080743Y-116585060D01*
X232113667Y-116524466D01*
X232154930Y-116473065D01*
X232204531Y-116430856D01*
X232235690Y-116411379D01*
X232295704Y-116383445D01*
X232358580Y-116364652D01*
X232424320Y-116355002D01*
X232462079Y-116353591D01*
X232527025Y-116357344D01*
X232594626Y-116370824D01*
X232655163Y-116394106D01*
X232714822Y-116432018D01*
X232764587Y-116481331D01*
X232803152Y-116541043D01*
X232828027Y-116602850D01*
X232840875Y-116654596D01*
X232684658Y-116678727D01*
X232665107Y-116618250D01*
X232631553Y-116561385D01*
X232605279Y-116534258D01*
X232547061Y-116499388D01*
X232483282Y-116486105D01*
X232468429Y-116485678D01*
X232403641Y-116492610D01*
X232340138Y-116516572D01*
X232285565Y-116557651D01*
X232270935Y-116573312D01*
X232234251Y-116630669D01*
X232211723Y-116695189D01*
X232199791Y-116762095D01*
X232195345Y-116827207D01*
X232195048Y-116850503D01*
X232197627Y-116918964D01*
X232207153Y-116989495D01*
X232226636Y-117057786D01*
X232259513Y-117118910D01*
X232268394Y-117130235D01*
X232318577Y-117176113D01*
X232377441Y-117205000D01*
X232444988Y-117216894D01*
X232459539Y-117217234D01*
X232526083Y-117209197D01*
X232588196Y-117182351D01*
X232617344Y-117160081D01*
X232658453Y-117108316D01*
X232684682Y-117045646D01*
X232697993Y-116983542D01*
G37*
G36*
X232988520Y-117329000D02*
G01*
X232988520Y-116008134D01*
X233149183Y-116008134D01*
X233149183Y-116482820D01*
X233201184Y-116432466D01*
X233258838Y-116394480D01*
X233322143Y-116368861D01*
X233391100Y-116355610D01*
X233433042Y-116353591D01*
X233502251Y-116358544D01*
X233564931Y-116373401D01*
X233616249Y-116395503D01*
X233672118Y-116434592D01*
X233713314Y-116484265D01*
X233727379Y-116510762D01*
X233747889Y-116575341D01*
X233757749Y-116643415D01*
X233760904Y-116707206D01*
X233761036Y-116724450D01*
X233761036Y-117329000D01*
X233600055Y-117329000D01*
X233600055Y-116723180D01*
X233594939Y-116653655D01*
X233577493Y-116592148D01*
X233547665Y-116546323D01*
X233493776Y-116508339D01*
X233428825Y-116492115D01*
X233400020Y-116490758D01*
X233334928Y-116498991D01*
X233273603Y-116523688D01*
X233265711Y-116528225D01*
X233214656Y-116568983D01*
X233177576Y-116625530D01*
X233175854Y-116629512D01*
X233157622Y-116694654D01*
X233150459Y-116758883D01*
X233149183Y-116805734D01*
X233149183Y-117329000D01*
X232988520Y-117329000D01*
G37*
G36*
X237278663Y-117310526D02*
G01*
X237278663Y-116900198D01*
X236867602Y-116900198D01*
X236867602Y-116724344D01*
X237278663Y-116724344D01*
X237278663Y-116325739D01*
X237453785Y-116325739D01*
X237453785Y-116724344D01*
X237864846Y-116724344D01*
X237864846Y-116900198D01*
X237453785Y-116900198D01*
X237453785Y-117310526D01*
X237278663Y-117310526D01*
G37*
G36*
X239361925Y-116023786D02*
G01*
X239435541Y-116032373D01*
X239508123Y-116048876D01*
X239557083Y-116066720D01*
X239623751Y-116103840D01*
X239679683Y-116152735D01*
X239721214Y-116207404D01*
X239755004Y-116273678D01*
X239775870Y-116348348D01*
X239780565Y-116405973D01*
X239771858Y-116482447D01*
X239745737Y-116555292D01*
X239727808Y-116587690D01*
X239680942Y-116646852D01*
X239618929Y-116696843D01*
X239569173Y-116725076D01*
X239641233Y-116752736D01*
X239709540Y-116794210D01*
X239765468Y-116846989D01*
X239779832Y-116865027D01*
X239818665Y-116930164D01*
X239843116Y-117002385D01*
X239853184Y-117081690D01*
X239853471Y-117098401D01*
X239847186Y-117177347D01*
X239828329Y-117252068D01*
X239808775Y-117299535D01*
X239772264Y-117363352D01*
X239722115Y-117422697D01*
X239698133Y-117443150D01*
X239633979Y-117482440D01*
X239562854Y-117510635D01*
X239532536Y-117519354D01*
X239458953Y-117533955D01*
X239382818Y-117541969D01*
X239306771Y-117544899D01*
X239288904Y-117545000D01*
X238712979Y-117545000D01*
X238712979Y-117369145D01*
X238913014Y-117369145D01*
X239288904Y-117369145D01*
X239362525Y-117367742D01*
X239424825Y-117361817D01*
X239495420Y-117341944D01*
X239540230Y-117318953D01*
X239594040Y-117267847D01*
X239616434Y-117231758D01*
X239640725Y-117161601D01*
X239646475Y-117099501D01*
X239636976Y-117022403D01*
X239605904Y-116951168D01*
X239603244Y-116947093D01*
X239551587Y-116891955D01*
X239483077Y-116856235D01*
X239409678Y-116839156D01*
X239330097Y-116831505D01*
X239262159Y-116829856D01*
X238913014Y-116829856D01*
X238913014Y-117369145D01*
X238712979Y-117369145D01*
X238712979Y-116654002D01*
X238913014Y-116654002D01*
X239239445Y-116654002D01*
X239315193Y-116652284D01*
X239391630Y-116644917D01*
X239429954Y-116636416D01*
X239496999Y-116606283D01*
X239544993Y-116561311D01*
X239576098Y-116493498D01*
X239583461Y-116429054D01*
X239573328Y-116354036D01*
X239547557Y-116296430D01*
X239493943Y-116241219D01*
X239444609Y-116218028D01*
X239367642Y-116203502D01*
X239290255Y-116198107D01*
X239214898Y-116196779D01*
X238913014Y-116196779D01*
X238913014Y-116654002D01*
X238712979Y-116654002D01*
X238712979Y-116020924D01*
X239279745Y-116020924D01*
X239361925Y-116023786D01*
G37*
G36*
X240634400Y-116422166D02*
G01*
X240707544Y-116431282D01*
X240781810Y-116450816D01*
X240787334Y-116452868D01*
X240855044Y-116485015D01*
X240913318Y-116532912D01*
X240915928Y-116536032D01*
X240954619Y-116600960D01*
X240973813Y-116663161D01*
X240981219Y-116740969D01*
X240982937Y-116819760D01*
X240982972Y-116834986D01*
X240982972Y-117083747D01*
X240983259Y-117160365D01*
X240984358Y-117239980D01*
X240986682Y-117315870D01*
X240991948Y-117392535D01*
X240994696Y-117412742D01*
X241014056Y-117484372D01*
X241041957Y-117545000D01*
X240848150Y-117545000D01*
X240822197Y-117471970D01*
X240811147Y-117406514D01*
X240753819Y-117452270D01*
X240691479Y-117493457D01*
X240624559Y-117527028D01*
X240612578Y-117531810D01*
X240539179Y-117554136D01*
X240461865Y-117566157D01*
X240408147Y-117568447D01*
X240333266Y-117564187D01*
X240257435Y-117548885D01*
X240184550Y-117518369D01*
X240130809Y-117479420D01*
X240079804Y-117418949D01*
X240047690Y-117348817D01*
X240034467Y-117269026D01*
X240034089Y-117251908D01*
X240034734Y-117246046D01*
X240231926Y-117246046D01*
X240247745Y-117319100D01*
X240287979Y-117371709D01*
X240352224Y-117407736D01*
X240426265Y-117421117D01*
X240452477Y-117421901D01*
X240529585Y-117415255D01*
X240605445Y-117393055D01*
X240642986Y-117374640D01*
X240703539Y-117330199D01*
X240752386Y-117269491D01*
X240765718Y-117244581D01*
X240787282Y-117171798D01*
X240795027Y-117094329D01*
X240795760Y-117057002D01*
X240795760Y-116988126D01*
X240722723Y-117012362D01*
X240650126Y-117030050D01*
X240576273Y-117044288D01*
X240492777Y-117057369D01*
X240416424Y-117070575D01*
X240343793Y-117089946D01*
X240330844Y-117095104D01*
X240269968Y-117139585D01*
X240257571Y-117156287D01*
X240232827Y-117227821D01*
X240231926Y-117246046D01*
X240034734Y-117246046D01*
X240042139Y-117178798D01*
X240068471Y-117107735D01*
X240070725Y-117103531D01*
X240112949Y-117042897D01*
X240166346Y-116995819D01*
X240233646Y-116958195D01*
X240300069Y-116934270D01*
X240373786Y-116919010D01*
X240451366Y-116907759D01*
X240464933Y-116906060D01*
X240544991Y-116895533D01*
X240627876Y-116882340D01*
X240708733Y-116866059D01*
X240782017Y-116846211D01*
X240795760Y-116841580D01*
X240796493Y-116793220D01*
X240789126Y-116718190D01*
X240759196Y-116650629D01*
X240744103Y-116634584D01*
X240681060Y-116596408D01*
X240606162Y-116576892D01*
X240532711Y-116571936D01*
X240457656Y-116576229D01*
X240385253Y-116592716D01*
X240339637Y-116615900D01*
X240288331Y-116671928D01*
X240255327Y-116744448D01*
X240247313Y-116771238D01*
X240065963Y-116746325D01*
X240086813Y-116673899D01*
X240118051Y-116606640D01*
X240147295Y-116564242D01*
X240201718Y-116513006D01*
X240266659Y-116475156D01*
X240311060Y-116457264D01*
X240388886Y-116435780D01*
X240466624Y-116423987D01*
X240542278Y-116419676D01*
X240559822Y-116419528D01*
X240634400Y-116422166D01*
G37*
G36*
X241669905Y-117375006D02*
G01*
X241696650Y-117545000D01*
X241622461Y-117562585D01*
X241556699Y-117568447D01*
X241482039Y-117563126D01*
X241410735Y-117541968D01*
X241399895Y-117536207D01*
X241343166Y-117487578D01*
X241321493Y-117450844D01*
X241305452Y-117375705D01*
X241300214Y-117297080D01*
X241299145Y-117228461D01*
X241299145Y-116589521D01*
X241162857Y-116589521D01*
X241162857Y-116442976D01*
X241299145Y-116442976D01*
X241299145Y-116176995D01*
X241483426Y-116067819D01*
X241483426Y-116442976D01*
X241669905Y-116442976D01*
X241669905Y-116589521D01*
X241483426Y-116589521D01*
X241483426Y-117243482D01*
X241486784Y-117319528D01*
X241492951Y-117347896D01*
X241524825Y-117384898D01*
X241588572Y-117398454D01*
X241660599Y-117379197D01*
X241669905Y-117375006D01*
G37*
G36*
X242253157Y-117375006D02*
G01*
X242279902Y-117545000D01*
X242205713Y-117562585D01*
X242139951Y-117568447D01*
X242065291Y-117563126D01*
X241993987Y-117541968D01*
X241983147Y-117536207D01*
X241926418Y-117487578D01*
X241904745Y-117450844D01*
X241888704Y-117375705D01*
X241883466Y-117297080D01*
X241882397Y-117228461D01*
X241882397Y-116589521D01*
X241746109Y-116589521D01*
X241746109Y-116442976D01*
X241882397Y-116442976D01*
X241882397Y-116176995D01*
X242066678Y-116067819D01*
X242066678Y-116442976D01*
X242253157Y-116442976D01*
X242253157Y-116589521D01*
X242066678Y-116589521D01*
X242066678Y-117243482D01*
X242070036Y-117319528D01*
X242076203Y-117347896D01*
X242108077Y-117384898D01*
X242171824Y-117398454D01*
X242243851Y-117379197D01*
X242253157Y-117375006D01*
G37*
G36*
X242960200Y-116424899D02*
G01*
X243033994Y-116441012D01*
X243112924Y-116473387D01*
X243184140Y-116520383D01*
X243239043Y-116572302D01*
X243286356Y-116633959D01*
X243323880Y-116704348D01*
X243351615Y-116783470D01*
X243367249Y-116856075D01*
X243376087Y-116934745D01*
X243378262Y-117002048D01*
X243377529Y-117052606D01*
X242561270Y-117052606D01*
X242569649Y-117125758D01*
X242588758Y-117199701D01*
X242622407Y-117270570D01*
X242663119Y-117322616D01*
X242724993Y-117371882D01*
X242795668Y-117402902D01*
X242875145Y-117415674D01*
X242892096Y-117416039D01*
X242969951Y-117407272D01*
X243042841Y-117378220D01*
X243066120Y-117362916D01*
X243119803Y-117309294D01*
X243160555Y-117241227D01*
X243180425Y-117193290D01*
X243372400Y-117216737D01*
X243348826Y-117286250D01*
X243312825Y-117356936D01*
X243267161Y-117418279D01*
X243211834Y-117470280D01*
X243204239Y-117476123D01*
X243138637Y-117516515D01*
X243064562Y-117545366D01*
X242992798Y-117561144D01*
X242914546Y-117568086D01*
X242890997Y-117568447D01*
X242804500Y-117563230D01*
X242724983Y-117547581D01*
X242652447Y-117521499D01*
X242586892Y-117484984D01*
X242528318Y-117438037D01*
X242510345Y-117420069D01*
X242462534Y-117360091D01*
X242424616Y-117291716D01*
X242396589Y-117214943D01*
X242378454Y-117129771D01*
X242370898Y-117052381D01*
X242369661Y-117003147D01*
X242373131Y-116919511D01*
X242375723Y-116900198D01*
X242571528Y-116900198D01*
X243182623Y-116900198D01*
X243172052Y-116824741D01*
X243149450Y-116748100D01*
X243112648Y-116684043D01*
X243058632Y-116629851D01*
X242988894Y-116590438D01*
X242917381Y-116573688D01*
X242882937Y-116571936D01*
X242806996Y-116580666D01*
X242732633Y-116610434D01*
X242673371Y-116655829D01*
X242667882Y-116661329D01*
X242621163Y-116723067D01*
X242589543Y-116796540D01*
X242573993Y-116872700D01*
X242571528Y-116900198D01*
X242375723Y-116900198D01*
X242383543Y-116841939D01*
X242400895Y-116770432D01*
X242430880Y-116692628D01*
X242470859Y-116623557D01*
X242511810Y-116572669D01*
X242568092Y-116520625D01*
X242630324Y-116479349D01*
X242698506Y-116448840D01*
X242772639Y-116429100D01*
X242852722Y-116420127D01*
X242880739Y-116419528D01*
X242960200Y-116424899D01*
G37*
G36*
X243597348Y-117545000D02*
G01*
X243597348Y-116442976D01*
X243764410Y-116442976D01*
X243764410Y-116611870D01*
X243803286Y-116546203D01*
X243850937Y-116484264D01*
X243882013Y-116456898D01*
X243950276Y-116425696D01*
X244001448Y-116419528D01*
X244078135Y-116429445D01*
X244149782Y-116456201D01*
X244191957Y-116479612D01*
X244128210Y-116652903D01*
X244060066Y-116622952D01*
X243991922Y-116612969D01*
X243917465Y-116628905D01*
X243882745Y-116649972D01*
X243833172Y-116706930D01*
X243813869Y-116751821D01*
X243794892Y-116828912D01*
X243785191Y-116904195D01*
X243782728Y-116969075D01*
X243782728Y-117545000D01*
X243597348Y-117545000D01*
G37*
G36*
X244290143Y-117968517D02*
G01*
X244269626Y-117798157D01*
X244342821Y-117812696D01*
X244375872Y-117814644D01*
X244448900Y-117804600D01*
X244474424Y-117793394D01*
X244529441Y-117743306D01*
X244535607Y-117734043D01*
X244565717Y-117664978D01*
X244592027Y-117591528D01*
X244608513Y-117545000D01*
X244193422Y-116442976D01*
X244393091Y-116442976D01*
X244620969Y-117080816D01*
X244645181Y-117150014D01*
X244667943Y-117221182D01*
X244689256Y-117294321D01*
X244700471Y-117335806D01*
X244719385Y-117263964D01*
X244740270Y-117193108D01*
X244763125Y-117123237D01*
X244776674Y-117084846D01*
X245010415Y-116442976D01*
X245195795Y-116442976D01*
X244779605Y-117562585D01*
X244751711Y-117636509D01*
X244723352Y-117707726D01*
X244693184Y-117776849D01*
X244675558Y-117812079D01*
X244636403Y-117874367D01*
X244585512Y-117929454D01*
X244561985Y-117947267D01*
X244492009Y-117979691D01*
X244415094Y-117990456D01*
X244409577Y-117990498D01*
X244334008Y-117981032D01*
X244290143Y-117968517D01*
G37*
G36*
X245858914Y-117099501D02*
G01*
X245858914Y-116911922D01*
X246428611Y-116911922D01*
X246428611Y-117099501D01*
X245858914Y-117099501D01*
G37*
G36*
X251017044Y-116699501D02*
G01*
X251017044Y-116511922D01*
X251586741Y-116511922D01*
X251586741Y-116699501D01*
X251017044Y-116699501D01*
G37*
G36*
X252429012Y-117145000D02*
G01*
X252429012Y-115620924D01*
X252629047Y-115620924D01*
X252629047Y-117145000D01*
X252429012Y-117145000D01*
G37*
G36*
X252954745Y-117145000D02*
G01*
X252954745Y-116042976D01*
X253121441Y-116042976D01*
X253121441Y-116197581D01*
X253170415Y-116137071D01*
X253226936Y-116089080D01*
X253302418Y-116048914D01*
X253375293Y-116028049D01*
X253455715Y-116019702D01*
X253469853Y-116019528D01*
X253547564Y-116025454D01*
X253619954Y-116043231D01*
X253651570Y-116055432D01*
X253716274Y-116090875D01*
X253770473Y-116142029D01*
X253775767Y-116149221D01*
X253812723Y-116216929D01*
X253833653Y-116286974D01*
X253841657Y-116363884D01*
X253843821Y-116444693D01*
X253843911Y-116468325D01*
X253843911Y-117145000D01*
X253658531Y-117145000D01*
X253658531Y-116473087D01*
X253655491Y-116395498D01*
X253643142Y-116321406D01*
X253636915Y-116302362D01*
X253596729Y-116240395D01*
X253559979Y-116211870D01*
X253492011Y-116184319D01*
X253430652Y-116177798D01*
X253353106Y-116186759D01*
X253283179Y-116213643D01*
X253226221Y-116253635D01*
X253180819Y-116314379D01*
X253154334Y-116391868D01*
X253143152Y-116467084D01*
X253140125Y-116541964D01*
X253140125Y-117145000D01*
X252954745Y-117145000D01*
G37*
G36*
X254685171Y-116025266D02*
G01*
X254763753Y-116045102D01*
X254835824Y-116079105D01*
X254856175Y-116092069D01*
X254918114Y-116143202D01*
X254969748Y-116205928D01*
X255007409Y-116272292D01*
X255018108Y-116296500D01*
X255044496Y-116372688D01*
X255062248Y-116452876D01*
X255070778Y-116527511D01*
X255072697Y-116585561D01*
X255068919Y-116667902D01*
X255057584Y-116746029D01*
X255038693Y-116819943D01*
X255012247Y-116889644D01*
X254974102Y-116960525D01*
X254927264Y-117021496D01*
X254871732Y-117072556D01*
X254837124Y-117096639D01*
X254771665Y-117131351D01*
X254696689Y-117156596D01*
X254619352Y-117167816D01*
X254595690Y-117168447D01*
X254518163Y-117160944D01*
X254447788Y-117138434D01*
X254428995Y-117129246D01*
X254365754Y-117087987D01*
X254311074Y-117034040D01*
X254308094Y-117030327D01*
X254308094Y-117567051D01*
X254122714Y-117567051D01*
X254122714Y-116600949D01*
X254290509Y-116600949D01*
X254293510Y-116676606D01*
X254304597Y-116755040D01*
X254327272Y-116831713D01*
X254365535Y-116901439D01*
X254375872Y-116914556D01*
X254432959Y-116968073D01*
X254503854Y-117004048D01*
X254583234Y-117016039D01*
X254656929Y-117005771D01*
X254723683Y-116974966D01*
X254783496Y-116923625D01*
X254794626Y-116910893D01*
X254837307Y-116842619D01*
X254863519Y-116766604D01*
X254877402Y-116688258D01*
X254882575Y-116612313D01*
X254882920Y-116585195D01*
X254879893Y-116510182D01*
X254868711Y-116432043D01*
X254845842Y-116355107D01*
X254807250Y-116284318D01*
X254796824Y-116270854D01*
X254739916Y-116215599D01*
X254669631Y-116178455D01*
X254591294Y-116166074D01*
X254513142Y-116179235D01*
X254447654Y-116214039D01*
X254393243Y-116263962D01*
X254381734Y-116277449D01*
X254341823Y-116339433D01*
X254313315Y-116414011D01*
X254297725Y-116489598D01*
X254290865Y-116574826D01*
X254290509Y-116600949D01*
X254122714Y-116600949D01*
X254122714Y-116042976D01*
X254291608Y-116042976D01*
X254291608Y-116187690D01*
X254338560Y-116130640D01*
X254394308Y-116082092D01*
X254426430Y-116061660D01*
X254498498Y-116032859D01*
X254576218Y-116020557D01*
X254608879Y-116019528D01*
X254685171Y-116025266D01*
G37*
G36*
X256007658Y-117145000D02*
G01*
X256007658Y-116984166D01*
X255956490Y-117046792D01*
X255898882Y-117096462D01*
X255834834Y-117133174D01*
X255764347Y-117156929D01*
X255687419Y-117167727D01*
X255660345Y-117168447D01*
X255583876Y-117162279D01*
X255511640Y-117143777D01*
X255479727Y-117131078D01*
X255414522Y-117094733D01*
X255360094Y-117044266D01*
X255354797Y-117037288D01*
X255318413Y-116970208D01*
X255297644Y-116899169D01*
X255288783Y-116822582D01*
X255286387Y-116746607D01*
X255286287Y-116724780D01*
X255286287Y-116042976D01*
X255472034Y-116042976D01*
X255472034Y-116654804D01*
X255472932Y-116729672D01*
X255476925Y-116805965D01*
X255483391Y-116852274D01*
X255512853Y-116921624D01*
X255557397Y-116968046D01*
X255625280Y-117000920D01*
X255697714Y-117010177D01*
X255773507Y-117000759D01*
X255844954Y-116972503D01*
X255854152Y-116967313D01*
X255913426Y-116919941D01*
X255955890Y-116854328D01*
X255957833Y-116849710D01*
X255977521Y-116778218D01*
X255986340Y-116700439D01*
X255988241Y-116633921D01*
X255988241Y-116042976D01*
X256173621Y-116042976D01*
X256173621Y-117145000D01*
X256007658Y-117145000D01*
G37*
G36*
X256863485Y-116975006D02*
G01*
X256890230Y-117145000D01*
X256816041Y-117162585D01*
X256750279Y-117168447D01*
X256675619Y-117163126D01*
X256604315Y-117141968D01*
X256593475Y-117136207D01*
X256536746Y-117087578D01*
X256515073Y-117050844D01*
X256499032Y-116975705D01*
X256493794Y-116897080D01*
X256492725Y-116828461D01*
X256492725Y-116189521D01*
X256356437Y-116189521D01*
X256356437Y-116042976D01*
X256492725Y-116042976D01*
X256492725Y-115776995D01*
X256677006Y-115667819D01*
X256677006Y-116042976D01*
X256863485Y-116042976D01*
X256863485Y-116189521D01*
X256677006Y-116189521D01*
X256677006Y-116843482D01*
X256680364Y-116919528D01*
X256686531Y-116947896D01*
X256718405Y-116984898D01*
X256782152Y-116998454D01*
X256854179Y-116979197D01*
X256863485Y-116975006D01*
G37*
G36*
X257573499Y-116746395D02*
G01*
X257768405Y-116729909D01*
X257785085Y-116804481D01*
X257814222Y-116874219D01*
X257859166Y-116934980D01*
X257868789Y-116944232D01*
X257932450Y-116987990D01*
X258005282Y-117011551D01*
X258058932Y-117016039D01*
X258138502Y-117005950D01*
X258210057Y-116975682D01*
X258273598Y-116925235D01*
X258285345Y-116912725D01*
X258330328Y-116849307D01*
X258360590Y-116775282D01*
X258375130Y-116700578D01*
X258378401Y-116639050D01*
X258372814Y-116562183D01*
X258353172Y-116485943D01*
X258319388Y-116420541D01*
X258289009Y-116382962D01*
X258227965Y-116333503D01*
X258156116Y-116302362D01*
X258082213Y-116289997D01*
X258055635Y-116289173D01*
X257980712Y-116297307D01*
X257907752Y-116324076D01*
X257894068Y-116331671D01*
X257833167Y-116376804D01*
X257785790Y-116433208D01*
X257780495Y-116441580D01*
X257606472Y-116418866D01*
X257752651Y-115644371D01*
X258504064Y-115644371D01*
X258504064Y-115820226D01*
X257901029Y-115820226D01*
X257819696Y-116226158D01*
X257888641Y-116187049D01*
X257959189Y-116159113D01*
X258031340Y-116142352D01*
X258105094Y-116136765D01*
X258188685Y-116143357D01*
X258266350Y-116163132D01*
X258338090Y-116196090D01*
X258403904Y-116242232D01*
X258438852Y-116274518D01*
X258491956Y-116338411D01*
X258532017Y-116409878D01*
X258559035Y-116488918D01*
X258571812Y-116562695D01*
X258575139Y-116628426D01*
X258570940Y-116703667D01*
X258555428Y-116786466D01*
X258528485Y-116863901D01*
X258490112Y-116935971D01*
X258455704Y-116984166D01*
X258397440Y-117046792D01*
X258331730Y-117096462D01*
X258258576Y-117133174D01*
X258177977Y-117156929D01*
X258105125Y-117166827D01*
X258058932Y-117168447D01*
X257984249Y-117164390D01*
X257903859Y-117149401D01*
X257830727Y-117123367D01*
X257764853Y-117086289D01*
X257722243Y-117053042D01*
X257670672Y-116998798D01*
X257629759Y-116937367D01*
X257599505Y-116868748D01*
X257579911Y-116792941D01*
X257573499Y-116746395D01*
G37*
G36*
X259248517Y-117145000D02*
G01*
X258663066Y-115620924D01*
X258879588Y-115620924D01*
X259272330Y-116729176D01*
X259297697Y-116802856D01*
X259320630Y-116873870D01*
X259343256Y-116949647D01*
X259351465Y-116979036D01*
X259374520Y-116900955D01*
X259397105Y-116830682D01*
X259421429Y-116760409D01*
X259432798Y-116729176D01*
X259840928Y-115620924D01*
X260044993Y-115620924D01*
X259453681Y-117145000D01*
X259248517Y-117145000D01*
G37*
G36*
X261165334Y-116910526D02*
G01*
X261165334Y-116500198D01*
X260754274Y-116500198D01*
X260754274Y-116324344D01*
X261165334Y-116324344D01*
X261165334Y-115925739D01*
X261340457Y-115925739D01*
X261340457Y-116324344D01*
X261751517Y-116324344D01*
X261751517Y-116500198D01*
X261340457Y-116500198D01*
X261340457Y-116910526D01*
X261165334Y-116910526D01*
G37*
G36*
X245310772Y-109364865D02*
G01*
X245364619Y-109368085D01*
X245414117Y-109374382D01*
X245434787Y-109378604D01*
X245486345Y-109394317D01*
X245532942Y-109416423D01*
X245574578Y-109444921D01*
X245582309Y-109451388D01*
X245619709Y-109487704D01*
X245652041Y-109528752D01*
X245679304Y-109574532D01*
X245701500Y-109625045D01*
X245716917Y-109672656D01*
X245728548Y-109723166D01*
X245736392Y-109776574D01*
X245740449Y-109832880D01*
X245741067Y-109866357D01*
X245739782Y-109915744D01*
X245735164Y-109969096D01*
X245727188Y-110019151D01*
X245714200Y-110071521D01*
X245698008Y-110119370D01*
X245677162Y-110166826D01*
X245650759Y-110212084D01*
X245645568Y-110219532D01*
X245613111Y-110259992D01*
X245575390Y-110295917D01*
X245553977Y-110311856D01*
X245510068Y-110336383D01*
X245463453Y-110354300D01*
X245433565Y-110362658D01*
X245382723Y-110372531D01*
X245332196Y-110377950D01*
X245283213Y-110379932D01*
X245271877Y-110380000D01*
X244908443Y-110380000D01*
X244908443Y-110262763D01*
X245041800Y-110262763D01*
X245256734Y-110262763D01*
X245309387Y-110261275D01*
X245359915Y-110256133D01*
X245409466Y-110245113D01*
X245413049Y-110243956D01*
X245458236Y-110224555D01*
X245499116Y-110195170D01*
X245503419Y-110190956D01*
X245536002Y-110150198D01*
X245560681Y-110104629D01*
X245577180Y-110061507D01*
X245590050Y-110013033D01*
X245598707Y-109959111D01*
X245602867Y-109906606D01*
X245603803Y-109864403D01*
X245601974Y-109806763D01*
X245596487Y-109754379D01*
X245585462Y-109699906D01*
X245569459Y-109652585D01*
X245551779Y-109617718D01*
X245520876Y-109573722D01*
X245486417Y-109538729D01*
X245443961Y-109510407D01*
X245425750Y-109502191D01*
X245376428Y-109489391D01*
X245327355Y-109483668D01*
X245275041Y-109481370D01*
X245253314Y-109481186D01*
X245041800Y-109481186D01*
X245041800Y-110262763D01*
X244908443Y-110262763D01*
X244908443Y-109363949D01*
X245255512Y-109363949D01*
X245310772Y-109364865D01*
G37*
G36*
X246334333Y-110380000D02*
G01*
X246210746Y-110380000D01*
X246210746Y-109588164D01*
X246173308Y-109620587D01*
X246132111Y-109650309D01*
X246093510Y-109674626D01*
X246049627Y-109699394D01*
X246004717Y-109721790D01*
X245963328Y-109739106D01*
X245963328Y-109614054D01*
X246007492Y-109591926D01*
X246054901Y-109564262D01*
X246099044Y-109534064D01*
X246139921Y-109501331D01*
X246144801Y-109497062D01*
X246180796Y-109463005D01*
X246214503Y-109425312D01*
X246243526Y-109384201D01*
X246254710Y-109363949D01*
X246334333Y-109363949D01*
X246334333Y-110380000D01*
G37*
G36*
X246647941Y-110115240D02*
G01*
X246771528Y-110098632D01*
X246784015Y-110146915D01*
X246802515Y-110192586D01*
X246831528Y-110235969D01*
X246843824Y-110248353D01*
X246885417Y-110276185D01*
X246933262Y-110291171D01*
X246968632Y-110294026D01*
X247020610Y-110288111D01*
X247067245Y-110270365D01*
X247108537Y-110240789D01*
X247116154Y-110233454D01*
X247147839Y-110192782D01*
X247167789Y-110146480D01*
X247176003Y-110094550D01*
X247176238Y-110083489D01*
X247170800Y-110033147D01*
X247152256Y-109984548D01*
X247120551Y-109943049D01*
X247078716Y-109911483D01*
X247029781Y-109893020D01*
X246979134Y-109887606D01*
X246928492Y-109892949D01*
X246891695Y-109901284D01*
X246905617Y-109784780D01*
X246925401Y-109786001D01*
X246977901Y-109781210D01*
X247026592Y-109766837D01*
X247067550Y-109745457D01*
X247103566Y-109712387D01*
X247125805Y-109664462D01*
X247130809Y-109620404D01*
X247123190Y-109569819D01*
X247097946Y-109523817D01*
X247084647Y-109509518D01*
X247042905Y-109481053D01*
X246992295Y-109467100D01*
X246965945Y-109465554D01*
X246915272Y-109471874D01*
X246867974Y-109492984D01*
X246845778Y-109510495D01*
X246814534Y-109550520D01*
X246794402Y-109598314D01*
X246783984Y-109645317D01*
X246660397Y-109623335D01*
X246672998Y-109571931D01*
X246691138Y-109525856D01*
X246718654Y-109479724D01*
X246753405Y-109440554D01*
X246763224Y-109431849D01*
X246805859Y-109402143D01*
X246853410Y-109380924D01*
X246905877Y-109368193D01*
X246955817Y-109364016D01*
X246963258Y-109363949D01*
X247013438Y-109367384D01*
X247065715Y-109379096D01*
X247114933Y-109399120D01*
X247158754Y-109426360D01*
X247194841Y-109459717D01*
X247220935Y-109495352D01*
X247243409Y-109542029D01*
X247255510Y-109590836D01*
X247257815Y-109624556D01*
X247252051Y-109675449D01*
X247234758Y-109722552D01*
X247222889Y-109743014D01*
X247188908Y-109782688D01*
X247147594Y-109812942D01*
X247119085Y-109827766D01*
X247166200Y-109842980D01*
X247211118Y-109868177D01*
X247248213Y-109902104D01*
X247257815Y-109913984D01*
X247283962Y-109958115D01*
X247300424Y-110008685D01*
X247306961Y-110059705D01*
X247307397Y-110077871D01*
X247302792Y-110134072D01*
X247288977Y-110186417D01*
X247265953Y-110234905D01*
X247233719Y-110279536D01*
X247211165Y-110303307D01*
X247173301Y-110334683D01*
X247124633Y-110363083D01*
X247071126Y-110382648D01*
X247021412Y-110392385D01*
X246968143Y-110395631D01*
X246912271Y-110391903D01*
X246860699Y-110380718D01*
X246813429Y-110362077D01*
X246770459Y-110335979D01*
X246747836Y-110317718D01*
X246713170Y-110281315D01*
X246685679Y-110240494D01*
X246665365Y-110195255D01*
X246652227Y-110145599D01*
X246647941Y-110115240D01*
G37*
G36*
X248267088Y-109364865D02*
G01*
X248320935Y-109368085D01*
X248370432Y-109374382D01*
X248391102Y-109378604D01*
X248442660Y-109394317D01*
X248489257Y-109416423D01*
X248530893Y-109444921D01*
X248538625Y-109451388D01*
X248576024Y-109487704D01*
X248608356Y-109528752D01*
X248635620Y-109574532D01*
X248657815Y-109625045D01*
X248673233Y-109672656D01*
X248684863Y-109723166D01*
X248692707Y-109776574D01*
X248696764Y-109832880D01*
X248697383Y-109866357D01*
X248696097Y-109915744D01*
X248691479Y-109969096D01*
X248683503Y-110019151D01*
X248670516Y-110071521D01*
X248654324Y-110119370D01*
X248633477Y-110166826D01*
X248607075Y-110212084D01*
X248601884Y-110219532D01*
X248569426Y-110259992D01*
X248531706Y-110295917D01*
X248510293Y-110311856D01*
X248466383Y-110336383D01*
X248419769Y-110354300D01*
X248389881Y-110362658D01*
X248339039Y-110372531D01*
X248288511Y-110377950D01*
X248239528Y-110379932D01*
X248228192Y-110380000D01*
X247864759Y-110380000D01*
X247864759Y-110262763D01*
X247998115Y-110262763D01*
X248213049Y-110262763D01*
X248265702Y-110261275D01*
X248316230Y-110256133D01*
X248365781Y-110245113D01*
X248369364Y-110243956D01*
X248414551Y-110224555D01*
X248455431Y-110195170D01*
X248459734Y-110190956D01*
X248492318Y-110150198D01*
X248516996Y-110104629D01*
X248533496Y-110061507D01*
X248546365Y-110013033D01*
X248555022Y-109959111D01*
X248559182Y-109906606D01*
X248560118Y-109864403D01*
X248558289Y-109806763D01*
X248552802Y-109754379D01*
X248541778Y-109699906D01*
X248525774Y-109652585D01*
X248508094Y-109617718D01*
X248477191Y-109573722D01*
X248442733Y-109538729D01*
X248400276Y-109510407D01*
X248382065Y-109502191D01*
X248332743Y-109489391D01*
X248283671Y-109483668D01*
X248231357Y-109481370D01*
X248209630Y-109481186D01*
X247998115Y-109481186D01*
X247998115Y-110262763D01*
X247864759Y-110262763D01*
X247864759Y-109363949D01*
X248211828Y-109363949D01*
X248267088Y-109364865D01*
G37*
G36*
X249290648Y-110380000D02*
G01*
X249167062Y-110380000D01*
X249167062Y-109588164D01*
X249129624Y-109620587D01*
X249088426Y-109650309D01*
X249049825Y-109674626D01*
X249005942Y-109699394D01*
X248961033Y-109721790D01*
X248919644Y-109739106D01*
X248919644Y-109614054D01*
X248963807Y-109591926D01*
X249011217Y-109564262D01*
X249055360Y-109534064D01*
X249096236Y-109501331D01*
X249101116Y-109497062D01*
X249137111Y-109463005D01*
X249170818Y-109425312D01*
X249199841Y-109384201D01*
X249211025Y-109363949D01*
X249290648Y-109363949D01*
X249290648Y-110380000D01*
G37*
G36*
X250253454Y-110262763D02*
G01*
X250253454Y-110380000D01*
X249587648Y-110380000D01*
X249591606Y-110330798D01*
X249602058Y-110294026D01*
X249623268Y-110247437D01*
X249648761Y-110205534D01*
X249680169Y-110164060D01*
X249683635Y-110159937D01*
X249719038Y-110121082D01*
X249757125Y-110083820D01*
X249795560Y-110049112D01*
X249838763Y-110012440D01*
X249845324Y-110007041D01*
X249884693Y-109973972D01*
X249929224Y-109935117D01*
X249968556Y-109899016D01*
X250008890Y-109859331D01*
X250046484Y-109818046D01*
X250067096Y-109791863D01*
X250095078Y-109747888D01*
X250115429Y-109700614D01*
X250124756Y-109650541D01*
X250124982Y-109641653D01*
X250117563Y-109589263D01*
X250095307Y-109543468D01*
X250072226Y-109516601D01*
X250032372Y-109487538D01*
X249985014Y-109470539D01*
X249935450Y-109465554D01*
X249883061Y-109471016D01*
X249833479Y-109489642D01*
X249792323Y-109521486D01*
X249761783Y-109565047D01*
X249744839Y-109613514D01*
X249738399Y-109664354D01*
X249738101Y-109676580D01*
X249611095Y-109663147D01*
X249618491Y-109610822D01*
X249630970Y-109563393D01*
X249651954Y-109514244D01*
X249679857Y-109471757D01*
X249709281Y-109440642D01*
X249749367Y-109410758D01*
X249795040Y-109388215D01*
X249846299Y-109373012D01*
X249894682Y-109365822D01*
X249938136Y-109363949D01*
X249990329Y-109366791D01*
X250045859Y-109377292D01*
X250095616Y-109395529D01*
X250139599Y-109421504D01*
X250167480Y-109444794D01*
X250200409Y-109482010D01*
X250228138Y-109529065D01*
X250245304Y-109580943D01*
X250251658Y-109630294D01*
X250251988Y-109645073D01*
X250247917Y-109694164D01*
X250235703Y-109742610D01*
X250227320Y-109764752D01*
X250204216Y-109809608D01*
X250174951Y-109852296D01*
X250145254Y-109888339D01*
X250106960Y-109928709D01*
X250068867Y-109965397D01*
X250030430Y-110000528D01*
X249986653Y-110039059D01*
X249954501Y-110066636D01*
X249915617Y-110099944D01*
X249877308Y-110133398D01*
X249839215Y-110167858D01*
X249811618Y-110194863D01*
X249779650Y-110232937D01*
X249759595Y-110262763D01*
X250253454Y-110262763D01*
G37*
G36*
X251223403Y-109364865D02*
G01*
X251277250Y-109368085D01*
X251326747Y-109374382D01*
X251347418Y-109378604D01*
X251398976Y-109394317D01*
X251445573Y-109416423D01*
X251487208Y-109444921D01*
X251494940Y-109451388D01*
X251532340Y-109487704D01*
X251564672Y-109528752D01*
X251591935Y-109574532D01*
X251614131Y-109625045D01*
X251629548Y-109672656D01*
X251641179Y-109723166D01*
X251649023Y-109776574D01*
X251653080Y-109832880D01*
X251653698Y-109866357D01*
X251652412Y-109915744D01*
X251647795Y-109969096D01*
X251639819Y-110019151D01*
X251626831Y-110071521D01*
X251610639Y-110119370D01*
X251589793Y-110166826D01*
X251563390Y-110212084D01*
X251558199Y-110219532D01*
X251525741Y-110259992D01*
X251488021Y-110295917D01*
X251466608Y-110311856D01*
X251422698Y-110336383D01*
X251376084Y-110354300D01*
X251346196Y-110362658D01*
X251295354Y-110372531D01*
X251244826Y-110377950D01*
X251195844Y-110379932D01*
X251184508Y-110380000D01*
X250821074Y-110380000D01*
X250821074Y-110262763D01*
X250954431Y-110262763D01*
X251169364Y-110262763D01*
X251222018Y-110261275D01*
X251272546Y-110256133D01*
X251322096Y-110245113D01*
X251325680Y-110243956D01*
X251370867Y-110224555D01*
X251411747Y-110195170D01*
X251416050Y-110190956D01*
X251448633Y-110150198D01*
X251473312Y-110104629D01*
X251489811Y-110061507D01*
X251502680Y-110013033D01*
X251511338Y-109959111D01*
X251515498Y-109906606D01*
X251516434Y-109864403D01*
X251514605Y-109806763D01*
X251509118Y-109754379D01*
X251498093Y-109699906D01*
X251482090Y-109652585D01*
X251464410Y-109617718D01*
X251433506Y-109573722D01*
X251399048Y-109538729D01*
X251356592Y-109510407D01*
X251338381Y-109502191D01*
X251289059Y-109489391D01*
X251239986Y-109483668D01*
X251187672Y-109481370D01*
X251165945Y-109481186D01*
X250954431Y-109481186D01*
X250954431Y-110262763D01*
X250821074Y-110262763D01*
X250821074Y-109363949D01*
X251168143Y-109363949D01*
X251223403Y-109364865D01*
G37*
G36*
X252246964Y-110380000D02*
G01*
X252123377Y-110380000D01*
X252123377Y-109588164D01*
X252085939Y-109620587D01*
X252044742Y-109650309D01*
X252006140Y-109674626D01*
X251962258Y-109699394D01*
X251917348Y-109721790D01*
X251875959Y-109739106D01*
X251875959Y-109614054D01*
X251920122Y-109591926D01*
X251967532Y-109564262D01*
X252011675Y-109534064D01*
X252052552Y-109501331D01*
X252057431Y-109497062D01*
X252093427Y-109463005D01*
X252127134Y-109425312D01*
X252156157Y-109384201D01*
X252167341Y-109363949D01*
X252246964Y-109363949D01*
X252246964Y-110380000D01*
G37*
G36*
X252921074Y-110380000D02*
G01*
X252797487Y-110380000D01*
X252797487Y-109588164D01*
X252760049Y-109620587D01*
X252718852Y-109650309D01*
X252680251Y-109674626D01*
X252636368Y-109699394D01*
X252591458Y-109721790D01*
X252550069Y-109739106D01*
X252550069Y-109614054D01*
X252594233Y-109591926D01*
X252641642Y-109564262D01*
X252685786Y-109534064D01*
X252726662Y-109501331D01*
X252731542Y-109497062D01*
X252767537Y-109463005D01*
X252801244Y-109425312D01*
X252830267Y-109384201D01*
X252841451Y-109363949D01*
X252921074Y-109363949D01*
X252921074Y-110380000D01*
G37*
G36*
X254075183Y-109364865D02*
G01*
X254129030Y-109368085D01*
X254178527Y-109374382D01*
X254199197Y-109378604D01*
X254250755Y-109394317D01*
X254297352Y-109416423D01*
X254338988Y-109444921D01*
X254346720Y-109451388D01*
X254384119Y-109487704D01*
X254416451Y-109528752D01*
X254443715Y-109574532D01*
X254465910Y-109625045D01*
X254481328Y-109672656D01*
X254492958Y-109723166D01*
X254500802Y-109776574D01*
X254504859Y-109832880D01*
X254505478Y-109866357D01*
X254504192Y-109915744D01*
X254499574Y-109969096D01*
X254491598Y-110019151D01*
X254478611Y-110071521D01*
X254462419Y-110119370D01*
X254441572Y-110166826D01*
X254415170Y-110212084D01*
X254409979Y-110219532D01*
X254377521Y-110259992D01*
X254339800Y-110295917D01*
X254318387Y-110311856D01*
X254274478Y-110336383D01*
X254227864Y-110354300D01*
X254197976Y-110362658D01*
X254147134Y-110372531D01*
X254096606Y-110377950D01*
X254047623Y-110379932D01*
X254036287Y-110380000D01*
X253672854Y-110380000D01*
X253672854Y-110262763D01*
X253806210Y-110262763D01*
X254021144Y-110262763D01*
X254073797Y-110261275D01*
X254124325Y-110256133D01*
X254173876Y-110245113D01*
X254177459Y-110243956D01*
X254222646Y-110224555D01*
X254263526Y-110195170D01*
X254267829Y-110190956D01*
X254300413Y-110150198D01*
X254325091Y-110104629D01*
X254341591Y-110061507D01*
X254354460Y-110013033D01*
X254363117Y-109959111D01*
X254367277Y-109906606D01*
X254368213Y-109864403D01*
X254366384Y-109806763D01*
X254360897Y-109754379D01*
X254349873Y-109699906D01*
X254333869Y-109652585D01*
X254316189Y-109617718D01*
X254285286Y-109573722D01*
X254250828Y-109538729D01*
X254208371Y-109510407D01*
X254190160Y-109502191D01*
X254140838Y-109489391D01*
X254091765Y-109483668D01*
X254039452Y-109481370D01*
X254017725Y-109481186D01*
X253806210Y-109481186D01*
X253806210Y-110262763D01*
X253672854Y-110262763D01*
X253672854Y-109363949D01*
X254019923Y-109363949D01*
X254075183Y-109364865D01*
G37*
G36*
X255098743Y-110380000D02*
G01*
X254975157Y-110380000D01*
X254975157Y-109588164D01*
X254937719Y-109620587D01*
X254896521Y-109650309D01*
X254857920Y-109674626D01*
X254814037Y-109699394D01*
X254769127Y-109721790D01*
X254727739Y-109739106D01*
X254727739Y-109614054D01*
X254771902Y-109591926D01*
X254819312Y-109564262D01*
X254863455Y-109534064D01*
X254904331Y-109501331D01*
X254909211Y-109497062D01*
X254945206Y-109463005D01*
X254978913Y-109425312D01*
X255007936Y-109384201D01*
X255019120Y-109363949D01*
X255098743Y-109363949D01*
X255098743Y-110380000D01*
G37*
G36*
X255793263Y-109367817D02*
G01*
X255841911Y-109379419D01*
X255882030Y-109396678D01*
X255924986Y-109425311D01*
X255961898Y-109462120D01*
X255983147Y-109491200D01*
X256008497Y-109536718D01*
X256028036Y-109583659D01*
X256042767Y-109630433D01*
X256045673Y-109641409D01*
X256055611Y-109689479D01*
X256062709Y-109745273D01*
X256066591Y-109800430D01*
X256068188Y-109852413D01*
X256068387Y-109880034D01*
X256067499Y-109933930D01*
X256064834Y-109984486D01*
X256059289Y-110040746D01*
X256051187Y-110092197D01*
X256038499Y-110146147D01*
X256031995Y-110167264D01*
X256011540Y-110218753D01*
X255986566Y-110264045D01*
X255957074Y-110303139D01*
X255923063Y-110336036D01*
X255879245Y-110364844D01*
X255829400Y-110384224D01*
X255780032Y-110393536D01*
X255739881Y-110395631D01*
X255687491Y-110391947D01*
X255639497Y-110380896D01*
X255589061Y-110358692D01*
X255544609Y-110326460D01*
X255511270Y-110290851D01*
X255482561Y-110247591D01*
X255458719Y-110196579D01*
X255443149Y-110150188D01*
X255430692Y-110098836D01*
X255421350Y-110042523D01*
X255415122Y-109981248D01*
X255412494Y-109932037D01*
X255411618Y-109880034D01*
X255411622Y-109879790D01*
X255538625Y-109879790D01*
X255539533Y-109939469D01*
X255542258Y-109993943D01*
X255546799Y-110043212D01*
X255555031Y-110097477D01*
X255568655Y-110151859D01*
X255589715Y-110200502D01*
X255596755Y-110211472D01*
X255631578Y-110251378D01*
X255675255Y-110280401D01*
X255724180Y-110293300D01*
X255739881Y-110294026D01*
X255790509Y-110285940D01*
X255835842Y-110261683D01*
X255872114Y-110226025D01*
X255883251Y-110211228D01*
X255905902Y-110167068D01*
X255920888Y-110116584D01*
X255930255Y-110065606D01*
X255936783Y-110006531D01*
X255939962Y-109953441D01*
X255941324Y-109895168D01*
X255941381Y-109879790D01*
X255940473Y-109819947D01*
X255937748Y-109765347D01*
X255933207Y-109715991D01*
X255924975Y-109661670D01*
X255911351Y-109607299D01*
X255890291Y-109558778D01*
X255883251Y-109547864D01*
X255848312Y-109508076D01*
X255804234Y-109479139D01*
X255754622Y-109466278D01*
X255738660Y-109465554D01*
X255688747Y-109472638D01*
X255641612Y-109496795D01*
X255605825Y-109533631D01*
X255602616Y-109538094D01*
X255577682Y-109586085D01*
X255561184Y-109639144D01*
X255550873Y-109691770D01*
X255543687Y-109752040D01*
X255540187Y-109805760D01*
X255538687Y-109864373D01*
X255538625Y-109879790D01*
X255411622Y-109879790D01*
X255412513Y-109825793D01*
X255415196Y-109774962D01*
X255420778Y-109718468D01*
X255428935Y-109666885D01*
X255441708Y-109612912D01*
X255448255Y-109591828D01*
X255468909Y-109540262D01*
X255493989Y-109494986D01*
X255523497Y-109455998D01*
X255557431Y-109423300D01*
X255601191Y-109394610D01*
X255650863Y-109375309D01*
X255699979Y-109366036D01*
X255739881Y-109363949D01*
X255793263Y-109367817D01*
G37*
G36*
X257100558Y-109981395D02*
G01*
X257100558Y-109864159D01*
X257527006Y-109863426D01*
X257527006Y-110239316D01*
X257483746Y-110271556D01*
X257439878Y-110300103D01*
X257395402Y-110324958D01*
X257350319Y-110346118D01*
X257324284Y-110356552D01*
X257271787Y-110373649D01*
X257218588Y-110385861D01*
X257164687Y-110393189D01*
X257110083Y-110395631D01*
X257055432Y-110393390D01*
X257002670Y-110386667D01*
X256951797Y-110375461D01*
X256902813Y-110359773D01*
X256855718Y-110339603D01*
X256840439Y-110331884D01*
X256797097Y-110305886D01*
X256757927Y-110275887D01*
X256717504Y-110235831D01*
X256687376Y-110197163D01*
X256661421Y-110154493D01*
X256657501Y-110146992D01*
X256636501Y-110100658D01*
X256619846Y-110052332D01*
X256607535Y-110002015D01*
X256599570Y-109949705D01*
X256595949Y-109895403D01*
X256595708Y-109876859D01*
X256597863Y-109822134D01*
X256604329Y-109768782D01*
X256615105Y-109716804D01*
X256630192Y-109666200D01*
X256649589Y-109616970D01*
X256657013Y-109600865D01*
X256681983Y-109555106D01*
X256710731Y-109514002D01*
X256743257Y-109477552D01*
X256785980Y-109440908D01*
X256833845Y-109410600D01*
X256878395Y-109389434D01*
X256925401Y-109372647D01*
X256974863Y-109360239D01*
X257026781Y-109352210D01*
X257081155Y-109348561D01*
X257099825Y-109348318D01*
X257153101Y-109350501D01*
X257203750Y-109357049D01*
X257251775Y-109367964D01*
X257297173Y-109383244D01*
X257343874Y-109405074D01*
X257388649Y-109434450D01*
X257425934Y-109469216D01*
X257435659Y-109480697D01*
X257464720Y-109523473D01*
X257486796Y-109568293D01*
X257505009Y-109619103D01*
X257511863Y-109643607D01*
X257391695Y-109676580D01*
X257374780Y-109628225D01*
X257353365Y-109584296D01*
X257335275Y-109557390D01*
X257300433Y-109522668D01*
X257258118Y-109496371D01*
X257239288Y-109487780D01*
X257190470Y-109471855D01*
X257137805Y-109463280D01*
X257100558Y-109461646D01*
X257051126Y-109463888D01*
X257000780Y-109471635D01*
X256950964Y-109486548D01*
X256942533Y-109489979D01*
X256896130Y-109513735D01*
X256854001Y-109545130D01*
X256834822Y-109564473D01*
X256804704Y-109603312D01*
X256779032Y-109648566D01*
X256771563Y-109665589D01*
X256754679Y-109714102D01*
X256742620Y-109764630D01*
X256735384Y-109817172D01*
X256732972Y-109871730D01*
X256734604Y-109921458D01*
X256740631Y-109975524D01*
X256751100Y-110025336D01*
X256768502Y-110077054D01*
X256779378Y-110100830D01*
X256805207Y-110143908D01*
X256840541Y-110185292D01*
X256882521Y-110219179D01*
X256914200Y-110237606D01*
X256959217Y-110257161D01*
X257011504Y-110272481D01*
X257065529Y-110280731D01*
X257102512Y-110282302D01*
X257156274Y-110279011D01*
X257209177Y-110269136D01*
X257256056Y-110254620D01*
X257271528Y-110248597D01*
X257319212Y-110227102D01*
X257362629Y-110202465D01*
X257396580Y-110176789D01*
X257396580Y-109981395D01*
X257100558Y-109981395D01*
G37*
G36*
X257716294Y-110380000D02*
G01*
X257716294Y-109363949D01*
X257852826Y-109363949D01*
X258381856Y-110161646D01*
X258381856Y-109363949D01*
X258509595Y-109363949D01*
X258509595Y-110380000D01*
X258373063Y-110380000D01*
X257844033Y-109581570D01*
X257844033Y-110380000D01*
X257716294Y-110380000D01*
G37*
G36*
X259130033Y-109364865D02*
G01*
X259183880Y-109368085D01*
X259233377Y-109374382D01*
X259254047Y-109378604D01*
X259305605Y-109394317D01*
X259352202Y-109416423D01*
X259393838Y-109444921D01*
X259401570Y-109451388D01*
X259438969Y-109487704D01*
X259471301Y-109528752D01*
X259498565Y-109574532D01*
X259520760Y-109625045D01*
X259536177Y-109672656D01*
X259547808Y-109723166D01*
X259555652Y-109776574D01*
X259559709Y-109832880D01*
X259560327Y-109866357D01*
X259559042Y-109915744D01*
X259554424Y-109969096D01*
X259546448Y-110019151D01*
X259533461Y-110071521D01*
X259517268Y-110119370D01*
X259496422Y-110166826D01*
X259470020Y-110212084D01*
X259464829Y-110219532D01*
X259432371Y-110259992D01*
X259394650Y-110295917D01*
X259373237Y-110311856D01*
X259329328Y-110336383D01*
X259282714Y-110354300D01*
X259252826Y-110362658D01*
X259201984Y-110372531D01*
X259151456Y-110377950D01*
X259102473Y-110379932D01*
X259091137Y-110380000D01*
X258727704Y-110380000D01*
X258727704Y-110262763D01*
X258861060Y-110262763D01*
X259075994Y-110262763D01*
X259128647Y-110261275D01*
X259179175Y-110256133D01*
X259228726Y-110245113D01*
X259232309Y-110243956D01*
X259277496Y-110224555D01*
X259318376Y-110195170D01*
X259322679Y-110190956D01*
X259355263Y-110150198D01*
X259379941Y-110104629D01*
X259396441Y-110061507D01*
X259409310Y-110013033D01*
X259417967Y-109959111D01*
X259422127Y-109906606D01*
X259423063Y-109864403D01*
X259421234Y-109806763D01*
X259415747Y-109754379D01*
X259404723Y-109699906D01*
X259388719Y-109652585D01*
X259371039Y-109617718D01*
X259340136Y-109573722D01*
X259305678Y-109538729D01*
X259263221Y-109510407D01*
X259245010Y-109502191D01*
X259195688Y-109489391D01*
X259146615Y-109483668D01*
X259094302Y-109481370D01*
X259072575Y-109481186D01*
X258861060Y-109481186D01*
X258861060Y-110262763D01*
X258727704Y-110262763D01*
X258727704Y-109363949D01*
X259074773Y-109363949D01*
X259130033Y-109364865D01*
G37*
G36*
X260076657Y-110114263D02*
G01*
X260206594Y-110103272D01*
X260217714Y-110152987D01*
X260237139Y-110199479D01*
X260267101Y-110239986D01*
X260273517Y-110246154D01*
X260315958Y-110275326D01*
X260364512Y-110291034D01*
X260400279Y-110294026D01*
X260453325Y-110287300D01*
X260501029Y-110267121D01*
X260543390Y-110233490D01*
X260551221Y-110225150D01*
X260581210Y-110182871D01*
X260601384Y-110133521D01*
X260611077Y-110083719D01*
X260613258Y-110042700D01*
X260609534Y-109991455D01*
X260596439Y-109940628D01*
X260573916Y-109897027D01*
X260553663Y-109871974D01*
X260512967Y-109839002D01*
X260465068Y-109818241D01*
X260415800Y-109809998D01*
X260398080Y-109809448D01*
X260348132Y-109814871D01*
X260299492Y-109832717D01*
X260290369Y-109837780D01*
X260249769Y-109867869D01*
X260218184Y-109905472D01*
X260214654Y-109911053D01*
X260098639Y-109895910D01*
X260196092Y-109379581D01*
X260697034Y-109379581D01*
X260697034Y-109496817D01*
X260295010Y-109496817D01*
X260240788Y-109767438D01*
X260286752Y-109741366D01*
X260333784Y-109722742D01*
X260381884Y-109711568D01*
X260431053Y-109707843D01*
X260486780Y-109712238D01*
X260538557Y-109725421D01*
X260586384Y-109747393D01*
X260630260Y-109778155D01*
X260653558Y-109799678D01*
X260688961Y-109842274D01*
X260715669Y-109889919D01*
X260733681Y-109942612D01*
X260742199Y-109991796D01*
X260744417Y-110035617D01*
X260741618Y-110085778D01*
X260731276Y-110140977D01*
X260713314Y-110192600D01*
X260687732Y-110240647D01*
X260664794Y-110272777D01*
X260625950Y-110314528D01*
X260582144Y-110347641D01*
X260533375Y-110372116D01*
X260479642Y-110387953D01*
X260431074Y-110394551D01*
X260400279Y-110395631D01*
X260350490Y-110392926D01*
X260296897Y-110382934D01*
X260248142Y-110365578D01*
X260204226Y-110340859D01*
X260175819Y-110318695D01*
X260141438Y-110282532D01*
X260114163Y-110241578D01*
X260093994Y-110195832D01*
X260080931Y-110145294D01*
X260076657Y-110114263D01*
G37*
G36*
X261193335Y-110380000D02*
G01*
X260803035Y-109363949D01*
X260947383Y-109363949D01*
X261209211Y-110102784D01*
X261226122Y-110151904D01*
X261241411Y-110199246D01*
X261256495Y-110249765D01*
X261261967Y-110269357D01*
X261277338Y-110217303D01*
X261292394Y-110170454D01*
X261308610Y-110123606D01*
X261316189Y-110102784D01*
X261588276Y-109363949D01*
X261724319Y-109363949D01*
X261330111Y-110380000D01*
X261193335Y-110380000D01*
G37*
G36*
X227801607Y-111470670D02*
G01*
X227850994Y-111477729D01*
X227898441Y-111489492D01*
X227951344Y-111509164D01*
X228001605Y-111535240D01*
X228048092Y-111567055D01*
X228089460Y-111603942D01*
X228125710Y-111645902D01*
X228156840Y-111692933D01*
X228172330Y-111722086D01*
X228192334Y-111768099D01*
X228208200Y-111816379D01*
X228219926Y-111866926D01*
X228227514Y-111919740D01*
X228230963Y-111974820D01*
X228231193Y-111993684D01*
X228229012Y-112050253D01*
X228222469Y-112104555D01*
X228211564Y-112156590D01*
X228196297Y-112206359D01*
X228176667Y-112253860D01*
X228169155Y-112269190D01*
X228144171Y-112312641D01*
X228110443Y-112358104D01*
X228071782Y-112397933D01*
X228028190Y-112432128D01*
X227994033Y-112453105D01*
X227943599Y-112477468D01*
X227891458Y-112495847D01*
X227837610Y-112508243D01*
X227782057Y-112514654D01*
X227749546Y-112515631D01*
X227697296Y-112513210D01*
X227647159Y-112505945D01*
X227599133Y-112493838D01*
X227553220Y-112476888D01*
X227509420Y-112455095D01*
X227495289Y-112446755D01*
X227448932Y-112414107D01*
X227407740Y-112376644D01*
X227371715Y-112334365D01*
X227340855Y-112287272D01*
X227325540Y-112258199D01*
X227305951Y-112212922D01*
X227288220Y-112158861D01*
X227276005Y-112103467D01*
X227269925Y-112054927D01*
X227267969Y-112007117D01*
X227405408Y-112007117D01*
X227407799Y-112062612D01*
X227414972Y-112114303D01*
X227426928Y-112162189D01*
X227447588Y-112214631D01*
X227475134Y-112261594D01*
X227503349Y-112296545D01*
X227541820Y-112332486D01*
X227583778Y-112360991D01*
X227629221Y-112382060D01*
X227678151Y-112395693D01*
X227730567Y-112401889D01*
X227748813Y-112402302D01*
X227803361Y-112398550D01*
X227854166Y-112387293D01*
X227901226Y-112368531D01*
X227944543Y-112342264D01*
X227984116Y-112308493D01*
X227996475Y-112295568D01*
X228029511Y-112252400D01*
X228055712Y-112202947D01*
X228072325Y-112156934D01*
X228084191Y-112106557D01*
X228091311Y-112051814D01*
X228093684Y-111992707D01*
X228091697Y-111939932D01*
X228085737Y-111890172D01*
X228074059Y-111836996D01*
X228057191Y-111787758D01*
X228052163Y-111776064D01*
X228028990Y-111732390D01*
X227997155Y-111689498D01*
X227959215Y-111653212D01*
X227930530Y-111632693D01*
X227883941Y-111608017D01*
X227834299Y-111591417D01*
X227781605Y-111582893D01*
X227751011Y-111581646D01*
X227699280Y-111585098D01*
X227650330Y-111595454D01*
X227604162Y-111612713D01*
X227560777Y-111636876D01*
X227520173Y-111667942D01*
X227507257Y-111679832D01*
X227472644Y-111721180D01*
X227445193Y-111771767D01*
X227427787Y-111820980D01*
X227415354Y-111876610D01*
X227408988Y-111925733D01*
X227405806Y-111978963D01*
X227405408Y-112007117D01*
X227267969Y-112007117D01*
X227267899Y-112005408D01*
X227270002Y-111944107D01*
X227276310Y-111886232D01*
X227286824Y-111831785D01*
X227301543Y-111780765D01*
X227320468Y-111733172D01*
X227343599Y-111689006D01*
X227370935Y-111648267D01*
X227402477Y-111610956D01*
X227446517Y-111569864D01*
X227494373Y-111535736D01*
X227546046Y-111508574D01*
X227601535Y-111488376D01*
X227660840Y-111475143D01*
X227711032Y-111469571D01*
X227750279Y-111468318D01*
X227801607Y-111470670D01*
G37*
G36*
X228859141Y-112500000D02*
G01*
X228859141Y-112392777D01*
X228825029Y-112434528D01*
X228786624Y-112467641D01*
X228743925Y-112492116D01*
X228696933Y-112507953D01*
X228645648Y-112515151D01*
X228627599Y-112515631D01*
X228576620Y-112511519D01*
X228528462Y-112499185D01*
X228507187Y-112490718D01*
X228463717Y-112466489D01*
X228427431Y-112432844D01*
X228423900Y-112428192D01*
X228399645Y-112383472D01*
X228385799Y-112336113D01*
X228379891Y-112285054D01*
X228378294Y-112234404D01*
X228378227Y-112219853D01*
X228378227Y-111765317D01*
X228502058Y-111765317D01*
X228502058Y-112173203D01*
X228502657Y-112223115D01*
X228505319Y-112273976D01*
X228509630Y-112304849D01*
X228529271Y-112351082D01*
X228558967Y-112382030D01*
X228604222Y-112403946D01*
X228652512Y-112410118D01*
X228703041Y-112403839D01*
X228750672Y-112385002D01*
X228756803Y-112381542D01*
X228796320Y-112349961D01*
X228824629Y-112306218D01*
X228825924Y-112303140D01*
X228839050Y-112255478D01*
X228844929Y-112203626D01*
X228846196Y-112159281D01*
X228846196Y-111765317D01*
X228969783Y-111765317D01*
X228969783Y-112500000D01*
X228859141Y-112500000D01*
G37*
G36*
X229429692Y-112386671D02*
G01*
X229447522Y-112500000D01*
X229398063Y-112511723D01*
X229354221Y-112515631D01*
X229304448Y-112512084D01*
X229256913Y-112497979D01*
X229249685Y-112494138D01*
X229211866Y-112461718D01*
X229197418Y-112437229D01*
X229186724Y-112387137D01*
X229183232Y-112334720D01*
X229182519Y-112288974D01*
X229182519Y-111863014D01*
X229091660Y-111863014D01*
X229091660Y-111765317D01*
X229182519Y-111765317D01*
X229182519Y-111587997D01*
X229305373Y-111515212D01*
X229305373Y-111765317D01*
X229429692Y-111765317D01*
X229429692Y-111863014D01*
X229305373Y-111863014D01*
X229305373Y-112298988D01*
X229307612Y-112349685D01*
X229311723Y-112368597D01*
X229332972Y-112393265D01*
X229375471Y-112402302D01*
X229423489Y-112389464D01*
X229429692Y-112386671D01*
G37*
G36*
X229923610Y-111753511D02*
G01*
X229975998Y-111766734D01*
X230024045Y-111789403D01*
X230037613Y-111798046D01*
X230078905Y-111832135D01*
X230113328Y-111873952D01*
X230138436Y-111918194D01*
X230145568Y-111934333D01*
X230163160Y-111985125D01*
X230174995Y-112038584D01*
X230180681Y-112088341D01*
X230181960Y-112127041D01*
X230179442Y-112181934D01*
X230171885Y-112234019D01*
X230159292Y-112283295D01*
X230141660Y-112329762D01*
X230116231Y-112377017D01*
X230085006Y-112417664D01*
X230047984Y-112451704D01*
X230024912Y-112467759D01*
X229981273Y-112490900D01*
X229931289Y-112507730D01*
X229879731Y-112515210D01*
X229863956Y-112515631D01*
X229812271Y-112510629D01*
X229765355Y-112495622D01*
X229752826Y-112489497D01*
X229710665Y-112461991D01*
X229674212Y-112426026D01*
X229672226Y-112423551D01*
X229672226Y-112781367D01*
X229548639Y-112781367D01*
X229548639Y-112137299D01*
X229660502Y-112137299D01*
X229662503Y-112187737D01*
X229669894Y-112240026D01*
X229685010Y-112291142D01*
X229710519Y-112337626D01*
X229717411Y-112346371D01*
X229755469Y-112382048D01*
X229802732Y-112406032D01*
X229855652Y-112414026D01*
X229904782Y-112407181D01*
X229949285Y-112386644D01*
X229989160Y-112352417D01*
X229996580Y-112343928D01*
X230025034Y-112298413D01*
X230042509Y-112247736D01*
X230051764Y-112195505D01*
X230055213Y-112144875D01*
X230055443Y-112126796D01*
X230053425Y-112076788D01*
X230045970Y-112024695D01*
X230030724Y-111973404D01*
X230004996Y-111926212D01*
X229998046Y-111917236D01*
X229960107Y-111880399D01*
X229913250Y-111855637D01*
X229861025Y-111847383D01*
X229808924Y-111856156D01*
X229765265Y-111879359D01*
X229728991Y-111912641D01*
X229721318Y-111921632D01*
X229694711Y-111962955D01*
X229675706Y-112012674D01*
X229665313Y-112063065D01*
X229660740Y-112119884D01*
X229660502Y-112137299D01*
X229548639Y-112137299D01*
X229548639Y-111765317D01*
X229661235Y-111765317D01*
X229661235Y-111861793D01*
X229692536Y-111823760D01*
X229729701Y-111791394D01*
X229751116Y-111777773D01*
X229799161Y-111758573D01*
X229850975Y-111750371D01*
X229872749Y-111749685D01*
X229923610Y-111753511D01*
G37*
G36*
X230805268Y-112500000D02*
G01*
X230805268Y-112392777D01*
X230771156Y-112434528D01*
X230732751Y-112467641D01*
X230690052Y-112492116D01*
X230643060Y-112507953D01*
X230591775Y-112515151D01*
X230573726Y-112515631D01*
X230522747Y-112511519D01*
X230474589Y-112499185D01*
X230453314Y-112490718D01*
X230409844Y-112466489D01*
X230373558Y-112432844D01*
X230370027Y-112428192D01*
X230345772Y-112383472D01*
X230331926Y-112336113D01*
X230326018Y-112285054D01*
X230324421Y-112234404D01*
X230324354Y-112219853D01*
X230324354Y-111765317D01*
X230448185Y-111765317D01*
X230448185Y-112173203D01*
X230448784Y-112223115D01*
X230451446Y-112273976D01*
X230455757Y-112304849D01*
X230475398Y-112351082D01*
X230505094Y-112382030D01*
X230550349Y-112403946D01*
X230598639Y-112410118D01*
X230649168Y-112403839D01*
X230696799Y-112385002D01*
X230702930Y-112381542D01*
X230742447Y-112349961D01*
X230770756Y-112306218D01*
X230772051Y-112303140D01*
X230785177Y-112255478D01*
X230791056Y-112203626D01*
X230792323Y-112159281D01*
X230792323Y-111765317D01*
X230915910Y-111765317D01*
X230915910Y-112500000D01*
X230805268Y-112500000D01*
G37*
G36*
X231375819Y-112386671D02*
G01*
X231393649Y-112500000D01*
X231344190Y-112511723D01*
X231300348Y-112515631D01*
X231250575Y-112512084D01*
X231203040Y-112497979D01*
X231195812Y-112494138D01*
X231157993Y-112461718D01*
X231143545Y-112437229D01*
X231132851Y-112387137D01*
X231129359Y-112334720D01*
X231128646Y-112288974D01*
X231128646Y-111863014D01*
X231037787Y-111863014D01*
X231037787Y-111765317D01*
X231128646Y-111765317D01*
X231128646Y-111587997D01*
X231251500Y-111515212D01*
X231251500Y-111765317D01*
X231375819Y-111765317D01*
X231375819Y-111863014D01*
X231251500Y-111863014D01*
X231251500Y-112298988D01*
X231253739Y-112349685D01*
X231257850Y-112368597D01*
X231279099Y-112393265D01*
X231321598Y-112402302D01*
X231369616Y-112389464D01*
X231375819Y-112386671D01*
G37*
G36*
X227258374Y-113914263D02*
G01*
X227388311Y-113903272D01*
X227399430Y-113952987D01*
X227418855Y-113999479D01*
X227448818Y-114039986D01*
X227455233Y-114046154D01*
X227497674Y-114075326D01*
X227546229Y-114091034D01*
X227581995Y-114094026D01*
X227635042Y-114087300D01*
X227682745Y-114067121D01*
X227725106Y-114033490D01*
X227732937Y-114025150D01*
X227762926Y-113982871D01*
X227783101Y-113933521D01*
X227792794Y-113883719D01*
X227794975Y-113842700D01*
X227791250Y-113791455D01*
X227778156Y-113740628D01*
X227755633Y-113697027D01*
X227735380Y-113671974D01*
X227694684Y-113639002D01*
X227646785Y-113618241D01*
X227597516Y-113609998D01*
X227579797Y-113609448D01*
X227529849Y-113614871D01*
X227481209Y-113632717D01*
X227472086Y-113637780D01*
X227431485Y-113667869D01*
X227399901Y-113705472D01*
X227396371Y-113711053D01*
X227280355Y-113695910D01*
X227377808Y-113179581D01*
X227878750Y-113179581D01*
X227878750Y-113296817D01*
X227476727Y-113296817D01*
X227422505Y-113567438D01*
X227468468Y-113541366D01*
X227515500Y-113522742D01*
X227563601Y-113511568D01*
X227612770Y-113507843D01*
X227668497Y-113512238D01*
X227720274Y-113525421D01*
X227768100Y-113547393D01*
X227811977Y-113578155D01*
X227835275Y-113599678D01*
X227870678Y-113642274D01*
X227897385Y-113689919D01*
X227915397Y-113742612D01*
X227923915Y-113791796D01*
X227926133Y-113835617D01*
X227923334Y-113885778D01*
X227912993Y-113940977D01*
X227895031Y-113992600D01*
X227869449Y-114040647D01*
X227846510Y-114072777D01*
X227807667Y-114114528D01*
X227763861Y-114147641D01*
X227715091Y-114172116D01*
X227661359Y-114187953D01*
X227612791Y-114194551D01*
X227581995Y-114195631D01*
X227532207Y-114192926D01*
X227478614Y-114182934D01*
X227429859Y-114165578D01*
X227385942Y-114140859D01*
X227357536Y-114118695D01*
X227323155Y-114082532D01*
X227295880Y-114041578D01*
X227275711Y-113995832D01*
X227262648Y-113945294D01*
X227258374Y-113914263D01*
G37*
G36*
X228375052Y-114180000D02*
G01*
X227984752Y-113163949D01*
X228129099Y-113163949D01*
X228390928Y-113902784D01*
X228407839Y-113951904D01*
X228423128Y-113999246D01*
X228438212Y-114049765D01*
X228443684Y-114069357D01*
X228459054Y-114017303D01*
X228474111Y-113970454D01*
X228490327Y-113923606D01*
X228497906Y-113902784D01*
X228769993Y-113163949D01*
X228906036Y-113163949D01*
X228511828Y-114180000D01*
X228375052Y-114180000D01*
G37*
G36*
X219240018Y-104577817D02*
G01*
X219288666Y-104589419D01*
X219328785Y-104606678D01*
X219371741Y-104635311D01*
X219408653Y-104672120D01*
X219429902Y-104701200D01*
X219455252Y-104746718D01*
X219474791Y-104793659D01*
X219489522Y-104840433D01*
X219492428Y-104851409D01*
X219502366Y-104899479D01*
X219509464Y-104955273D01*
X219513346Y-105010430D01*
X219514943Y-105062413D01*
X219515143Y-105090034D01*
X219514254Y-105143930D01*
X219511589Y-105194486D01*
X219506045Y-105250746D01*
X219497942Y-105302197D01*
X219485254Y-105356147D01*
X219478750Y-105377264D01*
X219458295Y-105428753D01*
X219433321Y-105474045D01*
X219403829Y-105513139D01*
X219369818Y-105546036D01*
X219326000Y-105574844D01*
X219276155Y-105594224D01*
X219226787Y-105603536D01*
X219186636Y-105605631D01*
X219134246Y-105601947D01*
X219086252Y-105590896D01*
X219035816Y-105568692D01*
X218991364Y-105536460D01*
X218958025Y-105500851D01*
X218929317Y-105457591D01*
X218905474Y-105406579D01*
X218889904Y-105360188D01*
X218877447Y-105308836D01*
X218868105Y-105252523D01*
X218861877Y-105191248D01*
X218859249Y-105142037D01*
X218858374Y-105090034D01*
X218858378Y-105089790D01*
X218985380Y-105089790D01*
X218986288Y-105149469D01*
X218989013Y-105203943D01*
X218993554Y-105253212D01*
X219001786Y-105307477D01*
X219015410Y-105361859D01*
X219036470Y-105410502D01*
X219043510Y-105421472D01*
X219078333Y-105461378D01*
X219122010Y-105490401D01*
X219170935Y-105503300D01*
X219186636Y-105504026D01*
X219237264Y-105495940D01*
X219282597Y-105471683D01*
X219318869Y-105436025D01*
X219330006Y-105421228D01*
X219352657Y-105377068D01*
X219367643Y-105326584D01*
X219377010Y-105275606D01*
X219383538Y-105216531D01*
X219386717Y-105163441D01*
X219388080Y-105105168D01*
X219388136Y-105089790D01*
X219387228Y-105029947D01*
X219384503Y-104975347D01*
X219379962Y-104925991D01*
X219371731Y-104871670D01*
X219358106Y-104817299D01*
X219337046Y-104768778D01*
X219330006Y-104757864D01*
X219295067Y-104718076D01*
X219250989Y-104689139D01*
X219201377Y-104676278D01*
X219185415Y-104675554D01*
X219135502Y-104682638D01*
X219088368Y-104706795D01*
X219052580Y-104743631D01*
X219049371Y-104748094D01*
X219024437Y-104796085D01*
X219007939Y-104849144D01*
X218997628Y-104901770D01*
X218990442Y-104962040D01*
X218986942Y-105015760D01*
X218985442Y-105074373D01*
X218985380Y-105089790D01*
X218858378Y-105089790D01*
X218859268Y-105035793D01*
X218861951Y-104984962D01*
X218867533Y-104928468D01*
X218875690Y-104876885D01*
X218888463Y-104822912D01*
X218895010Y-104801828D01*
X218915664Y-104750262D01*
X218940744Y-104704986D01*
X218970252Y-104665998D01*
X219004187Y-104633300D01*
X219047946Y-104604610D01*
X219097618Y-104585309D01*
X219146734Y-104576036D01*
X219186636Y-104573949D01*
X219240018Y-104577817D01*
G37*
G36*
X219706385Y-105590000D02*
G01*
X219706385Y-105449316D01*
X219847313Y-105449316D01*
X219847313Y-105590000D01*
X219706385Y-105590000D01*
G37*
G36*
X220396534Y-104578161D02*
G01*
X220447764Y-104590796D01*
X220496328Y-104611855D01*
X220522156Y-104627194D01*
X220564814Y-104660581D01*
X220601290Y-104701117D01*
X220628524Y-104743149D01*
X220645743Y-104778381D01*
X220662207Y-104825544D01*
X220674627Y-104881123D01*
X220682055Y-104935459D01*
X220685975Y-104985462D01*
X220687832Y-105039759D01*
X220687997Y-105062679D01*
X220686971Y-105121209D01*
X220683894Y-105175899D01*
X220678766Y-105226749D01*
X220669905Y-105282700D01*
X220658089Y-105333120D01*
X220645987Y-105370914D01*
X220625751Y-105418518D01*
X220597816Y-105466512D01*
X220564751Y-105507667D01*
X220526558Y-105541983D01*
X220521423Y-105545792D01*
X220478253Y-105571971D01*
X220431542Y-105590671D01*
X220381289Y-105601891D01*
X220327494Y-105605631D01*
X220277845Y-105602440D01*
X220226168Y-105590980D01*
X220179895Y-105571185D01*
X220139027Y-105543055D01*
X220134298Y-105538953D01*
X220100654Y-105502118D01*
X220074459Y-105458536D01*
X220055713Y-105408206D01*
X220045421Y-105358634D01*
X220044417Y-105351130D01*
X220163363Y-105339895D01*
X220175370Y-105389177D01*
X220196894Y-105436164D01*
X220220760Y-105465191D01*
X220262741Y-105491739D01*
X220313885Y-105503419D01*
X220330181Y-105504026D01*
X220380474Y-105498391D01*
X220427376Y-105479958D01*
X220430076Y-105478381D01*
X220469155Y-105448461D01*
X220500418Y-105409993D01*
X220524307Y-105363091D01*
X220540559Y-105316065D01*
X220546580Y-105293977D01*
X220557148Y-105243481D01*
X220563330Y-105192408D01*
X220565143Y-105145478D01*
X220564410Y-105121053D01*
X220532754Y-105159865D01*
X220493473Y-105192769D01*
X220463049Y-105211423D01*
X220417646Y-105231169D01*
X220369761Y-105242719D01*
X220324075Y-105246106D01*
X220271199Y-105241758D01*
X220221994Y-105228715D01*
X220176458Y-105206976D01*
X220134592Y-105176542D01*
X220112316Y-105155247D01*
X220078627Y-105112620D01*
X220053211Y-105064453D01*
X220036071Y-105010746D01*
X220027965Y-104960302D01*
X220026219Y-104922972D01*
X220152861Y-104922972D01*
X220157459Y-104975422D01*
X220173354Y-105026856D01*
X220200602Y-105071087D01*
X220210990Y-105082951D01*
X220249945Y-105115409D01*
X220298856Y-105137228D01*
X220348831Y-105144440D01*
X220354117Y-105144501D01*
X220404845Y-105138490D01*
X220453703Y-105117994D01*
X220491809Y-105086738D01*
X220495289Y-105082951D01*
X220524527Y-105039856D01*
X220541582Y-104993157D01*
X220549866Y-104938963D01*
X220550732Y-104912470D01*
X220547191Y-104860812D01*
X220534740Y-104809413D01*
X220513325Y-104765123D01*
X220494068Y-104739546D01*
X220456411Y-104705800D01*
X220409808Y-104683116D01*
X220357780Y-104675554D01*
X220308259Y-104682280D01*
X220262888Y-104702459D01*
X220221667Y-104736090D01*
X220213921Y-104744431D01*
X220184405Y-104786400D01*
X220164548Y-104834823D01*
X220155007Y-104883282D01*
X220152861Y-104922972D01*
X220026219Y-104922972D01*
X220025854Y-104915157D01*
X220029031Y-104859649D01*
X220038563Y-104808350D01*
X220054448Y-104761258D01*
X220081012Y-104711635D01*
X220116224Y-104667739D01*
X220157947Y-104631194D01*
X220204040Y-104603625D01*
X220254505Y-104585032D01*
X220309340Y-104575415D01*
X220342637Y-104573949D01*
X220396534Y-104578161D01*
G37*
G36*
X220790823Y-105293000D02*
G01*
X220790823Y-105167948D01*
X221170621Y-105167948D01*
X221170621Y-105293000D01*
X220790823Y-105293000D01*
G37*
G36*
X221270516Y-105324263D02*
G01*
X221400453Y-105313272D01*
X221411573Y-105362987D01*
X221430998Y-105409479D01*
X221460960Y-105449986D01*
X221467376Y-105456154D01*
X221509817Y-105485326D01*
X221558371Y-105501034D01*
X221594138Y-105504026D01*
X221647184Y-105497300D01*
X221694888Y-105477121D01*
X221737249Y-105443490D01*
X221745080Y-105435150D01*
X221775069Y-105392871D01*
X221795243Y-105343521D01*
X221804936Y-105293719D01*
X221807117Y-105252700D01*
X221803393Y-105201455D01*
X221790298Y-105150628D01*
X221767775Y-105107027D01*
X221747522Y-105081974D01*
X221706826Y-105049002D01*
X221658927Y-105028241D01*
X221609659Y-105019998D01*
X221591939Y-105019448D01*
X221541991Y-105024871D01*
X221493351Y-105042717D01*
X221484228Y-105047780D01*
X221443628Y-105077869D01*
X221412043Y-105115472D01*
X221408513Y-105121053D01*
X221292498Y-105105910D01*
X221389951Y-104589581D01*
X221890893Y-104589581D01*
X221890893Y-104706817D01*
X221488869Y-104706817D01*
X221434647Y-104977438D01*
X221480611Y-104951366D01*
X221527643Y-104932742D01*
X221575743Y-104921568D01*
X221624912Y-104917843D01*
X221680639Y-104922238D01*
X221732416Y-104935421D01*
X221780243Y-104957393D01*
X221824119Y-104988155D01*
X221847418Y-105009678D01*
X221882820Y-105052274D01*
X221909528Y-105099919D01*
X221927540Y-105152612D01*
X221936058Y-105201796D01*
X221938276Y-105245617D01*
X221935477Y-105295778D01*
X221925135Y-105350977D01*
X221907173Y-105402600D01*
X221881591Y-105450647D01*
X221858653Y-105482777D01*
X221819809Y-105524528D01*
X221776003Y-105557641D01*
X221727234Y-105582116D01*
X221673501Y-105597953D01*
X221624933Y-105604551D01*
X221594138Y-105605631D01*
X221544349Y-105602926D01*
X221490756Y-105592934D01*
X221442001Y-105575578D01*
X221398085Y-105550859D01*
X221369678Y-105528695D01*
X221335297Y-105492532D01*
X221308022Y-105451578D01*
X221287853Y-105405832D01*
X221274790Y-105355294D01*
X221270516Y-105324263D01*
G37*
G36*
X222387194Y-105590000D02*
G01*
X221996894Y-104573949D01*
X222141242Y-104573949D01*
X222403070Y-105312784D01*
X222419981Y-105361904D01*
X222435270Y-105409246D01*
X222450354Y-105459765D01*
X222455826Y-105479357D01*
X222471197Y-105427303D01*
X222486253Y-105380454D01*
X222502469Y-105333606D01*
X222510048Y-105312784D01*
X222782135Y-104573949D01*
X222918178Y-104573949D01*
X222523970Y-105590000D01*
X222387194Y-105590000D01*
G37*
G36*
X219162700Y-107156671D02*
G01*
X219180530Y-107270000D01*
X219131071Y-107281723D01*
X219087229Y-107285631D01*
X219037456Y-107282084D01*
X218989920Y-107267979D01*
X218982693Y-107264138D01*
X218944874Y-107231718D01*
X218930425Y-107207229D01*
X218919731Y-107157137D01*
X218916239Y-107104720D01*
X218915526Y-107058974D01*
X218915526Y-106633014D01*
X218824668Y-106633014D01*
X218824668Y-106535317D01*
X218915526Y-106535317D01*
X218915526Y-106357997D01*
X219038381Y-106285212D01*
X219038381Y-106535317D01*
X219162700Y-106535317D01*
X219162700Y-106633014D01*
X219038381Y-106633014D01*
X219038381Y-107068988D01*
X219040619Y-107119685D01*
X219044731Y-107138597D01*
X219065980Y-107163265D01*
X219108478Y-107172302D01*
X219156496Y-107159464D01*
X219162700Y-107156671D01*
G37*
G36*
X219632157Y-106523172D02*
G01*
X219682781Y-106533630D01*
X219729541Y-106551061D01*
X219772437Y-106575464D01*
X219811469Y-106606840D01*
X219823621Y-106618848D01*
X219856076Y-106658604D01*
X219881816Y-106703684D01*
X219900841Y-106754088D01*
X219913152Y-106809815D01*
X219918281Y-106860322D01*
X219919120Y-106892400D01*
X219917635Y-106943310D01*
X219912147Y-106997345D01*
X219902615Y-107045605D01*
X219886769Y-107093691D01*
X219876866Y-107114905D01*
X219850046Y-107157658D01*
X219817120Y-107194693D01*
X219778090Y-107226008D01*
X219753768Y-107240935D01*
X219707252Y-107262541D01*
X219658379Y-107277076D01*
X219607148Y-107284540D01*
X219577669Y-107285631D01*
X219522302Y-107282162D01*
X219471057Y-107271755D01*
X219423933Y-107254410D01*
X219380931Y-107230127D01*
X219342051Y-107198906D01*
X219330006Y-107186957D01*
X219297884Y-107146897D01*
X219272407Y-107100724D01*
X219253577Y-107048437D01*
X219242961Y-107000194D01*
X219236961Y-106947706D01*
X219235484Y-106902658D01*
X219235493Y-106902414D01*
X219362735Y-106902414D01*
X219364882Y-106952864D01*
X219372812Y-107005427D01*
X219389032Y-107057199D01*
X219412884Y-107100117D01*
X219423796Y-107113928D01*
X219460654Y-107147813D01*
X219507499Y-107172457D01*
X219560545Y-107183410D01*
X219577669Y-107184026D01*
X219627010Y-107178443D01*
X219676078Y-107159142D01*
X219719087Y-107126054D01*
X219730809Y-107113440D01*
X219760326Y-107067881D01*
X219778453Y-107017556D01*
X219788053Y-106965932D01*
X219791631Y-106916047D01*
X219791870Y-106898262D01*
X219789706Y-106849398D01*
X219781712Y-106798294D01*
X219765363Y-106747675D01*
X219737774Y-106700654D01*
X219730321Y-106691632D01*
X219693460Y-106657629D01*
X219646930Y-106632900D01*
X219594532Y-106621909D01*
X219577669Y-106621290D01*
X219527973Y-106626816D01*
X219478648Y-106645917D01*
X219435524Y-106678660D01*
X219423796Y-106691144D01*
X219394279Y-106736097D01*
X219376152Y-106785560D01*
X219366551Y-106836178D01*
X219362974Y-106885016D01*
X219362735Y-106902414D01*
X219235493Y-106902414D01*
X219237248Y-106853440D01*
X219244410Y-106796542D01*
X219257083Y-106744785D01*
X219275265Y-106698168D01*
X219304357Y-106649012D01*
X219341382Y-106607258D01*
X219348325Y-106601018D01*
X219391440Y-106569327D01*
X219438505Y-106545420D01*
X219489520Y-106529296D01*
X219544486Y-106520956D01*
X219577669Y-106519685D01*
X219632157Y-106523172D01*
G37*
G36*
X220414689Y-107004263D02*
G01*
X220544626Y-106993272D01*
X220555746Y-107042987D01*
X220575171Y-107089479D01*
X220605134Y-107129986D01*
X220611549Y-107136154D01*
X220653990Y-107165326D01*
X220702544Y-107181034D01*
X220738311Y-107184026D01*
X220791357Y-107177300D01*
X220839061Y-107157121D01*
X220881422Y-107123490D01*
X220889253Y-107115150D01*
X220919242Y-107072871D01*
X220939416Y-107023521D01*
X220949109Y-106973719D01*
X220951290Y-106932700D01*
X220947566Y-106881455D01*
X220934471Y-106830628D01*
X220911948Y-106787027D01*
X220891695Y-106761974D01*
X220850999Y-106729002D01*
X220803100Y-106708241D01*
X220753832Y-106699998D01*
X220736113Y-106699448D01*
X220686164Y-106704871D01*
X220637524Y-106722717D01*
X220628401Y-106727780D01*
X220587801Y-106757869D01*
X220556216Y-106795472D01*
X220552686Y-106801053D01*
X220436671Y-106785910D01*
X220534124Y-106269581D01*
X221035066Y-106269581D01*
X221035066Y-106386817D01*
X220633042Y-106386817D01*
X220578820Y-106657438D01*
X220624784Y-106631366D01*
X220671816Y-106612742D01*
X220719916Y-106601568D01*
X220769085Y-106597843D01*
X220824813Y-106602238D01*
X220876589Y-106615421D01*
X220924416Y-106637393D01*
X220968292Y-106668155D01*
X220991591Y-106689678D01*
X221026993Y-106732274D01*
X221053701Y-106779919D01*
X221071713Y-106832612D01*
X221080231Y-106881796D01*
X221082449Y-106925617D01*
X221079650Y-106975778D01*
X221069308Y-107030977D01*
X221051346Y-107082600D01*
X221025764Y-107130647D01*
X221002826Y-107162777D01*
X220963983Y-107204528D01*
X220920176Y-107237641D01*
X220871407Y-107262116D01*
X220817674Y-107277953D01*
X220769106Y-107284551D01*
X220738311Y-107285631D01*
X220688522Y-107282926D01*
X220634929Y-107272934D01*
X220586174Y-107255578D01*
X220542258Y-107230859D01*
X220513852Y-107208695D01*
X220479471Y-107172532D01*
X220452196Y-107131578D01*
X220432026Y-107085832D01*
X220418963Y-107035294D01*
X220414689Y-107004263D01*
G37*
G36*
X221531367Y-107270000D02*
G01*
X221141067Y-106253949D01*
X221285415Y-106253949D01*
X221547243Y-106992784D01*
X221564154Y-107041904D01*
X221579443Y-107089246D01*
X221594527Y-107139765D01*
X221600000Y-107159357D01*
X221615370Y-107107303D01*
X221630426Y-107060454D01*
X221646642Y-107013606D01*
X221654221Y-106992784D01*
X221926308Y-106253949D01*
X222062351Y-106253949D01*
X221668143Y-107270000D01*
X221531367Y-107270000D01*
G37*
G36*
X219335700Y-107935857D02*
G01*
X219384778Y-107941582D01*
X219433166Y-107952584D01*
X219465806Y-107964480D01*
X219510251Y-107989226D01*
X219547539Y-108021823D01*
X219575226Y-108058269D01*
X219597753Y-108102452D01*
X219611664Y-108152232D01*
X219614794Y-108190648D01*
X219608989Y-108241631D01*
X219591575Y-108290195D01*
X219579623Y-108311793D01*
X219548379Y-108351234D01*
X219507037Y-108384562D01*
X219473866Y-108403384D01*
X219521906Y-108421824D01*
X219567444Y-108449473D01*
X219604729Y-108484659D01*
X219614305Y-108496685D01*
X219640194Y-108540109D01*
X219656494Y-108588257D01*
X219663206Y-108641127D01*
X219663398Y-108652267D01*
X219659208Y-108704898D01*
X219646637Y-108754712D01*
X219633600Y-108786357D01*
X219609260Y-108828901D01*
X219575827Y-108868464D01*
X219559839Y-108882100D01*
X219517070Y-108908293D01*
X219469653Y-108927090D01*
X219449441Y-108932903D01*
X219400386Y-108942636D01*
X219349629Y-108947979D01*
X219298931Y-108949933D01*
X219287020Y-108950000D01*
X218903070Y-108950000D01*
X218903070Y-108832763D01*
X219036427Y-108832763D01*
X219287020Y-108832763D01*
X219336100Y-108831828D01*
X219377634Y-108827878D01*
X219424697Y-108814629D01*
X219454570Y-108799302D01*
X219490444Y-108765231D01*
X219505373Y-108741172D01*
X219521567Y-108694400D01*
X219525401Y-108653000D01*
X219519068Y-108601602D01*
X219498353Y-108554112D01*
X219496580Y-108551395D01*
X219462142Y-108514637D01*
X219416468Y-108490823D01*
X219367536Y-108479437D01*
X219314482Y-108474337D01*
X219269190Y-108473237D01*
X219036427Y-108473237D01*
X219036427Y-108832763D01*
X218903070Y-108832763D01*
X218903070Y-108356001D01*
X219036427Y-108356001D01*
X219254047Y-108356001D01*
X219304546Y-108354856D01*
X219355504Y-108349944D01*
X219381053Y-108344277D01*
X219425750Y-108324188D01*
X219457745Y-108294207D01*
X219478482Y-108248999D01*
X219483391Y-108206036D01*
X219476636Y-108156024D01*
X219459455Y-108117620D01*
X219423712Y-108080812D01*
X219390823Y-108065352D01*
X219339512Y-108055668D01*
X219287920Y-108052071D01*
X219237683Y-108051186D01*
X219036427Y-108051186D01*
X219036427Y-108356001D01*
X218903070Y-108356001D01*
X218903070Y-107933949D01*
X219280914Y-107933949D01*
X219335700Y-107935857D01*
G37*
G36*
X220176330Y-108203172D02*
G01*
X220226954Y-108213630D01*
X220273714Y-108231061D01*
X220316610Y-108255464D01*
X220355642Y-108286840D01*
X220367794Y-108298848D01*
X220400249Y-108338604D01*
X220425989Y-108383684D01*
X220445014Y-108434088D01*
X220457325Y-108489815D01*
X220462454Y-108540322D01*
X220463293Y-108572400D01*
X220461808Y-108623310D01*
X220456320Y-108677345D01*
X220446788Y-108725605D01*
X220430943Y-108773691D01*
X220421039Y-108794905D01*
X220394219Y-108837658D01*
X220361293Y-108874693D01*
X220322263Y-108906008D01*
X220297941Y-108920935D01*
X220251425Y-108942541D01*
X220202552Y-108957076D01*
X220151321Y-108964540D01*
X220121842Y-108965631D01*
X220066475Y-108962162D01*
X220015230Y-108951755D01*
X219968106Y-108934410D01*
X219925104Y-108910127D01*
X219886224Y-108878906D01*
X219874180Y-108866957D01*
X219842057Y-108826897D01*
X219816580Y-108780724D01*
X219797750Y-108728437D01*
X219787134Y-108680194D01*
X219781134Y-108627706D01*
X219779658Y-108582658D01*
X219779667Y-108582414D01*
X219906908Y-108582414D01*
X219909055Y-108632864D01*
X219916985Y-108685427D01*
X219933205Y-108737199D01*
X219957057Y-108780117D01*
X219967969Y-108793928D01*
X220004827Y-108827813D01*
X220051672Y-108852457D01*
X220104719Y-108863410D01*
X220121842Y-108864026D01*
X220171183Y-108858443D01*
X220220251Y-108839142D01*
X220263261Y-108806054D01*
X220274982Y-108793440D01*
X220304499Y-108747881D01*
X220322626Y-108697556D01*
X220332226Y-108645932D01*
X220335804Y-108596047D01*
X220336043Y-108578262D01*
X220333879Y-108529398D01*
X220325885Y-108478294D01*
X220309536Y-108427675D01*
X220281947Y-108380654D01*
X220274494Y-108371632D01*
X220237633Y-108337629D01*
X220191103Y-108312900D01*
X220138705Y-108301909D01*
X220121842Y-108301290D01*
X220072146Y-108306816D01*
X220022821Y-108325917D01*
X219979697Y-108358660D01*
X219967969Y-108371144D01*
X219938452Y-108416097D01*
X219920325Y-108465560D01*
X219910724Y-108516178D01*
X219907147Y-108565016D01*
X219906908Y-108582414D01*
X219779667Y-108582414D01*
X219781421Y-108533440D01*
X219788583Y-108476542D01*
X219801256Y-108424785D01*
X219819438Y-108378168D01*
X219848530Y-108329012D01*
X219885555Y-108287258D01*
X219892498Y-108281018D01*
X219935613Y-108249327D01*
X219982678Y-108225420D01*
X220033693Y-108209296D01*
X220088659Y-108200956D01*
X220121842Y-108199685D01*
X220176330Y-108203172D01*
G37*
G36*
X220954976Y-108203172D02*
G01*
X221005600Y-108213630D01*
X221052360Y-108231061D01*
X221095256Y-108255464D01*
X221134288Y-108286840D01*
X221146441Y-108298848D01*
X221178895Y-108338604D01*
X221204635Y-108383684D01*
X221223660Y-108434088D01*
X221235971Y-108489815D01*
X221241100Y-108540322D01*
X221241939Y-108572400D01*
X221240454Y-108623310D01*
X221234966Y-108677345D01*
X221225434Y-108725605D01*
X221209589Y-108773691D01*
X221199685Y-108794905D01*
X221172865Y-108837658D01*
X221139939Y-108874693D01*
X221100909Y-108906008D01*
X221076587Y-108920935D01*
X221030071Y-108942541D01*
X220981198Y-108957076D01*
X220929968Y-108964540D01*
X220900488Y-108965631D01*
X220845121Y-108962162D01*
X220793876Y-108951755D01*
X220746752Y-108934410D01*
X220703750Y-108910127D01*
X220664870Y-108878906D01*
X220652826Y-108866957D01*
X220620703Y-108826897D01*
X220595226Y-108780724D01*
X220576396Y-108728437D01*
X220565781Y-108680194D01*
X220559781Y-108627706D01*
X220558304Y-108582658D01*
X220558313Y-108582414D01*
X220685554Y-108582414D01*
X220687701Y-108632864D01*
X220695632Y-108685427D01*
X220711851Y-108737199D01*
X220735703Y-108780117D01*
X220746615Y-108793928D01*
X220783473Y-108827813D01*
X220830318Y-108852457D01*
X220883365Y-108863410D01*
X220900488Y-108864026D01*
X220949829Y-108858443D01*
X220998897Y-108839142D01*
X221041907Y-108806054D01*
X221053628Y-108793440D01*
X221083145Y-108747881D01*
X221101272Y-108697556D01*
X221110873Y-108645932D01*
X221114450Y-108596047D01*
X221114689Y-108578262D01*
X221112525Y-108529398D01*
X221104531Y-108478294D01*
X221088182Y-108427675D01*
X221060593Y-108380654D01*
X221053140Y-108371632D01*
X221016279Y-108337629D01*
X220969749Y-108312900D01*
X220917351Y-108301909D01*
X220900488Y-108301290D01*
X220850793Y-108306816D01*
X220801467Y-108325917D01*
X220758343Y-108358660D01*
X220746615Y-108371144D01*
X220717098Y-108416097D01*
X220698971Y-108465560D01*
X220689371Y-108516178D01*
X220685793Y-108565016D01*
X220685554Y-108582414D01*
X220558313Y-108582414D01*
X220560067Y-108533440D01*
X220567230Y-108476542D01*
X220579902Y-108424785D01*
X220598084Y-108378168D01*
X220627176Y-108329012D01*
X220664202Y-108287258D01*
X220671144Y-108281018D01*
X220714259Y-108249327D01*
X220761324Y-108225420D01*
X220812339Y-108209296D01*
X220867305Y-108200956D01*
X220900488Y-108199685D01*
X220954976Y-108203172D01*
G37*
G36*
X221333531Y-108734577D02*
G01*
X221455896Y-108715526D01*
X221468742Y-108764676D01*
X221494286Y-108807302D01*
X221513049Y-108825680D01*
X221557517Y-108850508D01*
X221609512Y-108862191D01*
X221644696Y-108864026D01*
X221693678Y-108860615D01*
X221741122Y-108847518D01*
X221771214Y-108829099D01*
X221802172Y-108790875D01*
X221812491Y-108746545D01*
X221796713Y-108698765D01*
X221775854Y-108679867D01*
X221727566Y-108659670D01*
X221679261Y-108645406D01*
X221649581Y-108637613D01*
X221601501Y-108625025D01*
X221552832Y-108611164D01*
X221502003Y-108594647D01*
X221461025Y-108578018D01*
X221417376Y-108550247D01*
X221383121Y-108511397D01*
X221381402Y-108508653D01*
X221361069Y-108461880D01*
X221354291Y-108410467D01*
X221360564Y-108360564D01*
X221376517Y-108319853D01*
X221404751Y-108279544D01*
X221437334Y-108250732D01*
X221481565Y-108226537D01*
X221515980Y-108214584D01*
X221564248Y-108203890D01*
X221615628Y-108199744D01*
X221622714Y-108199685D01*
X221674372Y-108202071D01*
X221726403Y-108210204D01*
X221773412Y-108224110D01*
X221820596Y-108246816D01*
X221858877Y-108277671D01*
X221869399Y-108290300D01*
X221894186Y-108335680D01*
X221908722Y-108385081D01*
X221911898Y-108402163D01*
X221790997Y-108418527D01*
X221775061Y-108369373D01*
X221743370Y-108332309D01*
X221699138Y-108310045D01*
X221649256Y-108301775D01*
X221631751Y-108301290D01*
X221578920Y-108304638D01*
X221531367Y-108317227D01*
X221510118Y-108329623D01*
X221478844Y-108368854D01*
X221473726Y-108396057D01*
X221488869Y-108439532D01*
X221528459Y-108469345D01*
X221536252Y-108472749D01*
X221583696Y-108487242D01*
X221634383Y-108501457D01*
X221645429Y-108504501D01*
X221699012Y-108519280D01*
X221750948Y-108534683D01*
X221797516Y-108550113D01*
X221828367Y-108562142D01*
X221872201Y-108587662D01*
X221908075Y-108624703D01*
X221909944Y-108627355D01*
X221931156Y-108671987D01*
X221939237Y-108721876D01*
X221939497Y-108733600D01*
X221933531Y-108782995D01*
X221915634Y-108829971D01*
X221903349Y-108850837D01*
X221871888Y-108888401D01*
X221831359Y-108919026D01*
X221799302Y-108935589D01*
X221750485Y-108952693D01*
X221702400Y-108962081D01*
X221650784Y-108965602D01*
X221645429Y-108965631D01*
X221594501Y-108963587D01*
X221541098Y-108956037D01*
X221487994Y-108940597D01*
X221443348Y-108917890D01*
X221428785Y-108907501D01*
X221391133Y-108870222D01*
X221361981Y-108824056D01*
X221343205Y-108775559D01*
X221333531Y-108734577D01*
G37*
G36*
X222352512Y-108836671D02*
G01*
X222370341Y-108950000D01*
X222320882Y-108961723D01*
X222277041Y-108965631D01*
X222227268Y-108962084D01*
X222179732Y-108947979D01*
X222172505Y-108944138D01*
X222134685Y-108911718D01*
X222120237Y-108887229D01*
X222109543Y-108837137D01*
X222106051Y-108784720D01*
X222105338Y-108738974D01*
X222105338Y-108313014D01*
X222014480Y-108313014D01*
X222014480Y-108215317D01*
X222105338Y-108215317D01*
X222105338Y-108037997D01*
X222228192Y-107965212D01*
X222228192Y-108215317D01*
X222352512Y-108215317D01*
X222352512Y-108313014D01*
X222228192Y-108313014D01*
X222228192Y-108748988D01*
X222230431Y-108799685D01*
X222234542Y-108818597D01*
X222255792Y-108843265D01*
X222298290Y-108852302D01*
X222346308Y-108839464D01*
X222352512Y-108836671D01*
G37*
G36*
X219264206Y-109617210D02*
G01*
X219316248Y-109628922D01*
X219362887Y-109649152D01*
X219404122Y-109677901D01*
X219408897Y-109682093D01*
X219443076Y-109719294D01*
X219469652Y-109762998D01*
X219488627Y-109813206D01*
X219498994Y-109862471D01*
X219500000Y-109869916D01*
X219377145Y-109879685D01*
X219362766Y-109829036D01*
X219341127Y-109784530D01*
X219330251Y-109770265D01*
X219289401Y-109736926D01*
X219241957Y-109718974D01*
X219206664Y-109715554D01*
X219157704Y-109721772D01*
X219111368Y-109742233D01*
X219102861Y-109748039D01*
X219065643Y-109781480D01*
X219034256Y-109824042D01*
X219010781Y-109870648D01*
X218994490Y-109921278D01*
X218984259Y-109975396D01*
X218978587Y-110029788D01*
X218976163Y-110081637D01*
X218975854Y-110099993D01*
X219008921Y-110059755D01*
X219046663Y-110027368D01*
X219085031Y-110004738D01*
X219134398Y-109985687D01*
X219185415Y-109975429D01*
X219220341Y-109973475D01*
X219272741Y-109977846D01*
X219321588Y-109990959D01*
X219366881Y-110012815D01*
X219408622Y-110043412D01*
X219430879Y-110064822D01*
X219464759Y-110107238D01*
X219490318Y-110154774D01*
X219507555Y-110207430D01*
X219515706Y-110256637D01*
X219517829Y-110300516D01*
X219514583Y-110352916D01*
X219504846Y-110403230D01*
X219488617Y-110451457D01*
X219476796Y-110477348D01*
X219451419Y-110520221D01*
X219417511Y-110560788D01*
X219377592Y-110593914D01*
X219364445Y-110602400D01*
X219317986Y-110625198D01*
X219267759Y-110639552D01*
X219213763Y-110645462D01*
X219202512Y-110645631D01*
X219146544Y-110641621D01*
X219094595Y-110629591D01*
X219046664Y-110609541D01*
X219002752Y-110581471D01*
X218962858Y-110545382D01*
X218950453Y-110531570D01*
X218917334Y-110483602D01*
X218894970Y-110435692D01*
X218877363Y-110380566D01*
X218866705Y-110331271D01*
X218861913Y-110297341D01*
X218995150Y-110297341D01*
X218999624Y-110349399D01*
X219013047Y-110399603D01*
X219022260Y-110422149D01*
X219047835Y-110465894D01*
X219083312Y-110502546D01*
X219097976Y-110513007D01*
X219144845Y-110535272D01*
X219193860Y-110543905D01*
X219200558Y-110544026D01*
X219251723Y-110536407D01*
X219297750Y-110513549D01*
X219335136Y-110479546D01*
X219364888Y-110434714D01*
X219382244Y-110386616D01*
X219390178Y-110337699D01*
X219391556Y-110304180D01*
X219388075Y-110253759D01*
X219375839Y-110203786D01*
X219351911Y-110156646D01*
X219335868Y-110136385D01*
X219298249Y-110104056D01*
X219250367Y-110082324D01*
X219200927Y-110075140D01*
X219195673Y-110075080D01*
X219145794Y-110081067D01*
X219096657Y-110101482D01*
X219057197Y-110132613D01*
X219053524Y-110136385D01*
X219022740Y-110178445D01*
X219003358Y-110227995D01*
X218995663Y-110278993D01*
X218995150Y-110297341D01*
X218861913Y-110297341D01*
X218859091Y-110277359D01*
X218854523Y-110218828D01*
X218853000Y-110155680D01*
X218853947Y-110102175D01*
X218856787Y-110051478D01*
X218863519Y-109988250D01*
X218873617Y-109930013D01*
X218887081Y-109876768D01*
X218903911Y-109828515D01*
X218929681Y-109775218D01*
X218960711Y-109729720D01*
X218998275Y-109690376D01*
X219040441Y-109659172D01*
X219087210Y-109636109D01*
X219138581Y-109621185D01*
X219194555Y-109614401D01*
X219214235Y-109613949D01*
X219264206Y-109617210D01*
G37*
G36*
X220018664Y-109617817D02*
G01*
X220067313Y-109629419D01*
X220107431Y-109646678D01*
X220150388Y-109675311D01*
X220187299Y-109712120D01*
X220208548Y-109741200D01*
X220233898Y-109786718D01*
X220253438Y-109833659D01*
X220268168Y-109880433D01*
X220271074Y-109891409D01*
X220281012Y-109939479D01*
X220288110Y-109995273D01*
X220291992Y-110050430D01*
X220293589Y-110102413D01*
X220293789Y-110130034D01*
X220292900Y-110183930D01*
X220290235Y-110234486D01*
X220284691Y-110290746D01*
X220276588Y-110342197D01*
X220263900Y-110396147D01*
X220257397Y-110417264D01*
X220236941Y-110468753D01*
X220211967Y-110514045D01*
X220182475Y-110553139D01*
X220148464Y-110586036D01*
X220104647Y-110614844D01*
X220054801Y-110634224D01*
X220005433Y-110643536D01*
X219965282Y-110645631D01*
X219912892Y-110641947D01*
X219864898Y-110630896D01*
X219814462Y-110608692D01*
X219770010Y-110576460D01*
X219736671Y-110540851D01*
X219707963Y-110497591D01*
X219684120Y-110446579D01*
X219668550Y-110400188D01*
X219656094Y-110348836D01*
X219646751Y-110292523D01*
X219640523Y-110231248D01*
X219637896Y-110182037D01*
X219637020Y-110130034D01*
X219637024Y-110129790D01*
X219764026Y-110129790D01*
X219764934Y-110189469D01*
X219767659Y-110243943D01*
X219772201Y-110293212D01*
X219780432Y-110347477D01*
X219794056Y-110401859D01*
X219815117Y-110450502D01*
X219822156Y-110461472D01*
X219856979Y-110501378D01*
X219900657Y-110530401D01*
X219949581Y-110543300D01*
X219965282Y-110544026D01*
X220015910Y-110535940D01*
X220061243Y-110511683D01*
X220097515Y-110476025D01*
X220108653Y-110461228D01*
X220131303Y-110417068D01*
X220146289Y-110366584D01*
X220155656Y-110315606D01*
X220162184Y-110256531D01*
X220165363Y-110203441D01*
X220166726Y-110145168D01*
X220166782Y-110129790D01*
X220165874Y-110069947D01*
X220163149Y-110015347D01*
X220158608Y-109965991D01*
X220150377Y-109911670D01*
X220136753Y-109857299D01*
X220115692Y-109808778D01*
X220108653Y-109797864D01*
X220073714Y-109758076D01*
X220029635Y-109729139D01*
X219980024Y-109716278D01*
X219964061Y-109715554D01*
X219914149Y-109722638D01*
X219867014Y-109746795D01*
X219831226Y-109783631D01*
X219828018Y-109788094D01*
X219803083Y-109836085D01*
X219786586Y-109889144D01*
X219776274Y-109941770D01*
X219769088Y-110002040D01*
X219765588Y-110055760D01*
X219764089Y-110114373D01*
X219764026Y-110129790D01*
X219637024Y-110129790D01*
X219637914Y-110075793D01*
X219640598Y-110024962D01*
X219646179Y-109968468D01*
X219654336Y-109916885D01*
X219667109Y-109862912D01*
X219673656Y-109841828D01*
X219694310Y-109790262D01*
X219719391Y-109744986D01*
X219748898Y-109705998D01*
X219782833Y-109673300D01*
X219826592Y-109644610D01*
X219876264Y-109625309D01*
X219925380Y-109616036D01*
X219965282Y-109613949D01*
X220018664Y-109617817D01*
G37*
G36*
X220797310Y-109617817D02*
G01*
X220845959Y-109629419D01*
X220886078Y-109646678D01*
X220929034Y-109675311D01*
X220965945Y-109712120D01*
X220987194Y-109741200D01*
X221012544Y-109786718D01*
X221032084Y-109833659D01*
X221046814Y-109880433D01*
X221049720Y-109891409D01*
X221059658Y-109939479D01*
X221066756Y-109995273D01*
X221070638Y-110050430D01*
X221072235Y-110102413D01*
X221072435Y-110130034D01*
X221071546Y-110183930D01*
X221068881Y-110234486D01*
X221063337Y-110290746D01*
X221055234Y-110342197D01*
X221042546Y-110396147D01*
X221036043Y-110417264D01*
X221015587Y-110468753D01*
X220990614Y-110514045D01*
X220961121Y-110553139D01*
X220927110Y-110586036D01*
X220883293Y-110614844D01*
X220833447Y-110634224D01*
X220784080Y-110643536D01*
X220743928Y-110645631D01*
X220691538Y-110641947D01*
X220643545Y-110630896D01*
X220593108Y-110608692D01*
X220548656Y-110576460D01*
X220515317Y-110540851D01*
X220486609Y-110497591D01*
X220462767Y-110446579D01*
X220447196Y-110400188D01*
X220434740Y-110348836D01*
X220425397Y-110292523D01*
X220419169Y-110231248D01*
X220416542Y-110182037D01*
X220415666Y-110130034D01*
X220415670Y-110129790D01*
X220542672Y-110129790D01*
X220543580Y-110189469D01*
X220546305Y-110243943D01*
X220550847Y-110293212D01*
X220559078Y-110347477D01*
X220572702Y-110401859D01*
X220593763Y-110450502D01*
X220600802Y-110461472D01*
X220635625Y-110501378D01*
X220679303Y-110530401D01*
X220728228Y-110543300D01*
X220743928Y-110544026D01*
X220794556Y-110535940D01*
X220839889Y-110511683D01*
X220876161Y-110476025D01*
X220887299Y-110461228D01*
X220909949Y-110417068D01*
X220924936Y-110366584D01*
X220934302Y-110315606D01*
X220940831Y-110256531D01*
X220944009Y-110203441D01*
X220945372Y-110145168D01*
X220945429Y-110129790D01*
X220944520Y-110069947D01*
X220941796Y-110015347D01*
X220937254Y-109965991D01*
X220929023Y-109911670D01*
X220915399Y-109857299D01*
X220894338Y-109808778D01*
X220887299Y-109797864D01*
X220852360Y-109758076D01*
X220808282Y-109729139D01*
X220758670Y-109716278D01*
X220742707Y-109715554D01*
X220692795Y-109722638D01*
X220645660Y-109746795D01*
X220609873Y-109783631D01*
X220606664Y-109788094D01*
X220581730Y-109836085D01*
X220565232Y-109889144D01*
X220554921Y-109941770D01*
X220547734Y-110002040D01*
X220544235Y-110055760D01*
X220542735Y-110114373D01*
X220542672Y-110129790D01*
X220415670Y-110129790D01*
X220416560Y-110075793D01*
X220419244Y-110024962D01*
X220424825Y-109968468D01*
X220432982Y-109916885D01*
X220445755Y-109862912D01*
X220452302Y-109841828D01*
X220472956Y-109790262D01*
X220498037Y-109744986D01*
X220527544Y-109705998D01*
X220561479Y-109673300D01*
X220605239Y-109644610D01*
X220654910Y-109625309D01*
X220704026Y-109616036D01*
X220743928Y-109613949D01*
X220797310Y-109617817D01*
G37*
G36*
X221228750Y-110630000D02*
G01*
X221228750Y-109895317D01*
X221339392Y-109895317D01*
X221339392Y-109996922D01*
X221370924Y-109957443D01*
X221409953Y-109924737D01*
X221430495Y-109911926D01*
X221475558Y-109892279D01*
X221525017Y-109881700D01*
X221560432Y-109879685D01*
X221612717Y-109883611D01*
X221661856Y-109896845D01*
X221693300Y-109912903D01*
X221732931Y-109947063D01*
X221760780Y-109991415D01*
X221766573Y-110005959D01*
X221800834Y-109963046D01*
X221838770Y-109929011D01*
X221887673Y-109900526D01*
X221941579Y-109884125D01*
X221991765Y-109879685D01*
X222042964Y-109883471D01*
X222093046Y-109896781D01*
X222139357Y-109922808D01*
X222158827Y-109940258D01*
X222189610Y-109984355D01*
X222207567Y-110034973D01*
X222215776Y-110088661D01*
X222217201Y-110126371D01*
X222217201Y-110630000D01*
X222094103Y-110630000D01*
X222094103Y-110166182D01*
X222092420Y-110115887D01*
X222084940Y-110067314D01*
X222082135Y-110058471D01*
X222054711Y-110017760D01*
X222038415Y-110005471D01*
X221992329Y-109987594D01*
X221964410Y-109985198D01*
X221914604Y-109991317D01*
X221867314Y-110011948D01*
X221836671Y-110036978D01*
X221807747Y-110079768D01*
X221791871Y-110131440D01*
X221786315Y-110181537D01*
X221785868Y-110202330D01*
X221785868Y-110630000D01*
X221662037Y-110630000D01*
X221662037Y-110151528D01*
X221658458Y-110099342D01*
X221645001Y-110050320D01*
X221631751Y-110026964D01*
X221592062Y-109995640D01*
X221541505Y-109985362D01*
X221533077Y-109985198D01*
X221482763Y-109992159D01*
X221436357Y-110013042D01*
X221398194Y-110047114D01*
X221373396Y-110090813D01*
X221372121Y-110094131D01*
X221359312Y-110145212D01*
X221353902Y-110195148D01*
X221352337Y-110248004D01*
X221352337Y-110630000D01*
X221228750Y-110630000D01*
G37*
G36*
X223241800Y-110630000D02*
G01*
X223090125Y-110630000D01*
X222972644Y-110317369D01*
X222551570Y-110317369D01*
X222440928Y-110630000D01*
X222299511Y-110630000D01*
X222460114Y-110207948D01*
X222589916Y-110207948D01*
X222931367Y-110207948D01*
X222826343Y-109928778D01*
X222809167Y-109882656D01*
X222791320Y-109832885D01*
X222773815Y-109781327D01*
X222757807Y-109730112D01*
X222754780Y-109719706D01*
X222744247Y-109768097D01*
X222731699Y-109816304D01*
X222717136Y-109864329D01*
X222700558Y-109912170D01*
X222589916Y-110207948D01*
X222460114Y-110207948D01*
X222686147Y-109613949D01*
X222829762Y-109613949D01*
X223241800Y-110630000D01*
G37*
G36*
X198446981Y-116155000D02*
G01*
X198446981Y-114806779D01*
X197949459Y-114806779D01*
X197949459Y-114630924D01*
X199146737Y-114630924D01*
X199146737Y-114806779D01*
X198647016Y-114806779D01*
X198647016Y-116155000D01*
X198446981Y-116155000D01*
G37*
G36*
X199993903Y-114632083D02*
G01*
X200068449Y-114636090D01*
X200144713Y-114645579D01*
X200216998Y-114662407D01*
X200286077Y-114689850D01*
X200331193Y-114716653D01*
X200387378Y-114766174D01*
X200433889Y-114829601D01*
X200452093Y-114863565D01*
X200480223Y-114936861D01*
X200494603Y-115008756D01*
X200498255Y-115070928D01*
X200492382Y-115152878D01*
X200474763Y-115229148D01*
X200445399Y-115299739D01*
X200404288Y-115364649D01*
X200375523Y-115399190D01*
X200312378Y-115451580D01*
X200243213Y-115486245D01*
X200160163Y-115511455D01*
X200080348Y-115525242D01*
X199990891Y-115532464D01*
X199932588Y-115533646D01*
X199544975Y-115533646D01*
X199544975Y-116155000D01*
X199344940Y-116155000D01*
X199344940Y-115357791D01*
X199544975Y-115357791D01*
X199935519Y-115357791D01*
X200014928Y-115354267D01*
X200092500Y-115341610D01*
X200162963Y-115316369D01*
X200210659Y-115284152D01*
X200256965Y-115226468D01*
X200284049Y-115154672D01*
X200291992Y-115077156D01*
X200284071Y-115003166D01*
X200257824Y-114933763D01*
X200243998Y-114911559D01*
X200192585Y-114857211D01*
X200122839Y-114821777D01*
X200117969Y-114820334D01*
X200040159Y-114809757D01*
X199964136Y-114806991D01*
X199931489Y-114806779D01*
X199544975Y-114806779D01*
X199544975Y-115357791D01*
X199344940Y-115357791D01*
X199344940Y-114630924D01*
X199915003Y-114630924D01*
X199993903Y-114632083D01*
G37*
G36*
X201449337Y-115615711D02*
G01*
X201653401Y-115615711D01*
X201653401Y-115785704D01*
X201449337Y-115785704D01*
X201449337Y-116155000D01*
X201263956Y-116155000D01*
X201263956Y-115785704D01*
X200608531Y-115785704D01*
X200608531Y-115615711D01*
X200790980Y-115615711D01*
X201263956Y-115615711D01*
X201263956Y-114930610D01*
X200790980Y-115615711D01*
X200608531Y-115615711D01*
X201298028Y-114630924D01*
X201449337Y-114630924D01*
X201449337Y-115615711D01*
G37*
G36*
X202409783Y-114636725D02*
G01*
X202482756Y-114654128D01*
X202542934Y-114680017D01*
X202607368Y-114722967D01*
X202662735Y-114778180D01*
X202694609Y-114821800D01*
X202732634Y-114890078D01*
X202761943Y-114960488D01*
X202784039Y-115030649D01*
X202788398Y-115047114D01*
X202803304Y-115119219D01*
X202813952Y-115202910D01*
X202819775Y-115285645D01*
X202822170Y-115363620D01*
X202822470Y-115405052D01*
X202821137Y-115485895D01*
X202817139Y-115561730D01*
X202808823Y-115646120D01*
X202796668Y-115723296D01*
X202777637Y-115804220D01*
X202767882Y-115835896D01*
X202737199Y-115913130D01*
X202699738Y-115981068D01*
X202655499Y-116039709D01*
X202604483Y-116089054D01*
X202538756Y-116132266D01*
X202463988Y-116161336D01*
X202389937Y-116175304D01*
X202329710Y-116178447D01*
X202251125Y-116172921D01*
X202179134Y-116156345D01*
X202103480Y-116123038D01*
X202036802Y-116074690D01*
X201986793Y-116021277D01*
X201943731Y-115956386D01*
X201907967Y-115879869D01*
X201884612Y-115810282D01*
X201865927Y-115733254D01*
X201851914Y-115648784D01*
X201842571Y-115556873D01*
X201838630Y-115483055D01*
X201837316Y-115405052D01*
X201837322Y-115404685D01*
X202027826Y-115404685D01*
X202029188Y-115494204D01*
X202033275Y-115575915D01*
X202040087Y-115649818D01*
X202052434Y-115731216D01*
X202072871Y-115812789D01*
X202104462Y-115885753D01*
X202115020Y-115902208D01*
X202167255Y-115962068D01*
X202232771Y-116005602D01*
X202306159Y-116024951D01*
X202329710Y-116026039D01*
X202405652Y-116013911D01*
X202473651Y-115977525D01*
X202528059Y-115924037D01*
X202544766Y-115901842D01*
X202578741Y-115835602D01*
X202601221Y-115759876D01*
X202615271Y-115683410D01*
X202625063Y-115594797D01*
X202629832Y-115515162D01*
X202631875Y-115427752D01*
X202631960Y-115404685D01*
X202630598Y-115314921D01*
X202626511Y-115233021D01*
X202619699Y-115158987D01*
X202607352Y-115077505D01*
X202586916Y-114995949D01*
X202555324Y-114923167D01*
X202544766Y-114906796D01*
X202492357Y-114847114D01*
X202426240Y-114803708D01*
X202351822Y-114784417D01*
X202327878Y-114783332D01*
X202253010Y-114793958D01*
X202182307Y-114830192D01*
X202128626Y-114885447D01*
X202123813Y-114892142D01*
X202086412Y-114964127D01*
X202061665Y-115043717D01*
X202046198Y-115122655D01*
X202035418Y-115213060D01*
X202030169Y-115293640D01*
X202027919Y-115381559D01*
X202027826Y-115404685D01*
X201837322Y-115404685D01*
X201838658Y-115323690D01*
X201842683Y-115247444D01*
X201851055Y-115162702D01*
X201863291Y-115085327D01*
X201882450Y-115004369D01*
X201892271Y-114972742D01*
X201923252Y-114895393D01*
X201960873Y-114827479D01*
X202005134Y-114768998D01*
X202056036Y-114719951D01*
X202121675Y-114676915D01*
X202196183Y-114647964D01*
X202269857Y-114634054D01*
X202329710Y-114630924D01*
X202409783Y-114636725D01*
G37*
G36*
X203005286Y-115756395D02*
G01*
X203200191Y-115739909D01*
X203216871Y-115814481D01*
X203246008Y-115884219D01*
X203290952Y-115944980D01*
X203300575Y-115954232D01*
X203364237Y-115997990D01*
X203437069Y-116021551D01*
X203490718Y-116026039D01*
X203570288Y-116015950D01*
X203641844Y-115985682D01*
X203705385Y-115935235D01*
X203717131Y-115922725D01*
X203762115Y-115859307D01*
X203792376Y-115785282D01*
X203806916Y-115710578D01*
X203810188Y-115649050D01*
X203804601Y-115572183D01*
X203784959Y-115495943D01*
X203751175Y-115430541D01*
X203720795Y-115392962D01*
X203659751Y-115343503D01*
X203587902Y-115312362D01*
X203514000Y-115299997D01*
X203487421Y-115299173D01*
X203412498Y-115307307D01*
X203339538Y-115334076D01*
X203325854Y-115341671D01*
X203264953Y-115386804D01*
X203217577Y-115443208D01*
X203212281Y-115451580D01*
X203038258Y-115428866D01*
X203184438Y-114654371D01*
X203935851Y-114654371D01*
X203935851Y-114830226D01*
X203332815Y-114830226D01*
X203251482Y-115236158D01*
X203320428Y-115197049D01*
X203390976Y-115169113D01*
X203463126Y-115152352D01*
X203536880Y-115146765D01*
X203620471Y-115153357D01*
X203698136Y-115173132D01*
X203769876Y-115206090D01*
X203835690Y-115252232D01*
X203870638Y-115284518D01*
X203923742Y-115348411D01*
X203963803Y-115419878D01*
X203990821Y-115498918D01*
X204003598Y-115572695D01*
X204006926Y-115638426D01*
X204002727Y-115713667D01*
X203987214Y-115796466D01*
X203960271Y-115873901D01*
X203921898Y-115945971D01*
X203887491Y-115994166D01*
X203829226Y-116056792D01*
X203763517Y-116106462D01*
X203690362Y-116143174D01*
X203609764Y-116166929D01*
X203536911Y-116176827D01*
X203490718Y-116178447D01*
X203416036Y-116174390D01*
X203335646Y-116159401D01*
X203262513Y-116133367D01*
X203196639Y-116096289D01*
X203154030Y-116063042D01*
X203102458Y-116008798D01*
X203061545Y-115947367D01*
X203031292Y-115878748D01*
X203011697Y-115802941D01*
X203005286Y-115756395D01*
G37*
G36*
X204782003Y-114635815D02*
G01*
X204860067Y-114653384D01*
X204930026Y-114683729D01*
X204991878Y-114726851D01*
X204999040Y-114733140D01*
X205050308Y-114788942D01*
X205090173Y-114854498D01*
X205118635Y-114929809D01*
X205134185Y-115003707D01*
X205135694Y-115014874D01*
X204951413Y-115029528D01*
X204929843Y-114953554D01*
X204897385Y-114886795D01*
X204881071Y-114865397D01*
X204819796Y-114815389D01*
X204748630Y-114788461D01*
X204695690Y-114783332D01*
X204622250Y-114792658D01*
X204552746Y-114823350D01*
X204539986Y-114832058D01*
X204484160Y-114882221D01*
X204437079Y-114946063D01*
X204401866Y-115015973D01*
X204377430Y-115091917D01*
X204362082Y-115173095D01*
X204353575Y-115254682D01*
X204349938Y-115332456D01*
X204349476Y-115359989D01*
X204399076Y-115299633D01*
X204455689Y-115251053D01*
X204513241Y-115217107D01*
X204587292Y-115188531D01*
X204663817Y-115173143D01*
X204716207Y-115170212D01*
X204794806Y-115176769D01*
X204868076Y-115196439D01*
X204936017Y-115229222D01*
X204998628Y-115275118D01*
X205032013Y-115307233D01*
X205082833Y-115370858D01*
X205121171Y-115442162D01*
X205147027Y-115521145D01*
X205159254Y-115594956D01*
X205162438Y-115660774D01*
X205157570Y-115739374D01*
X205142964Y-115814845D01*
X205118621Y-115887185D01*
X205100889Y-115926022D01*
X205062822Y-115990332D01*
X205011961Y-116051182D01*
X204952083Y-116100871D01*
X204932362Y-116113600D01*
X204862674Y-116147797D01*
X204787333Y-116169328D01*
X204706339Y-116178194D01*
X204689462Y-116178447D01*
X204605510Y-116172432D01*
X204527586Y-116154387D01*
X204455690Y-116124312D01*
X204389822Y-116082207D01*
X204329982Y-116028073D01*
X204311374Y-116007355D01*
X204261696Y-115935403D01*
X204228149Y-115863538D01*
X204201740Y-115780850D01*
X204185751Y-115706907D01*
X204178564Y-115656011D01*
X204378419Y-115656011D01*
X204385130Y-115734099D01*
X204405265Y-115809405D01*
X204419085Y-115843224D01*
X204457448Y-115908841D01*
X204510662Y-115963819D01*
X204532658Y-115979511D01*
X204602962Y-116012908D01*
X204676485Y-116025858D01*
X204686531Y-116026039D01*
X204763278Y-116014610D01*
X204832320Y-115980324D01*
X204888398Y-115929319D01*
X204933027Y-115862071D01*
X204959061Y-115789924D01*
X204970962Y-115716548D01*
X204973028Y-115666270D01*
X204967807Y-115590638D01*
X204949453Y-115515680D01*
X204913561Y-115444969D01*
X204889497Y-115414577D01*
X204833068Y-115366084D01*
X204761245Y-115333486D01*
X204687084Y-115322710D01*
X204679204Y-115322620D01*
X204604386Y-115331600D01*
X204530680Y-115362223D01*
X204471490Y-115408920D01*
X204465980Y-115414577D01*
X204419805Y-115477668D01*
X204390732Y-115551993D01*
X204379188Y-115628490D01*
X204378419Y-115656011D01*
X204178564Y-115656011D01*
X204174331Y-115626038D01*
X204167479Y-115538242D01*
X204165195Y-115443520D01*
X204166615Y-115363263D01*
X204170875Y-115287217D01*
X204180973Y-115192375D01*
X204196120Y-115105020D01*
X204216316Y-115025152D01*
X204241560Y-114952772D01*
X204280216Y-114872827D01*
X204326762Y-114804581D01*
X204383107Y-114745565D01*
X204446357Y-114698759D01*
X204516510Y-114664163D01*
X204593566Y-114641778D01*
X204677527Y-114631602D01*
X204707048Y-114630924D01*
X204782003Y-114635815D01*
G37*
G36*
X198223499Y-117696807D02*
G01*
X198278053Y-117639420D01*
X198338814Y-117596128D01*
X198415853Y-117563911D01*
X198489912Y-117550823D01*
X198523551Y-117549528D01*
X198597620Y-117555299D01*
X198674489Y-117574573D01*
X198714427Y-117590561D01*
X198782394Y-117629105D01*
X198839840Y-117678653D01*
X198862805Y-117705233D01*
X198905962Y-117770442D01*
X198938394Y-117839650D01*
X198954030Y-117884019D01*
X198972802Y-117957535D01*
X198983782Y-118034515D01*
X198987002Y-118107501D01*
X198983603Y-118192642D01*
X198973407Y-118271521D01*
X198956412Y-118344139D01*
X198927046Y-118423016D01*
X198887891Y-118492877D01*
X198847784Y-118544207D01*
X198793744Y-118596625D01*
X198725716Y-118644071D01*
X198652323Y-118676757D01*
X198573566Y-118694681D01*
X198514026Y-118698447D01*
X198433375Y-118690716D01*
X198360684Y-118667522D01*
X198295952Y-118628866D01*
X198239178Y-118574747D01*
X198210310Y-118536880D01*
X198210310Y-118675000D01*
X198038119Y-118675000D01*
X198038119Y-118115561D01*
X198208112Y-118115561D01*
X198210671Y-118197016D01*
X198219865Y-118277227D01*
X198238200Y-118351042D01*
X198261601Y-118402058D01*
X198309251Y-118465050D01*
X198372109Y-118514403D01*
X198444762Y-118540977D01*
X198498639Y-118546039D01*
X198571439Y-118535664D01*
X198637800Y-118504537D01*
X198697720Y-118452659D01*
X198708932Y-118439794D01*
X198751790Y-118371771D01*
X198778111Y-118297439D01*
X198792051Y-118221692D01*
X198797505Y-118135953D01*
X198797592Y-118122889D01*
X198794604Y-118045948D01*
X198783564Y-117966244D01*
X198760987Y-117888420D01*
X198722888Y-117817783D01*
X198712595Y-117804518D01*
X198656002Y-117750422D01*
X198585733Y-117714058D01*
X198507065Y-117701936D01*
X198434265Y-117712312D01*
X198367904Y-117743438D01*
X198307983Y-117795316D01*
X198296772Y-117808182D01*
X198253914Y-117875451D01*
X198227593Y-117947848D01*
X198213653Y-118020925D01*
X198208198Y-118103083D01*
X198208112Y-118115561D01*
X198038119Y-118115561D01*
X198038119Y-117150924D01*
X198223499Y-117150924D01*
X198223499Y-117696807D01*
G37*
G36*
X199744484Y-117552166D02*
G01*
X199817628Y-117561282D01*
X199891894Y-117580816D01*
X199897418Y-117582868D01*
X199965128Y-117615015D01*
X200023401Y-117662912D01*
X200026011Y-117666032D01*
X200064703Y-117730960D01*
X200083897Y-117793161D01*
X200091303Y-117870969D01*
X200093020Y-117949760D01*
X200093056Y-117964986D01*
X200093056Y-118213747D01*
X200093342Y-118290365D01*
X200094441Y-118369980D01*
X200096765Y-118445870D01*
X200102032Y-118522535D01*
X200104780Y-118542742D01*
X200124139Y-118614372D01*
X200152041Y-118675000D01*
X199958234Y-118675000D01*
X199932281Y-118601970D01*
X199921231Y-118536514D01*
X199863902Y-118582270D01*
X199801563Y-118623457D01*
X199734643Y-118657028D01*
X199722662Y-118661810D01*
X199649263Y-118684136D01*
X199571949Y-118696157D01*
X199518230Y-118698447D01*
X199443350Y-118694187D01*
X199367518Y-118678885D01*
X199294634Y-118648369D01*
X199240893Y-118609420D01*
X199189888Y-118548949D01*
X199157774Y-118478817D01*
X199144550Y-118399026D01*
X199144173Y-118381908D01*
X199144818Y-118376046D01*
X199342009Y-118376046D01*
X199357829Y-118449100D01*
X199398063Y-118501709D01*
X199462307Y-118537736D01*
X199536348Y-118551117D01*
X199562561Y-118551901D01*
X199639669Y-118545255D01*
X199715528Y-118523055D01*
X199753070Y-118504640D01*
X199813623Y-118460199D01*
X199862469Y-118399491D01*
X199875802Y-118374581D01*
X199897365Y-118301798D01*
X199905110Y-118224329D01*
X199905844Y-118187002D01*
X199905844Y-118118126D01*
X199832807Y-118142362D01*
X199760210Y-118160050D01*
X199686356Y-118174288D01*
X199602861Y-118187369D01*
X199526508Y-118200575D01*
X199453876Y-118219946D01*
X199440928Y-118225104D01*
X199380052Y-118269585D01*
X199367655Y-118286287D01*
X199342911Y-118357821D01*
X199342009Y-118376046D01*
X199144818Y-118376046D01*
X199152223Y-118308798D01*
X199178555Y-118237735D01*
X199180809Y-118233531D01*
X199223032Y-118172897D01*
X199276430Y-118125819D01*
X199343730Y-118088195D01*
X199410153Y-118064270D01*
X199483870Y-118049010D01*
X199561450Y-118037759D01*
X199575017Y-118036060D01*
X199655075Y-118025533D01*
X199737959Y-118012340D01*
X199818817Y-117996059D01*
X199892101Y-117976211D01*
X199905844Y-117971580D01*
X199906577Y-117923220D01*
X199899209Y-117848190D01*
X199869279Y-117780629D01*
X199854187Y-117764584D01*
X199791143Y-117726408D01*
X199716246Y-117706892D01*
X199642794Y-117701936D01*
X199567740Y-117706229D01*
X199495337Y-117722716D01*
X199449720Y-117745900D01*
X199398415Y-117801928D01*
X199365411Y-117874448D01*
X199357397Y-117901238D01*
X199176046Y-117876325D01*
X199196897Y-117803899D01*
X199228135Y-117736640D01*
X199257379Y-117694242D01*
X199311802Y-117643006D01*
X199376743Y-117605156D01*
X199421144Y-117587264D01*
X199498970Y-117565780D01*
X199576707Y-117553987D01*
X199652361Y-117549676D01*
X199669905Y-117549528D01*
X199744484Y-117552166D01*
G37*
G36*
X200779989Y-118505006D02*
G01*
X200806734Y-118675000D01*
X200732545Y-118692585D01*
X200666782Y-118698447D01*
X200592123Y-118693126D01*
X200520819Y-118671968D01*
X200509979Y-118666207D01*
X200453249Y-118617578D01*
X200431577Y-118580844D01*
X200415536Y-118505705D01*
X200410298Y-118427080D01*
X200409228Y-118358461D01*
X200409228Y-117719521D01*
X200272941Y-117719521D01*
X200272941Y-117572976D01*
X200409228Y-117572976D01*
X200409228Y-117306995D01*
X200593510Y-117197819D01*
X200593510Y-117572976D01*
X200779989Y-117572976D01*
X200779989Y-117719521D01*
X200593510Y-117719521D01*
X200593510Y-118373482D01*
X200596868Y-118449528D01*
X200603035Y-118477896D01*
X200634909Y-118514898D01*
X200698656Y-118528454D01*
X200770683Y-118509197D01*
X200779989Y-118505006D01*
G37*
G36*
X201363241Y-118505006D02*
G01*
X201389986Y-118675000D01*
X201315797Y-118692585D01*
X201250034Y-118698447D01*
X201175375Y-118693126D01*
X201104071Y-118671968D01*
X201093230Y-118666207D01*
X201036501Y-118617578D01*
X201014829Y-118580844D01*
X200998788Y-118505705D01*
X200993550Y-118427080D01*
X200992480Y-118358461D01*
X200992480Y-117719521D01*
X200856193Y-117719521D01*
X200856193Y-117572976D01*
X200992480Y-117572976D01*
X200992480Y-117306995D01*
X201176762Y-117197819D01*
X201176762Y-117572976D01*
X201363241Y-117572976D01*
X201363241Y-117719521D01*
X201176762Y-117719521D01*
X201176762Y-118373482D01*
X201180120Y-118449528D01*
X201186287Y-118477896D01*
X201218161Y-118514898D01*
X201281908Y-118528454D01*
X201353935Y-118509197D01*
X201363241Y-118505006D01*
G37*
G36*
X202070284Y-117554899D02*
G01*
X202144078Y-117571012D01*
X202223008Y-117603387D01*
X202294224Y-117650383D01*
X202349127Y-117702302D01*
X202396440Y-117763959D01*
X202433963Y-117834348D01*
X202461698Y-117913470D01*
X202477333Y-117986075D01*
X202486170Y-118064745D01*
X202488346Y-118132048D01*
X202487613Y-118182606D01*
X201671353Y-118182606D01*
X201679733Y-118255758D01*
X201698841Y-118329701D01*
X201732490Y-118400570D01*
X201773203Y-118452616D01*
X201835077Y-118501882D01*
X201905752Y-118532902D01*
X201985229Y-118545674D01*
X202002180Y-118546039D01*
X202080035Y-118537272D01*
X202152924Y-118508220D01*
X202176203Y-118492916D01*
X202229886Y-118439294D01*
X202270639Y-118371227D01*
X202290509Y-118323290D01*
X202482484Y-118346737D01*
X202458909Y-118416250D01*
X202422908Y-118486936D01*
X202377245Y-118548279D01*
X202321918Y-118600280D01*
X202314323Y-118606123D01*
X202248720Y-118646515D01*
X202174646Y-118675366D01*
X202102881Y-118691144D01*
X202024630Y-118698086D01*
X202001081Y-118698447D01*
X201914583Y-118693230D01*
X201835067Y-118677581D01*
X201762531Y-118651499D01*
X201696976Y-118614984D01*
X201638402Y-118568037D01*
X201620429Y-118550069D01*
X201572618Y-118490091D01*
X201534699Y-118421716D01*
X201506673Y-118344943D01*
X201488538Y-118259771D01*
X201480981Y-118182381D01*
X201479745Y-118133147D01*
X201483215Y-118049511D01*
X201485807Y-118030198D01*
X201681612Y-118030198D01*
X202292707Y-118030198D01*
X202282136Y-117954741D01*
X202259534Y-117878100D01*
X202222732Y-117814043D01*
X202168716Y-117759851D01*
X202098978Y-117720438D01*
X202027465Y-117703688D01*
X201993021Y-117701936D01*
X201917079Y-117710666D01*
X201842717Y-117740434D01*
X201783455Y-117785829D01*
X201777965Y-117791329D01*
X201731247Y-117853067D01*
X201699626Y-117926540D01*
X201684077Y-118002700D01*
X201681612Y-118030198D01*
X201485807Y-118030198D01*
X201493627Y-117971939D01*
X201510979Y-117900432D01*
X201540963Y-117822628D01*
X201580943Y-117753557D01*
X201621894Y-117702669D01*
X201678175Y-117650625D01*
X201740407Y-117609349D01*
X201808590Y-117578840D01*
X201882723Y-117559100D01*
X201962806Y-117550127D01*
X201990823Y-117549528D01*
X202070284Y-117554899D01*
G37*
G36*
X202707431Y-118675000D02*
G01*
X202707431Y-117572976D01*
X202874494Y-117572976D01*
X202874494Y-117741870D01*
X202913370Y-117676203D01*
X202961020Y-117614264D01*
X202992096Y-117586898D01*
X203060360Y-117555696D01*
X203111531Y-117549528D01*
X203188219Y-117559445D01*
X203259866Y-117586201D01*
X203302041Y-117609612D01*
X203238293Y-117782903D01*
X203170150Y-117752952D01*
X203102006Y-117742969D01*
X203027549Y-117758905D01*
X202992829Y-117779972D01*
X202943256Y-117836930D01*
X202923953Y-117881821D01*
X202904976Y-117958912D01*
X202895275Y-118034195D01*
X202892812Y-118099075D01*
X202892812Y-118675000D01*
X202707431Y-118675000D01*
G37*
G36*
X203400226Y-119098517D02*
G01*
X203379710Y-118928157D01*
X203452905Y-118942696D01*
X203485956Y-118944644D01*
X203558984Y-118934600D01*
X203584508Y-118923394D01*
X203639525Y-118873306D01*
X203645690Y-118864043D01*
X203675801Y-118794978D01*
X203702110Y-118721528D01*
X203718597Y-118675000D01*
X203303506Y-117572976D01*
X203503175Y-117572976D01*
X203731053Y-118210816D01*
X203755264Y-118280014D01*
X203778027Y-118351182D01*
X203799340Y-118424321D01*
X203810554Y-118465806D01*
X203829469Y-118393964D01*
X203850353Y-118323108D01*
X203873209Y-118253237D01*
X203886758Y-118214846D01*
X204120498Y-117572976D01*
X204305879Y-117572976D01*
X203889689Y-118692585D01*
X203861794Y-118766509D01*
X203833436Y-118837726D01*
X203803268Y-118906849D01*
X203785642Y-118942079D01*
X203746486Y-119004367D01*
X203695596Y-119059454D01*
X203672069Y-119077267D01*
X203602093Y-119109691D01*
X203525178Y-119120456D01*
X203519661Y-119120498D01*
X203444092Y-119111032D01*
X203400226Y-119098517D01*
G37*
G36*
X198753262Y-120796395D02*
G01*
X198935711Y-120820209D01*
X198918115Y-120898080D01*
X198891613Y-120968201D01*
X198850420Y-121038852D01*
X198797595Y-121099383D01*
X198782571Y-121112934D01*
X198717496Y-121159096D01*
X198645368Y-121192069D01*
X198566187Y-121211852D01*
X198491119Y-121218344D01*
X198479954Y-121218447D01*
X198398827Y-121213269D01*
X198323883Y-121197736D01*
X198255121Y-121171847D01*
X198182713Y-121128555D01*
X198127346Y-121080229D01*
X198118719Y-121071168D01*
X198072403Y-121011306D01*
X198035669Y-120942454D01*
X198008518Y-120864612D01*
X197993212Y-120792876D01*
X197984561Y-120714896D01*
X197982431Y-120648018D01*
X197985236Y-120572258D01*
X197995311Y-120490914D01*
X198012714Y-120415157D01*
X198037443Y-120344986D01*
X198041050Y-120336608D01*
X198079039Y-120266692D01*
X198126650Y-120207383D01*
X198183882Y-120158681D01*
X198219836Y-120136207D01*
X198289082Y-120103975D01*
X198361631Y-120082291D01*
X198437485Y-120071156D01*
X198481053Y-120069528D01*
X198555991Y-120073859D01*
X198633992Y-120089412D01*
X198703842Y-120116277D01*
X198772679Y-120160020D01*
X198830101Y-120216921D01*
X198874599Y-120285819D01*
X198903301Y-120357134D01*
X198918126Y-120416842D01*
X198737875Y-120444685D01*
X198715316Y-120374904D01*
X198676600Y-120309291D01*
X198646284Y-120277990D01*
X198579109Y-120237756D01*
X198505518Y-120222429D01*
X198488381Y-120221936D01*
X198413625Y-120229934D01*
X198340352Y-120257584D01*
X198277383Y-120304982D01*
X198260502Y-120323053D01*
X198218175Y-120389233D01*
X198192180Y-120463680D01*
X198178413Y-120540879D01*
X198173283Y-120616008D01*
X198172941Y-120642889D01*
X198175916Y-120721882D01*
X198186908Y-120803263D01*
X198209388Y-120882060D01*
X198247323Y-120952588D01*
X198257571Y-120965655D01*
X198315474Y-121018592D01*
X198383394Y-121051923D01*
X198461333Y-121065647D01*
X198478122Y-121066039D01*
X198554904Y-121056766D01*
X198626573Y-121025789D01*
X198660205Y-121000094D01*
X198707638Y-120940365D01*
X198737902Y-120868053D01*
X198753262Y-120796395D01*
G37*
G36*
X199088485Y-121195000D02*
G01*
X199088485Y-119670924D01*
X199273866Y-119670924D01*
X199273866Y-120218639D01*
X199333867Y-120160538D01*
X199400390Y-120116708D01*
X199473435Y-120087148D01*
X199553001Y-120071858D01*
X199601395Y-120069528D01*
X199681251Y-120075243D01*
X199753575Y-120092386D01*
X199812787Y-120117889D01*
X199877252Y-120162990D01*
X199924786Y-120220306D01*
X199941015Y-120250879D01*
X199964680Y-120325394D01*
X199976057Y-120403940D01*
X199979698Y-120477545D01*
X199979849Y-120497442D01*
X199979849Y-121195000D01*
X199794103Y-121195000D01*
X199794103Y-120495976D01*
X199788199Y-120415756D01*
X199768069Y-120344786D01*
X199733653Y-120291912D01*
X199671472Y-120248084D01*
X199596529Y-120229363D01*
X199563293Y-120227798D01*
X199488187Y-120237297D01*
X199417427Y-120265794D01*
X199408321Y-120271029D01*
X199349411Y-120318057D01*
X199306627Y-120383304D01*
X199304640Y-120387899D01*
X199283603Y-120463062D01*
X199275338Y-120537173D01*
X199273866Y-120591231D01*
X199273866Y-121195000D01*
X199088485Y-121195000D01*
G37*
G36*
X200793751Y-120072166D02*
G01*
X200866895Y-120081282D01*
X200941161Y-120100816D01*
X200946685Y-120102868D01*
X201014395Y-120135015D01*
X201072669Y-120182912D01*
X201075279Y-120186032D01*
X201113970Y-120250960D01*
X201133164Y-120313161D01*
X201140570Y-120390969D01*
X201142288Y-120469760D01*
X201142323Y-120484986D01*
X201142323Y-120733747D01*
X201142610Y-120810365D01*
X201143709Y-120889980D01*
X201146033Y-120965870D01*
X201151299Y-121042535D01*
X201154047Y-121062742D01*
X201173407Y-121134372D01*
X201201308Y-121195000D01*
X201007501Y-121195000D01*
X200981548Y-121121970D01*
X200970498Y-121056514D01*
X200913170Y-121102270D01*
X200850830Y-121143457D01*
X200783910Y-121177028D01*
X200771929Y-121181810D01*
X200698530Y-121204136D01*
X200621216Y-121216157D01*
X200567498Y-121218447D01*
X200492617Y-121214187D01*
X200416786Y-121198885D01*
X200343901Y-121168369D01*
X200290160Y-121129420D01*
X200239155Y-121068949D01*
X200207041Y-120998817D01*
X200193818Y-120919026D01*
X200193440Y-120901908D01*
X200194085Y-120896046D01*
X200391277Y-120896046D01*
X200407096Y-120969100D01*
X200447330Y-121021709D01*
X200511575Y-121057736D01*
X200585616Y-121071117D01*
X200611828Y-121071901D01*
X200688936Y-121065255D01*
X200764796Y-121043055D01*
X200802337Y-121024640D01*
X200862890Y-120980199D01*
X200911737Y-120919491D01*
X200925069Y-120894581D01*
X200946633Y-120821798D01*
X200954378Y-120744329D01*
X200955111Y-120707002D01*
X200955111Y-120638126D01*
X200882074Y-120662362D01*
X200809477Y-120680050D01*
X200735624Y-120694288D01*
X200652128Y-120707369D01*
X200575775Y-120720575D01*
X200503144Y-120739946D01*
X200490195Y-120745104D01*
X200429319Y-120789585D01*
X200416922Y-120806287D01*
X200392178Y-120877821D01*
X200391277Y-120896046D01*
X200194085Y-120896046D01*
X200201490Y-120828798D01*
X200227822Y-120757735D01*
X200230076Y-120753531D01*
X200272300Y-120692897D01*
X200325697Y-120645819D01*
X200392997Y-120608195D01*
X200459420Y-120584270D01*
X200533137Y-120569010D01*
X200610717Y-120557759D01*
X200624284Y-120556060D01*
X200704342Y-120545533D01*
X200787227Y-120532340D01*
X200868084Y-120516059D01*
X200941368Y-120496211D01*
X200955111Y-120491580D01*
X200955844Y-120443220D01*
X200948477Y-120368190D01*
X200918547Y-120300629D01*
X200903454Y-120284584D01*
X200840411Y-120246408D01*
X200765513Y-120226892D01*
X200692062Y-120221936D01*
X200617007Y-120226229D01*
X200544604Y-120242716D01*
X200498988Y-120265900D01*
X200447682Y-120321928D01*
X200414678Y-120394448D01*
X200406664Y-120421238D01*
X200225314Y-120396325D01*
X200246164Y-120323899D01*
X200277402Y-120256640D01*
X200306646Y-120214242D01*
X200361069Y-120163006D01*
X200426010Y-120125156D01*
X200470411Y-120107264D01*
X200548237Y-120085780D01*
X200625975Y-120073987D01*
X200701629Y-120069676D01*
X200719173Y-120069528D01*
X200793751Y-120072166D01*
G37*
G36*
X201422226Y-121195000D02*
G01*
X201422226Y-120092976D01*
X201589288Y-120092976D01*
X201589288Y-120261870D01*
X201628164Y-120196203D01*
X201675814Y-120134264D01*
X201706891Y-120106898D01*
X201775154Y-120075696D01*
X201826325Y-120069528D01*
X201903013Y-120079445D01*
X201974660Y-120106201D01*
X202016835Y-120129612D01*
X201953087Y-120302903D01*
X201884944Y-120272952D01*
X201816800Y-120262969D01*
X201742343Y-120278905D01*
X201707623Y-120299972D01*
X201658050Y-120356930D01*
X201638747Y-120401821D01*
X201619770Y-120478912D01*
X201610069Y-120554195D01*
X201607606Y-120619075D01*
X201607606Y-121195000D01*
X201422226Y-121195000D01*
G37*
G36*
X202607611Y-120076962D02*
G01*
X202682619Y-120099261D01*
X202751105Y-120136427D01*
X202813070Y-120188459D01*
X202845551Y-120224867D01*
X202845551Y-120092976D01*
X203016643Y-120092976D01*
X203016643Y-121044424D01*
X203015373Y-121121128D01*
X203010496Y-121203491D01*
X203000182Y-121286233D01*
X202982299Y-121363192D01*
X202964619Y-121408590D01*
X202926165Y-121471280D01*
X202875833Y-121525168D01*
X202813623Y-121570255D01*
X202799755Y-121578217D01*
X202732167Y-121608324D01*
X202656349Y-121628577D01*
X202582046Y-121638309D01*
X202522051Y-121640498D01*
X202440053Y-121636291D01*
X202365243Y-121623669D01*
X202288547Y-121598939D01*
X202221239Y-121563218D01*
X202205879Y-121552571D01*
X202147932Y-121496305D01*
X202109691Y-121426012D01*
X202092243Y-121351755D01*
X202089375Y-121288789D01*
X202269626Y-121315533D01*
X202291058Y-121387432D01*
X202332641Y-121436800D01*
X202402585Y-121471862D01*
X202477941Y-121486288D01*
X202520952Y-121488091D01*
X202595792Y-121483046D01*
X202670393Y-121463675D01*
X202719888Y-121436434D01*
X202772491Y-121383309D01*
X202807844Y-121314337D01*
X202814776Y-121291720D01*
X202824333Y-121218049D01*
X202827553Y-121136061D01*
X202827965Y-121052850D01*
X202772036Y-121108238D01*
X202710357Y-121150023D01*
X202632825Y-121181118D01*
X202558824Y-121193750D01*
X202525348Y-121195000D01*
X202444299Y-121189242D01*
X202370411Y-121171970D01*
X202293259Y-121137266D01*
X202225854Y-121086889D01*
X202175837Y-121031235D01*
X202133878Y-120967530D01*
X202100601Y-120899240D01*
X202076004Y-120826365D01*
X202060089Y-120748905D01*
X202052854Y-120666860D01*
X202052372Y-120638492D01*
X202052991Y-120624937D01*
X202242882Y-120624937D01*
X202245883Y-120702410D01*
X202256970Y-120782344D01*
X202279644Y-120859916D01*
X202317908Y-120929613D01*
X202328244Y-120942575D01*
X202386011Y-120995318D01*
X202452150Y-121028527D01*
X202526661Y-121042201D01*
X202542568Y-121042592D01*
X202618438Y-121032896D01*
X202686222Y-121003809D01*
X202745921Y-120955330D01*
X202756891Y-120943307D01*
X202798863Y-120878328D01*
X202824640Y-120805581D01*
X202838292Y-120730358D01*
X202843634Y-120644335D01*
X202843719Y-120631165D01*
X202839441Y-120547153D01*
X202826609Y-120472714D01*
X202801467Y-120399361D01*
X202759826Y-120331783D01*
X202754326Y-120325251D01*
X202695107Y-120270768D01*
X202628732Y-120236465D01*
X202555201Y-120222340D01*
X202539637Y-120221936D01*
X202465892Y-120231846D01*
X202393202Y-120265641D01*
X202334784Y-120317175D01*
X202329344Y-120323419D01*
X202287548Y-120388299D01*
X202261880Y-120459058D01*
X202248285Y-120531079D01*
X202242966Y-120612531D01*
X202242882Y-120624937D01*
X202052991Y-120624937D01*
X202055898Y-120561258D01*
X202066477Y-120487092D01*
X202086808Y-120407323D01*
X202108792Y-120347965D01*
X202144763Y-120277763D01*
X202188790Y-120217182D01*
X202247158Y-120161154D01*
X202273290Y-120142069D01*
X202344259Y-120103815D01*
X202414371Y-120081500D01*
X202490395Y-120070662D01*
X202526081Y-120069528D01*
X202607611Y-120076962D01*
G37*
G36*
X203820040Y-120074899D02*
G01*
X203893833Y-120091012D01*
X203972763Y-120123387D01*
X204043980Y-120170383D01*
X204098883Y-120222302D01*
X204146195Y-120283959D01*
X204183719Y-120354348D01*
X204211454Y-120433470D01*
X204227089Y-120506075D01*
X204235926Y-120584745D01*
X204238101Y-120652048D01*
X204237369Y-120702606D01*
X203421109Y-120702606D01*
X203429489Y-120775758D01*
X203448597Y-120849701D01*
X203482246Y-120920570D01*
X203522958Y-120972616D01*
X203584832Y-121021882D01*
X203655508Y-121052902D01*
X203734984Y-121065674D01*
X203751936Y-121066039D01*
X203829791Y-121057272D01*
X203902680Y-121028220D01*
X203925959Y-121012916D01*
X203979642Y-120959294D01*
X204020394Y-120891227D01*
X204040265Y-120843290D01*
X204232240Y-120866737D01*
X204208665Y-120936250D01*
X204172664Y-121006936D01*
X204127000Y-121068279D01*
X204071674Y-121120280D01*
X204064078Y-121126123D01*
X203998476Y-121166515D01*
X203924402Y-121195366D01*
X203852637Y-121211144D01*
X203774386Y-121218086D01*
X203750837Y-121218447D01*
X203664339Y-121213230D01*
X203584822Y-121197581D01*
X203512287Y-121171499D01*
X203446732Y-121134984D01*
X203388158Y-121088037D01*
X203370184Y-121070069D01*
X203322374Y-121010091D01*
X203284455Y-120941716D01*
X203256428Y-120864943D01*
X203238293Y-120779771D01*
X203230737Y-120702381D01*
X203229501Y-120653147D01*
X203232971Y-120569511D01*
X203235563Y-120550198D01*
X203431367Y-120550198D01*
X204042463Y-120550198D01*
X204031892Y-120474741D01*
X204009290Y-120398100D01*
X203972487Y-120334043D01*
X203918472Y-120279851D01*
X203848734Y-120240438D01*
X203777221Y-120223688D01*
X203742777Y-120221936D01*
X203666835Y-120230666D01*
X203592473Y-120260434D01*
X203533210Y-120305829D01*
X203527721Y-120311329D01*
X203481002Y-120373067D01*
X203449382Y-120446540D01*
X203433833Y-120522700D01*
X203431367Y-120550198D01*
X203235563Y-120550198D01*
X203243382Y-120491939D01*
X203260735Y-120420432D01*
X203290719Y-120342628D01*
X203330699Y-120273557D01*
X203371650Y-120222669D01*
X203427931Y-120170625D01*
X203490163Y-120129349D01*
X203558345Y-120098840D01*
X203632478Y-120079100D01*
X203712562Y-120070127D01*
X203740579Y-120069528D01*
X203820040Y-120074899D01*
G37*
G36*
X204457187Y-121195000D02*
G01*
X204457187Y-120092976D01*
X204624249Y-120092976D01*
X204624249Y-120261870D01*
X204663125Y-120196203D01*
X204710776Y-120134264D01*
X204741852Y-120106898D01*
X204810116Y-120075696D01*
X204861287Y-120069528D01*
X204937974Y-120079445D01*
X205009622Y-120106201D01*
X205051796Y-120129612D01*
X204988049Y-120302903D01*
X204919905Y-120272952D01*
X204851762Y-120262969D01*
X204777304Y-120278905D01*
X204742585Y-120299972D01*
X204693011Y-120356930D01*
X204673709Y-120401821D01*
X204654732Y-120478912D01*
X204645031Y-120554195D01*
X204642568Y-120619075D01*
X204642568Y-121195000D01*
X204457187Y-121195000D01*
G37*
X211940476Y-107974819D02*
X211940476Y-108689104D01*
X211940476Y-108689104D02*
X211892857Y-108831961D01*
X211892857Y-108831961D02*
X211797619Y-108927200D01*
X211797619Y-108927200D02*
X211654762Y-108974819D01*
X211654762Y-108974819D02*
X211559524Y-108974819D01*
X212940476Y-108974819D02*
X212369048Y-108974819D01*
X212654762Y-108974819D02*
X212654762Y-107974819D01*
X212654762Y-107974819D02*
X212559524Y-108117676D01*
X212559524Y-108117676D02*
X212464286Y-108212914D01*
X212464286Y-108212914D02*
X212369048Y-108260533D01*
X213892857Y-108974819D02*
X213321429Y-108974819D01*
X213607143Y-108974819D02*
X213607143Y-107974819D01*
X213607143Y-107974819D02*
X213511905Y-108117676D01*
X213511905Y-108117676D02*
X213416667Y-108212914D01*
X213416667Y-108212914D02*
X213321429Y-108260533D01*
X211990476Y-121974819D02*
X211990476Y-122689104D01*
X211990476Y-122689104D02*
X211942857Y-122831961D01*
X211942857Y-122831961D02*
X211847619Y-122927200D01*
X211847619Y-122927200D02*
X211704762Y-122974819D01*
X211704762Y-122974819D02*
X211609524Y-122974819D01*
X212990476Y-122974819D02*
X212419048Y-122974819D01*
X212704762Y-122974819D02*
X212704762Y-121974819D01*
X212704762Y-121974819D02*
X212609524Y-122117676D01*
X212609524Y-122117676D02*
X212514286Y-122212914D01*
X212514286Y-122212914D02*
X212419048Y-122260533D01*
X213609524Y-121974819D02*
X213704762Y-121974819D01*
X213704762Y-121974819D02*
X213800000Y-122022438D01*
X213800000Y-122022438D02*
X213847619Y-122070057D01*
X213847619Y-122070057D02*
X213895238Y-122165295D01*
X213895238Y-122165295D02*
X213942857Y-122355771D01*
X213942857Y-122355771D02*
X213942857Y-122593866D01*
X213942857Y-122593866D02*
X213895238Y-122784342D01*
X213895238Y-122784342D02*
X213847619Y-122879580D01*
X213847619Y-122879580D02*
X213800000Y-122927200D01*
X213800000Y-122927200D02*
X213704762Y-122974819D01*
X213704762Y-122974819D02*
X213609524Y-122974819D01*
X213609524Y-122974819D02*
X213514286Y-122927200D01*
X213514286Y-122927200D02*
X213466667Y-122879580D01*
X213466667Y-122879580D02*
X213419048Y-122784342D01*
X213419048Y-122784342D02*
X213371429Y-122593866D01*
X213371429Y-122593866D02*
X213371429Y-122355771D01*
X213371429Y-122355771D02*
X213419048Y-122165295D01*
X213419048Y-122165295D02*
X213466667Y-122070057D01*
X213466667Y-122070057D02*
X213514286Y-122022438D01*
X213514286Y-122022438D02*
X213609524Y-121974819D01*
X189416666Y-110599819D02*
X189416666Y-111314104D01*
X189416666Y-111314104D02*
X189369047Y-111456961D01*
X189369047Y-111456961D02*
X189273809Y-111552200D01*
X189273809Y-111552200D02*
X189130952Y-111599819D01*
X189130952Y-111599819D02*
X189035714Y-111599819D01*
X189940476Y-111599819D02*
X190130952Y-111599819D01*
X190130952Y-111599819D02*
X190226190Y-111552200D01*
X190226190Y-111552200D02*
X190273809Y-111504580D01*
X190273809Y-111504580D02*
X190369047Y-111361723D01*
X190369047Y-111361723D02*
X190416666Y-111171247D01*
X190416666Y-111171247D02*
X190416666Y-110790295D01*
X190416666Y-110790295D02*
X190369047Y-110695057D01*
X190369047Y-110695057D02*
X190321428Y-110647438D01*
X190321428Y-110647438D02*
X190226190Y-110599819D01*
X190226190Y-110599819D02*
X190035714Y-110599819D01*
X190035714Y-110599819D02*
X189940476Y-110647438D01*
X189940476Y-110647438D02*
X189892857Y-110695057D01*
X189892857Y-110695057D02*
X189845238Y-110790295D01*
X189845238Y-110790295D02*
X189845238Y-111028390D01*
X189845238Y-111028390D02*
X189892857Y-111123628D01*
X189892857Y-111123628D02*
X189940476Y-111171247D01*
X189940476Y-111171247D02*
X190035714Y-111218866D01*
X190035714Y-111218866D02*
X190226190Y-111218866D01*
X190226190Y-111218866D02*
X190321428Y-111171247D01*
X190321428Y-111171247D02*
X190369047Y-111123628D01*
X190369047Y-111123628D02*
X190416666Y-111028390D01*
X189466666Y-119474819D02*
X189466666Y-120189104D01*
X189466666Y-120189104D02*
X189419047Y-120331961D01*
X189419047Y-120331961D02*
X189323809Y-120427200D01*
X189323809Y-120427200D02*
X189180952Y-120474819D01*
X189180952Y-120474819D02*
X189085714Y-120474819D01*
X190085714Y-119903390D02*
X189990476Y-119855771D01*
X189990476Y-119855771D02*
X189942857Y-119808152D01*
X189942857Y-119808152D02*
X189895238Y-119712914D01*
X189895238Y-119712914D02*
X189895238Y-119665295D01*
X189895238Y-119665295D02*
X189942857Y-119570057D01*
X189942857Y-119570057D02*
X189990476Y-119522438D01*
X189990476Y-119522438D02*
X190085714Y-119474819D01*
X190085714Y-119474819D02*
X190276190Y-119474819D01*
X190276190Y-119474819D02*
X190371428Y-119522438D01*
X190371428Y-119522438D02*
X190419047Y-119570057D01*
X190419047Y-119570057D02*
X190466666Y-119665295D01*
X190466666Y-119665295D02*
X190466666Y-119712914D01*
X190466666Y-119712914D02*
X190419047Y-119808152D01*
X190419047Y-119808152D02*
X190371428Y-119855771D01*
X190371428Y-119855771D02*
X190276190Y-119903390D01*
X190276190Y-119903390D02*
X190085714Y-119903390D01*
X190085714Y-119903390D02*
X189990476Y-119951009D01*
X189990476Y-119951009D02*
X189942857Y-119998628D01*
X189942857Y-119998628D02*
X189895238Y-120093866D01*
X189895238Y-120093866D02*
X189895238Y-120284342D01*
X189895238Y-120284342D02*
X189942857Y-120379580D01*
X189942857Y-120379580D02*
X189990476Y-120427200D01*
X189990476Y-120427200D02*
X190085714Y-120474819D01*
X190085714Y-120474819D02*
X190276190Y-120474819D01*
X190276190Y-120474819D02*
X190371428Y-120427200D01*
X190371428Y-120427200D02*
X190419047Y-120379580D01*
X190419047Y-120379580D02*
X190466666Y-120284342D01*
X190466666Y-120284342D02*
X190466666Y-120093866D01*
X190466666Y-120093866D02*
X190419047Y-119998628D01*
X190419047Y-119998628D02*
X190371428Y-119951009D01*
X190371428Y-119951009D02*
X190276190Y-119903390D01*
X189416666Y-108024819D02*
X189416666Y-108739104D01*
X189416666Y-108739104D02*
X189369047Y-108881961D01*
X189369047Y-108881961D02*
X189273809Y-108977200D01*
X189273809Y-108977200D02*
X189130952Y-109024819D01*
X189130952Y-109024819D02*
X189035714Y-109024819D01*
X189797619Y-108024819D02*
X190464285Y-108024819D01*
X190464285Y-108024819D02*
X190035714Y-109024819D01*
X189466666Y-122024819D02*
X189466666Y-122739104D01*
X189466666Y-122739104D02*
X189419047Y-122881961D01*
X189419047Y-122881961D02*
X189323809Y-122977200D01*
X189323809Y-122977200D02*
X189180952Y-123024819D01*
X189180952Y-123024819D02*
X189085714Y-123024819D01*
X190371428Y-122024819D02*
X190180952Y-122024819D01*
X190180952Y-122024819D02*
X190085714Y-122072438D01*
X190085714Y-122072438D02*
X190038095Y-122120057D01*
X190038095Y-122120057D02*
X189942857Y-122262914D01*
X189942857Y-122262914D02*
X189895238Y-122453390D01*
X189895238Y-122453390D02*
X189895238Y-122834342D01*
X189895238Y-122834342D02*
X189942857Y-122929580D01*
X189942857Y-122929580D02*
X189990476Y-122977200D01*
X189990476Y-122977200D02*
X190085714Y-123024819D01*
X190085714Y-123024819D02*
X190276190Y-123024819D01*
X190276190Y-123024819D02*
X190371428Y-122977200D01*
X190371428Y-122977200D02*
X190419047Y-122929580D01*
X190419047Y-122929580D02*
X190466666Y-122834342D01*
X190466666Y-122834342D02*
X190466666Y-122596247D01*
X190466666Y-122596247D02*
X190419047Y-122501009D01*
X190419047Y-122501009D02*
X190371428Y-122453390D01*
X190371428Y-122453390D02*
X190276190Y-122405771D01*
X190276190Y-122405771D02*
X190085714Y-122405771D01*
X190085714Y-122405771D02*
X189990476Y-122453390D01*
X189990476Y-122453390D02*
X189942857Y-122501009D01*
X189942857Y-122501009D02*
X189895238Y-122596247D01*
X235783333Y-107204819D02*
X235450000Y-106728628D01*
X235211905Y-107204819D02*
X235211905Y-106204819D01*
X235211905Y-106204819D02*
X235592857Y-106204819D01*
X235592857Y-106204819D02*
X235688095Y-106252438D01*
X235688095Y-106252438D02*
X235735714Y-106300057D01*
X235735714Y-106300057D02*
X235783333Y-106395295D01*
X235783333Y-106395295D02*
X235783333Y-106538152D01*
X235783333Y-106538152D02*
X235735714Y-106633390D01*
X235735714Y-106633390D02*
X235688095Y-106681009D01*
X235688095Y-106681009D02*
X235592857Y-106728628D01*
X235592857Y-106728628D02*
X235211905Y-106728628D01*
X236735714Y-107204819D02*
X236164286Y-107204819D01*
X236450000Y-107204819D02*
X236450000Y-106204819D01*
X236450000Y-106204819D02*
X236354762Y-106347676D01*
X236354762Y-106347676D02*
X236259524Y-106442914D01*
X236259524Y-106442914D02*
X236164286Y-106490533D01*
X243766666Y-111654819D02*
X243766666Y-112369104D01*
X243766666Y-112369104D02*
X243719047Y-112511961D01*
X243719047Y-112511961D02*
X243623809Y-112607200D01*
X243623809Y-112607200D02*
X243480952Y-112654819D01*
X243480952Y-112654819D02*
X243385714Y-112654819D01*
X244719047Y-111654819D02*
X244242857Y-111654819D01*
X244242857Y-111654819D02*
X244195238Y-112131009D01*
X244195238Y-112131009D02*
X244242857Y-112083390D01*
X244242857Y-112083390D02*
X244338095Y-112035771D01*
X244338095Y-112035771D02*
X244576190Y-112035771D01*
X244576190Y-112035771D02*
X244671428Y-112083390D01*
X244671428Y-112083390D02*
X244719047Y-112131009D01*
X244719047Y-112131009D02*
X244766666Y-112226247D01*
X244766666Y-112226247D02*
X244766666Y-112464342D01*
X244766666Y-112464342D02*
X244719047Y-112559580D01*
X244719047Y-112559580D02*
X244671428Y-112607200D01*
X244671428Y-112607200D02*
X244576190Y-112654819D01*
X244576190Y-112654819D02*
X244338095Y-112654819D01*
X244338095Y-112654819D02*
X244242857Y-112607200D01*
X244242857Y-112607200D02*
X244195238Y-112559580D01*
X224866666Y-114434819D02*
X224866666Y-115149104D01*
X224866666Y-115149104D02*
X224819047Y-115291961D01*
X224819047Y-115291961D02*
X224723809Y-115387200D01*
X224723809Y-115387200D02*
X224580952Y-115434819D01*
X224580952Y-115434819D02*
X224485714Y-115434819D01*
X225771428Y-114768152D02*
X225771428Y-115434819D01*
X225533333Y-114387200D02*
X225295238Y-115101485D01*
X225295238Y-115101485D02*
X225914285Y-115101485D01*
X227316666Y-122754819D02*
X227316666Y-123469104D01*
X227316666Y-123469104D02*
X227269047Y-123611961D01*
X227269047Y-123611961D02*
X227173809Y-123707200D01*
X227173809Y-123707200D02*
X227030952Y-123754819D01*
X227030952Y-123754819D02*
X226935714Y-123754819D01*
X227697619Y-122754819D02*
X228316666Y-122754819D01*
X228316666Y-122754819D02*
X227983333Y-123135771D01*
X227983333Y-123135771D02*
X228126190Y-123135771D01*
X228126190Y-123135771D02*
X228221428Y-123183390D01*
X228221428Y-123183390D02*
X228269047Y-123231009D01*
X228269047Y-123231009D02*
X228316666Y-123326247D01*
X228316666Y-123326247D02*
X228316666Y-123564342D01*
X228316666Y-123564342D02*
X228269047Y-123659580D01*
X228269047Y-123659580D02*
X228221428Y-123707200D01*
X228221428Y-123707200D02*
X228126190Y-123754819D01*
X228126190Y-123754819D02*
X227840476Y-123754819D01*
X227840476Y-123754819D02*
X227745238Y-123707200D01*
X227745238Y-123707200D02*
X227697619Y-123659580D01*
X241066666Y-122854819D02*
X241066666Y-123569104D01*
X241066666Y-123569104D02*
X241019047Y-123711961D01*
X241019047Y-123711961D02*
X240923809Y-123807200D01*
X240923809Y-123807200D02*
X240780952Y-123854819D01*
X240780952Y-123854819D02*
X240685714Y-123854819D01*
X241495238Y-122950057D02*
X241542857Y-122902438D01*
X241542857Y-122902438D02*
X241638095Y-122854819D01*
X241638095Y-122854819D02*
X241876190Y-122854819D01*
X241876190Y-122854819D02*
X241971428Y-122902438D01*
X241971428Y-122902438D02*
X242019047Y-122950057D01*
X242019047Y-122950057D02*
X242066666Y-123045295D01*
X242066666Y-123045295D02*
X242066666Y-123140533D01*
X242066666Y-123140533D02*
X242019047Y-123283390D01*
X242019047Y-123283390D02*
X241447619Y-123854819D01*
X241447619Y-123854819D02*
X242066666Y-123854819D01*
X255166666Y-120804819D02*
X255166666Y-121519104D01*
X255166666Y-121519104D02*
X255119047Y-121661961D01*
X255119047Y-121661961D02*
X255023809Y-121757200D01*
X255023809Y-121757200D02*
X254880952Y-121804819D01*
X254880952Y-121804819D02*
X254785714Y-121804819D01*
X256166666Y-121804819D02*
X255595238Y-121804819D01*
X255880952Y-121804819D02*
X255880952Y-120804819D01*
X255880952Y-120804819D02*
X255785714Y-120947676D01*
X255785714Y-120947676D02*
X255690476Y-121042914D01*
X255690476Y-121042914D02*
X255595238Y-121090533D01*
X240783333Y-107009580D02*
X240735714Y-107057200D01*
X240735714Y-107057200D02*
X240592857Y-107104819D01*
X240592857Y-107104819D02*
X240497619Y-107104819D01*
X240497619Y-107104819D02*
X240354762Y-107057200D01*
X240354762Y-107057200D02*
X240259524Y-106961961D01*
X240259524Y-106961961D02*
X240211905Y-106866723D01*
X240211905Y-106866723D02*
X240164286Y-106676247D01*
X240164286Y-106676247D02*
X240164286Y-106533390D01*
X240164286Y-106533390D02*
X240211905Y-106342914D01*
X240211905Y-106342914D02*
X240259524Y-106247676D01*
X240259524Y-106247676D02*
X240354762Y-106152438D01*
X240354762Y-106152438D02*
X240497619Y-106104819D01*
X240497619Y-106104819D02*
X240592857Y-106104819D01*
X240592857Y-106104819D02*
X240735714Y-106152438D01*
X240735714Y-106152438D02*
X240783333Y-106200057D01*
X241735714Y-107104819D02*
X241164286Y-107104819D01*
X241450000Y-107104819D02*
X241450000Y-106104819D01*
X241450000Y-106104819D02*
X241354762Y-106247676D01*
X241354762Y-106247676D02*
X241259524Y-106342914D01*
X241259524Y-106342914D02*
X241164286Y-106390533D01*
X236688095Y-108719819D02*
X236688095Y-109529342D01*
X236688095Y-109529342D02*
X236735714Y-109624580D01*
X236735714Y-109624580D02*
X236783333Y-109672200D01*
X236783333Y-109672200D02*
X236878571Y-109719819D01*
X236878571Y-109719819D02*
X237069047Y-109719819D01*
X237069047Y-109719819D02*
X237164285Y-109672200D01*
X237164285Y-109672200D02*
X237211904Y-109624580D01*
X237211904Y-109624580D02*
X237259523Y-109529342D01*
X237259523Y-109529342D02*
X237259523Y-108719819D01*
X238259523Y-109719819D02*
X237688095Y-109719819D01*
X237973809Y-109719819D02*
X237973809Y-108719819D01*
X237973809Y-108719819D02*
X237878571Y-108862676D01*
X237878571Y-108862676D02*
X237783333Y-108957914D01*
X237783333Y-108957914D02*
X237688095Y-109005533D01*
D11*
%TO.C,J11*%
X211420000Y-109520000D02*
X212750000Y-109520000D01*
X211420000Y-110850000D02*
X211420000Y-109520000D01*
X211420000Y-112120000D02*
X211420000Y-112180000D01*
X211420000Y-112120000D02*
X214080000Y-112120000D01*
X211420000Y-112180000D02*
X214080000Y-112180000D01*
X214080000Y-112120000D02*
X214080000Y-112180000D01*
%TO.C,J10*%
X211470000Y-123520000D02*
X212800000Y-123520000D01*
X211470000Y-124850000D02*
X211470000Y-123520000D01*
X211470000Y-126120000D02*
X211470000Y-126180000D01*
X211470000Y-126120000D02*
X214130000Y-126120000D01*
X211470000Y-126180000D02*
X214130000Y-126180000D01*
X214130000Y-126120000D02*
X214130000Y-126180000D01*
%TO.C,J9*%
X188420000Y-112145000D02*
X189750000Y-112145000D01*
X188420000Y-113475000D02*
X188420000Y-112145000D01*
X188420000Y-114745000D02*
X188420000Y-114805000D01*
X188420000Y-114745000D02*
X191080000Y-114745000D01*
X188420000Y-114805000D02*
X191080000Y-114805000D01*
X191080000Y-114745000D02*
X191080000Y-114805000D01*
%TO.C,J8*%
X188470000Y-121020000D02*
X189800000Y-121020000D01*
X188470000Y-122350000D02*
X188470000Y-121020000D01*
X188470000Y-123620000D02*
X188470000Y-123680000D01*
X188470000Y-123620000D02*
X191130000Y-123620000D01*
X188470000Y-123680000D02*
X191130000Y-123680000D01*
X191130000Y-123620000D02*
X191130000Y-123680000D01*
%TO.C,J7*%
X188420000Y-109570000D02*
X189750000Y-109570000D01*
X188420000Y-110900000D02*
X188420000Y-109570000D01*
X188420000Y-112170000D02*
X188420000Y-112230000D01*
X188420000Y-112170000D02*
X191080000Y-112170000D01*
X188420000Y-112230000D02*
X191080000Y-112230000D01*
X191080000Y-112170000D02*
X191080000Y-112230000D01*
%TO.C,J6*%
X188470000Y-123570000D02*
X189800000Y-123570000D01*
X188470000Y-124900000D02*
X188470000Y-123570000D01*
X188470000Y-126170000D02*
X188470000Y-126230000D01*
X188470000Y-126170000D02*
X191130000Y-126170000D01*
X188470000Y-126230000D02*
X191130000Y-126230000D01*
X191130000Y-126170000D02*
X191130000Y-126230000D01*
%TO.C,R1*%
X236085436Y-107715000D02*
X236539564Y-107715000D01*
X236085436Y-109185000D02*
X236539564Y-109185000D01*
%TO.C,J5*%
X260970000Y-111370000D02*
X260970000Y-112700000D01*
X259640000Y-111370000D02*
X260970000Y-111370000D01*
X258370000Y-111370000D02*
X245610000Y-111370000D01*
X258370000Y-111370000D02*
X258370000Y-114030000D01*
X245610000Y-111370000D02*
X245610000Y-114030000D01*
X258370000Y-114030000D02*
X245610000Y-114030000D01*
%TO.C,J4*%
X226530000Y-113980000D02*
X225200000Y-113980000D01*
X226530000Y-112650000D02*
X226530000Y-113980000D01*
X226530000Y-111380000D02*
X226530000Y-106240000D01*
X226530000Y-111380000D02*
X223870000Y-111380000D01*
X226530000Y-106240000D02*
X223870000Y-106240000D01*
X223870000Y-111380000D02*
X223870000Y-106240000D01*
%TO.C,J3*%
X221570000Y-118440000D02*
X221570000Y-127260000D01*
X221570000Y-119250000D02*
X224110000Y-119250000D01*
X221570000Y-127260000D02*
X233950000Y-127260000D01*
X222480000Y-120250000D02*
X233040000Y-120250000D01*
X222480000Y-125550000D02*
X222480000Y-120250000D01*
X223220000Y-125550000D02*
X222480000Y-125550000D01*
X224220000Y-118440000D02*
X226220000Y-118440000D01*
X224220000Y-120250000D02*
X224220000Y-118440000D01*
X224920000Y-117640000D02*
X225520000Y-117640000D01*
X225220000Y-118240000D02*
X224920000Y-117640000D01*
X225520000Y-117640000D02*
X225220000Y-118240000D01*
X226220000Y-118440000D02*
X226220000Y-120250000D01*
X226220000Y-119250000D02*
X229300000Y-119250000D01*
X226220000Y-120250000D02*
X224220000Y-120250000D01*
X227220000Y-125550000D02*
X228300000Y-125550000D01*
X229300000Y-118440000D02*
X231300000Y-118440000D01*
X229300000Y-120250000D02*
X229300000Y-118440000D01*
X231300000Y-118440000D02*
X231300000Y-120250000D01*
X231300000Y-120250000D02*
X229300000Y-120250000D01*
X233040000Y-120250000D02*
X233040000Y-125550000D01*
X233040000Y-125550000D02*
X232300000Y-125550000D01*
X233950000Y-118440000D02*
X221570000Y-118440000D01*
X233950000Y-119250000D02*
X231410000Y-119250000D01*
X233950000Y-127260000D02*
X233950000Y-118440000D01*
X227206842Y-125565821D02*
G75*
G02*
X223220000Y-125550000I-1986842J1665821D01*
G01*
X232286842Y-125565821D02*
G75*
G02*
X228300000Y-125550000I-1986842J1665821D01*
G01*
%TO.C,J2*%
X235310000Y-118412500D02*
X235310000Y-127232500D01*
X235310000Y-119222500D02*
X237850000Y-119222500D01*
X235310000Y-127232500D02*
X247690000Y-127232500D01*
X236220000Y-120222500D02*
X246780000Y-120222500D01*
X236220000Y-125522500D02*
X236220000Y-120222500D01*
X236960000Y-125522500D02*
X236220000Y-125522500D01*
X237960000Y-118412500D02*
X239960000Y-118412500D01*
X237960000Y-120222500D02*
X237960000Y-118412500D01*
X238660000Y-117612500D02*
X239260000Y-117612500D01*
X238960000Y-118212500D02*
X238660000Y-117612500D01*
X239260000Y-117612500D02*
X238960000Y-118212500D01*
X239960000Y-118412500D02*
X239960000Y-120222500D01*
X239960000Y-119222500D02*
X243040000Y-119222500D01*
X239960000Y-120222500D02*
X237960000Y-120222500D01*
X240960000Y-125522500D02*
X242040000Y-125522500D01*
X243040000Y-118412500D02*
X245040000Y-118412500D01*
X243040000Y-120222500D02*
X243040000Y-118412500D01*
X245040000Y-118412500D02*
X245040000Y-120222500D01*
X245040000Y-120222500D02*
X243040000Y-120222500D01*
X246780000Y-120222500D02*
X246780000Y-125522500D01*
X246780000Y-125522500D02*
X246040000Y-125522500D01*
X247690000Y-118412500D02*
X235310000Y-118412500D01*
X247690000Y-119222500D02*
X245150000Y-119222500D01*
X247690000Y-127232500D02*
X247690000Y-118412500D01*
X240946842Y-125538321D02*
G75*
G02*
X236960000Y-125522500I-1986842J1665821D01*
G01*
X246026842Y-125538321D02*
G75*
G02*
X242040000Y-125522500I-1986842J1665821D01*
G01*
%TO.C,J1*%
X249010000Y-118362500D02*
X249010000Y-127182500D01*
X249010000Y-119172500D02*
X251550000Y-119172500D01*
X249010000Y-127182500D02*
X261390000Y-127182500D01*
X249920000Y-120172500D02*
X260480000Y-120172500D01*
X249920000Y-125472500D02*
X249920000Y-120172500D01*
X250660000Y-125472500D02*
X249920000Y-125472500D01*
X251660000Y-118362500D02*
X253660000Y-118362500D01*
X251660000Y-120172500D02*
X251660000Y-118362500D01*
X252360000Y-117562500D02*
X252960000Y-117562500D01*
X252660000Y-118162500D02*
X252360000Y-117562500D01*
X252960000Y-117562500D02*
X252660000Y-118162500D01*
X253660000Y-118362500D02*
X253660000Y-120172500D01*
X253660000Y-119172500D02*
X256740000Y-119172500D01*
X253660000Y-120172500D02*
X251660000Y-120172500D01*
X254660000Y-125472500D02*
X255740000Y-125472500D01*
X256740000Y-118362500D02*
X258740000Y-118362500D01*
X256740000Y-120172500D02*
X256740000Y-118362500D01*
X258740000Y-118362500D02*
X258740000Y-120172500D01*
X258740000Y-120172500D02*
X256740000Y-120172500D01*
X260480000Y-120172500D02*
X260480000Y-125472500D01*
X260480000Y-125472500D02*
X259740000Y-125472500D01*
X261390000Y-118362500D02*
X249010000Y-118362500D01*
X261390000Y-119172500D02*
X258850000Y-119172500D01*
X261390000Y-127182500D02*
X261390000Y-118362500D01*
X254646842Y-125488321D02*
G75*
G02*
X250660000Y-125472500I-1986842J1665821D01*
G01*
X259726842Y-125488321D02*
G75*
G02*
X255740000Y-125472500I-1986842J1665821D01*
G01*
%TO.C,C1*%
X240761252Y-109235000D02*
X240238748Y-109235000D01*
X240761252Y-107765000D02*
X240238748Y-107765000D01*
D10*
%TO.C,U1*%
X234700000Y-110190000D02*
X234700000Y-110395000D01*
X234700000Y-110190000D02*
X240200000Y-110190000D01*
X234700000Y-115700000D02*
X234700000Y-115495000D01*
X234700000Y-115700000D02*
X240200000Y-115700000D01*
X240200000Y-110190000D02*
X240200000Y-110395000D01*
X240200000Y-115700000D02*
X240200000Y-115495000D01*
D11*
X234150000Y-110445000D02*
X233910000Y-110115000D01*
X234390000Y-110115000D01*
X234150000Y-110445000D01*
G36*
X234150000Y-110445000D02*
G01*
X233910000Y-110115000D01*
X234390000Y-110115000D01*
X234150000Y-110445000D01*
G37*
%TD*%
M02*
