M48
; DRILL file {KiCad 8.0.6} date 2024-10-20T14:16:15-0300
; FORMAT={-:-/ absolute / inch / decimal}
; #@! TF.CreationDate,2024-10-20T14:16:15-03:00
; #@! TF.GenerationSoftware,Kicad,Pcbnew,8.0.6
; #@! TF.FileFunction,Plated,1,2,PTH
FMAT,2
INCH
; #@! TA.AperFunction,Plated,PTH,ViaDrill
T1C0.0118
; #@! TA.AperFunction,Plated,PTH,ComponentDrill
T2C0.0394
; #@! TA.AperFunction,Plated,PTH,ComponentDrill
T3C0.0551
%
G90
G05
T1
X3.0502Y-3.8553
X3.8012Y-3.815
X4.6339Y-3.815
X5.5098Y-3.815
X6.3445Y-3.815
X7.1673Y-3.815
X7.9626Y-3.815
X7.9961Y-4.7067
X8.0217Y-4.7067
X8.0492Y-4.7067
X8.6988Y-3.815
X9.1457Y-4.5217
X9.1476Y-4.4705
X9.2185Y-4.2697
X9.3406Y-4.2106
X9.4311Y-4.2185
X9.4587Y-3.815
X10.1614Y-3.815
T2
X7.4705Y-4.3661
X7.4705Y-4.4675
X7.4724Y-4.8169
X7.4724Y-4.9173
X8.376Y-4.3642
X8.378Y-4.9154
X8.8661Y-4.235
X8.8661Y-4.335
X8.8661Y-4.435
X9.722Y-4.437
X9.822Y-4.437
X9.922Y-4.437
X10.022Y-4.437
X10.122Y-4.437
X10.222Y-4.437
T3
X8.8669Y-4.8563
X9.0669Y-4.8563
X9.4079Y-4.8552
X9.6079Y-4.8552
X9.9472Y-4.8532
X10.1472Y-4.8532
M30
